<?xml version="1.0" encoding="utf-8"?>
<!-- Generator: Adobe Illustrator 22.1.0, SVG Export Plug-In . SVG Version: 6.00 Build 0)  -->
<svg version="1.1" id="fad6bd40-d7a1-475a-8cb8-f1a0445f95b8"
	 xmlns="http://www.w3.org/2000/svg" xmlns:xlink="http://www.w3.org/1999/xlink" x="0px" y="0px" viewBox="0 0 782.1 524.3"
	 style="enable-background:new 0 0 782.1 524.3;" xml:space="preserve">
<style type="text/css">
	.st0{fill:#6FA5E2;}
	.st1{fill:#FFB8B8;}
	.st2{fill:#D2B188;}
	.st3{fill:#2F2E41;}
	.st4{opacity:0.2;enable-background:new    ;}
	.st5{fill:#3F3D56;}
	.st6{fill:#323142;}
</style>
<circle class="st0" cx="344.7" cy="340.1" r="78"/>
<path class="st1" d="M626.2,344.5c3.1-4.6,1.8-10.9-2.9-13.9c-0.5-0.3-1-0.6-1.6-0.8l2.6-35.6l-16.2,9.1l0,32.5
	c-1.9,5.3,0.9,11,6.2,12.9C618.8,350.1,623.7,348.4,626.2,344.5L626.2,344.5z"/>
<path class="st2" d="M622.2,205.9l4.4,113.4l-18-1l-4-119l3.8-1.8c4.8-2.3,10.6-0.2,12.9,4.6C621.8,203.4,622.1,204.7,622.2,205.9z"
	/>
<polygon class="st1" points="566.5,512.2 554.3,512.2 548.4,464.9 566.5,464.9 "/>
<path class="st3" d="M545.5,508.7h23.6l0,0v14.9l0,0h-38.5l0,0l0,0C530.6,515.4,537.3,508.7,545.5,508.7z"/>
<polygon class="st1" points="668.5,497.5 657.4,502.7 632.2,462.2 648.7,454.6 "/>
<path class="st3" d="M648,503.2l21.5-9.9l0,0l6.3,13.5l0,0l-35,16.2l0,0l0,0C637.3,515.5,640.5,506.7,648,503.2z"/>
<path class="st3" d="M537.4,357.9l12.6,144.3l17-2l12.6-131.8l69.4,125.8l18-5c0,0-57.9-173.3-62.4-187.8c-4.9-15.9-44-22-44-22
	l-1.5-1.5C542.3,300.5,535.6,329.8,537.4,357.9z"/>
<circle class="st1" cx="603.3" cy="165.2" r="24.6"/>
<path class="st2" d="M622.1,198.2l-18.9,98.7c0,0-25.9-5.2-35.2-11.4c-3.7-2.5-7-5-9.8-7.4c-3.1-2.6-6.2-5.3-9-8.2
	c0,0,6.6-32.6,9-41.3c2.8-10.1,12.2-21.9,19.5-29.9c5.4-5.9,13.7-8.4,21.5-6.4L622.1,198.2z"/>
<path class="st4" d="M567.9,285.4c-3.7-2.5-7-5-9.8-7.4c1-14.9,23-46.2,31.9-46.2C590.1,231.9,592.2,280.1,567.9,285.4z"/>
<path class="st1" d="M522.6,324.7c5.2-1.9,7.9-7.7,6-12.9c-0.2-0.6-0.5-1.1-0.7-1.6l23.4-27l-18.4-2.4l-19.4,26
	c-4.6,3.1-5.9,9.4-2.8,14C513.3,324.7,518.3,326.3,522.6,324.7z"/>
<path class="st2" d="M588,193.4c-1,0-2,0.1-3,0.3c-4.1,0.9-7.4,3.9-8.9,7.8l-28.9,60.3l-31,33l15.5,12.5l49-44l19.6-53.3
	c2.2-6.7-1.5-13.9-8.2-16.1C590.7,193.6,589.3,193.4,588,193.4z"/>
<path class="st3" d="M612,188c1.7-6,2.2-13.8-3-17.4c-5.1-3.5-12-0.6-18.2-0.9c-8.6-0.4-16-8.1-17.2-16.7
	c-1.2-8.6,3.2-17.4,10.1-22.6c6.9-5.2,15.9-7.1,24.6-6.3c10.6,0.9,21,5.9,27.5,14.5c6.4,8.5,8.3,20.6,3.6,30.2
	c-5,10.3-16.1,16.1-27,19.4"/>
<path class="st3" d="M640.1,148.7c2.6,5,9.5,6.2,15,5.2s10.9-3.7,16.5-3.9c10-0.5,18.9,6.5,25.1,14.4c6.2,7.9,10.7,17.1,17.8,24.2
	c7,7.1,17.9,11.9,27.1,8.1c-1,14.2-13.3,24.9-27.5,23.8c-7.6-0.5-14.7-4.5-19.1-10.7c-6.9-9.7-7-23.8-16.1-31.4
	c-5.1-4.2-11.9-5.5-18.4-6.5c-6.5-1-13.3-2-18.7-5.8c-5.4-3.8-8.6-11.5-5.3-17.2"/>
<path class="st5" d="M321.1,433.7c-43.7,0-79.2-35.4-79.2-79.2c0-43.7,35.4-79.2,79.2-79.2c43.7,0,79.2,35.4,79.2,79.2
	C400.3,398.2,364.8,433.6,321.1,433.7z M321.1,277.7c-42.4,0-76.8,34.4-76.8,76.8c0,42.4,34.4,76.8,76.8,76.8s76.8-34.4,76.8-76.8
	c0,0,0,0,0,0C397.9,312.1,363.5,277.8,321.1,277.7z"/>
<polygon class="st2" points="271.4,213.8 198.5,340.1 344.4,340.1 271.4,213.8 198.5,340.1 344.4,340.1 "/>
<g>
	<path class="st6" d="M104.5,62.2v8.2H87.4v8.9h12.8v8H87.4v17H77.1V62.2H104.5z"/>
	<path class="st6" d="M110.7,65.8c-1.1-1.1-1.7-2.4-1.7-3.9c0-1.6,0.6-2.9,1.7-4c1.1-1.1,2.6-1.6,4.4-1.6c1.8,0,3.2,0.5,4.4,1.6
		c1.1,1.1,1.7,2.4,1.7,4c0,1.6-0.6,2.9-1.7,3.9c-1.1,1.1-2.6,1.6-4.4,1.6C113.3,67.4,111.8,66.9,110.7,65.8z M120.2,70.9v33.5h-10.3
		V70.9H120.2z"/>
	<path class="st6" d="M157.4,74.3c2.3,2.5,3.5,6,3.5,10.5v19.6h-10.2V86.2c0-2.2-0.6-4-1.7-5.2c-1.2-1.2-2.7-1.9-4.7-1.9
		c-2,0-3.5,0.6-4.7,1.9c-1.2,1.2-1.7,3-1.7,5.2v18.2h-10.3V70.9h10.3v4.4c1-1.5,2.4-2.6,4.2-3.5c1.8-0.9,3.7-1.3,5.9-1.3
		C151.9,70.5,155.1,71.8,157.4,74.3z"/>
	<path class="st6" d="M168,78.5c1.3-2.6,3.1-4.6,5.3-6c2.2-1.4,4.7-2.1,7.5-2.1c2.2,0,4.2,0.5,6,1.4c1.8,0.9,3.2,2.2,4.3,3.7V59.9
		h10.3v44.4h-10.3v-4.8c-1,1.6-2.3,2.9-4.1,3.8c-1.8,1-3.9,1.4-6.2,1.4c-2.8,0-5.3-0.7-7.5-2.1c-2.2-1.4-4-3.4-5.3-6.1
		c-1.3-2.6-1.9-5.6-1.9-9.1C166,84.1,166.7,81.1,168,78.5z M189,81.5c-1.4-1.5-3.1-2.2-5.2-2.2s-3.8,0.7-5.2,2.2
		c-1.4,1.5-2.1,3.5-2.1,6c0,2.6,0.7,4.6,2.1,6.1c1.4,1.5,3.1,2.3,5.2,2.3s3.8-0.7,5.2-2.2c1.4-1.5,2.1-3.5,2.1-6.1
		C191.1,85,190.4,83,189,81.5z"/>
	<path class="st6" d="M240.2,95.6v8.7H235c-3.7,0-6.6-0.9-8.7-2.7c-2.1-1.8-3.1-4.8-3.1-8.9V79.4h-4.1v-8.5h4.1v-8.2h10.3v8.2h6.7
		v8.5h-6.7v13.4c0,1,0.2,1.7,0.7,2.2c0.5,0.4,1.3,0.7,2.4,0.7H240.2z"/>
	<path class="st6" d="M275.7,74.3c2.3,2.5,3.5,6,3.5,10.5v19.6H269V86.2c0-2.2-0.6-4-1.7-5.2c-1.2-1.2-2.7-1.9-4.7-1.9
		c-2,0-3.5,0.6-4.7,1.9c-1.2,1.2-1.7,3-1.7,5.2v18.2h-10.3V59.9h10.3v15.4c1-1.5,2.5-2.7,4.3-3.5c1.8-0.9,3.8-1.3,6.1-1.3
		C270.3,70.5,273.4,71.8,275.7,74.3z"/>
	<path class="st6" d="M317.7,90.1h-23.2c0.2,2.1,0.8,3.7,2,4.8c1.2,1.1,2.6,1.6,4.4,1.6c2.6,0,4.3-1.1,5.3-3.2h10.9
		c-0.6,2.2-1.6,4.2-3,5.9c-1.5,1.8-3.3,3.1-5.5,4.1c-2.2,1-4.7,1.5-7.4,1.5c-3.3,0-6.2-0.7-8.8-2.1c-2.6-1.4-4.6-3.4-6-6
		c-1.4-2.6-2.2-5.6-2.2-9.1c0-3.5,0.7-6.5,2.1-9.1c1.4-2.6,3.4-4.6,6-6c2.6-1.4,5.5-2.1,8.8-2.1c3.2,0,6.1,0.7,8.6,2
		c2.5,1.4,4.5,3.3,5.9,5.8c1.4,2.5,2.1,5.5,2.1,8.8C317.9,88,317.8,89,317.7,90.1z M307.4,84.4c0-1.8-0.6-3.2-1.8-4.2
		c-1.2-1-2.7-1.6-4.5-1.6c-1.7,0-3.2,0.5-4.4,1.5c-1.2,1-1.9,2.4-2.2,4.3H307.4z"/>
	<path class="st6" d="M350.4,71.8c1.8-1,3.8-1.4,6.2-1.4c2.8,0,5.3,0.7,7.5,2.1c2.2,1.4,4,3.4,5.3,6c1.3,2.6,2,5.6,2,9.1
		c0,3.4-0.7,6.5-2,9.1c-1.3,2.6-3.1,4.6-5.3,6.1c-2.2,1.4-4.7,2.1-7.5,2.1c-2.3,0-4.4-0.5-6.1-1.4c-1.8-1-3.2-2.2-4.2-3.7v20.6H336
		V70.9h10.3v4.7C347.3,74,348.6,72.8,350.4,71.8z M358.8,81.5c-1.4-1.5-3.2-2.2-5.3-2.2c-2,0-3.8,0.7-5.2,2.2
		c-1.4,1.5-2.1,3.5-2.1,6.1c0,2.6,0.7,4.6,2.1,6.1c1.4,1.5,3.2,2.2,5.2,2.2c2,0,3.8-0.8,5.2-2.3s2.2-3.5,2.2-6.1
		C360.9,85,360.2,83,358.8,81.5z"/>
	<path class="st6" d="M408.1,90.1h-23.2c0.2,2.1,0.8,3.7,2,4.8c1.2,1.1,2.6,1.6,4.4,1.6c2.6,0,4.3-1.1,5.3-3.2h10.9
		c-0.6,2.2-1.6,4.2-3,5.9c-1.5,1.8-3.3,3.1-5.5,4.1c-2.2,1-4.7,1.5-7.4,1.5c-3.3,0-6.2-0.7-8.8-2.1c-2.6-1.4-4.6-3.4-6-6
		c-1.4-2.6-2.2-5.6-2.2-9.1c0-3.5,0.7-6.5,2.1-9.1c1.4-2.6,3.4-4.6,6-6c2.6-1.4,5.5-2.1,8.8-2.1c3.2,0,6.1,0.7,8.6,2
		c2.5,1.4,4.5,3.3,5.9,5.8c1.4,2.5,2.1,5.5,2.1,8.8C408.3,88,408.2,89,408.1,90.1z M397.8,84.4c0-1.8-0.6-3.2-1.8-4.2
		c-1.2-1-2.7-1.6-4.5-1.6c-1.7,0-3.2,0.5-4.4,1.5c-1.2,1-1.9,2.4-2.2,4.3H397.8z"/>
	<path class="st6" d="M428.5,72.1c1.8-1.1,3.8-1.6,6-1.6v10.9h-2.8c-2.6,0-4.5,0.6-5.8,1.6c-1.3,1.1-1.9,3-1.9,5.8v15.5h-10.3V70.9
		H424v5.6C425.2,74.6,426.7,73.2,428.5,72.1z"/>
	<path class="st6" d="M456.2,79.4h-5.5v25h-10.3v-25h-3.7v-8.5h3.7v-1c0-4.1,1.2-7.2,3.5-9.4c2.4-2.1,5.8-3.2,10.4-3.2
		c0.8,0,1.3,0,1.7,0.1v8.7c-2-0.1-3.3,0.2-4.1,0.8c-0.8,0.7-1.2,1.9-1.2,3.7v0.3h5.5V79.4z"/>
	<path class="st6" d="M492.4,90.1h-23.2c0.2,2.1,0.8,3.7,2,4.8c1.2,1.1,2.6,1.6,4.4,1.6c2.6,0,4.3-1.1,5.3-3.2h10.9
		c-0.6,2.2-1.6,4.2-3,5.9c-1.5,1.8-3.3,3.1-5.5,4.1c-2.2,1-4.7,1.5-7.4,1.5c-3.3,0-6.2-0.7-8.8-2.1c-2.6-1.4-4.6-3.4-6-6
		c-1.4-2.6-2.2-5.6-2.2-9.1c0-3.5,0.7-6.5,2.1-9.1c1.4-2.6,3.4-4.6,6-6c2.6-1.4,5.5-2.1,8.8-2.1c3.2,0,6.1,0.7,8.6,2
		c2.5,1.4,4.5,3.3,5.9,5.8c1.4,2.5,2.1,5.5,2.1,8.8C492.5,88,492.5,89,492.4,90.1z M482,84.4c0-1.8-0.6-3.2-1.8-4.2
		c-1.2-1-2.7-1.6-4.5-1.6c-1.7,0-3.2,0.5-4.4,1.5c-1.2,1-1.9,2.4-2.2,4.3H482z"/>
	<path class="st6" d="M498,78.5c1.4-2.6,3.4-4.6,5.9-6c2.5-1.4,5.4-2.1,8.7-2.1c4.2,0,7.7,1.1,10.5,3.3c2.8,2.2,4.7,5.3,5.5,9.3
		h-10.9c-0.9-2.6-2.7-3.8-5.3-3.8c-1.9,0-3.4,0.7-4.5,2.2c-1.1,1.5-1.7,3.6-1.7,6.3c0,2.7,0.6,4.8,1.7,6.3c1.1,1.5,2.6,2.2,4.5,2.2
		c2.6,0,4.4-1.3,5.3-3.8h10.9c-0.9,3.9-2.7,7-5.6,9.2c-2.8,2.2-6.3,3.4-10.5,3.4c-3.3,0-6.2-0.7-8.7-2.1c-2.5-1.4-4.5-3.4-5.9-6
		c-1.4-2.6-2.1-5.6-2.1-9.1C495.9,84.1,496.6,81.1,498,78.5z"/>
	<path class="st6" d="M552.9,95.6v8.7h-5.2c-3.7,0-6.6-0.9-8.7-2.7c-2.1-1.8-3.1-4.8-3.1-8.9V79.4h-4.1v-8.5h4.1v-8.2h10.3v8.2h6.7
		v8.5h-6.7v13.4c0,1,0.2,1.7,0.7,2.2c0.5,0.4,1.3,0.7,2.4,0.7H552.9z"/>
	<path class="st6" d="M77,150.5c1.3-2.6,3.1-4.6,5.3-6c2.2-1.4,4.7-2.1,7.5-2.1c2.2,0,4.2,0.5,6,1.4c1.8,0.9,3.2,2.2,4.3,3.7v-15.5
		h10.3v44.4h-10.3v-4.8c-1,1.6-2.3,2.9-4.1,3.8c-1.8,1-3.9,1.4-6.2,1.4c-2.8,0-5.3-0.7-7.5-2.1c-2.2-1.4-4-3.4-5.3-6.1
		c-1.3-2.6-1.9-5.6-1.9-9.1C75.1,156.1,75.7,153.1,77,150.5z M98,153.5c-1.4-1.5-3.1-2.2-5.2-2.2s-3.8,0.7-5.2,2.2
		c-1.4,1.5-2.1,3.5-2.1,6c0,2.6,0.7,4.6,2.1,6.1c1.4,1.5,3.1,2.3,5.2,2.3s3.8-0.7,5.2-2.2c1.4-1.5,2.1-3.5,2.1-6.1
		C100.1,157,99.4,155,98,153.5z"/>
	<path class="st6" d="M149.2,162.1H126c0.2,2.1,0.8,3.7,2,4.8c1.2,1.1,2.6,1.6,4.4,1.6c2.6,0,4.3-1.1,5.3-3.2h10.9
		c-0.6,2.2-1.6,4.2-3,5.9c-1.5,1.8-3.3,3.1-5.5,4.1c-2.2,1-4.7,1.5-7.4,1.5c-3.3,0-6.2-0.7-8.8-2.1c-2.6-1.4-4.6-3.4-6-6
		c-1.4-2.6-2.2-5.6-2.2-9.1c0-3.5,0.7-6.5,2.1-9.1c1.4-2.6,3.4-4.6,6-6c2.6-1.4,5.5-2.1,8.8-2.1c3.2,0,6.1,0.7,8.6,2
		c2.5,1.4,4.5,3.3,5.9,5.8c1.4,2.5,2.1,5.5,2.1,8.8C149.4,160,149.3,161,149.2,162.1z M138.9,156.4c0-1.8-0.6-3.2-1.8-4.2
		c-1.2-1-2.7-1.6-4.5-1.6c-1.7,0-3.2,0.5-4.4,1.5c-1.2,1-1.9,2.4-2.2,4.3H138.9z"/>
	<path class="st6" d="M160.6,175.3c-2.3-1-4.1-2.4-5.4-4.1c-1.3-1.7-2.1-3.7-2.2-5.9h10.1c0.1,1.2,0.7,2.1,1.6,2.8
		c1,0.7,2.1,1.1,3.5,1.1c1.3,0,2.3-0.2,3-0.8c0.7-0.5,1.1-1.1,1.1-1.9c0-1-0.5-1.7-1.5-2.1c-1-0.5-2.6-1-4.9-1.5
		c-2.4-0.6-4.4-1.1-6-1.8c-1.6-0.6-3-1.6-4.1-2.9c-1.2-1.3-1.7-3.1-1.7-5.4c0-1.9,0.5-3.7,1.6-5.3c1.1-1.6,2.6-2.8,4.7-3.8
		c2.1-0.9,4.5-1.4,7.4-1.4c4.2,0,7.5,1,9.9,3.1c2.4,2.1,3.8,4.8,4.2,8.3h-9.5c-0.2-1.2-0.7-2.1-1.5-2.8c-0.9-0.7-2-1-3.4-1
		c-1.2,0-2.1,0.2-2.8,0.7c-0.6,0.5-1,1.1-1,1.9c0,1,0.5,1.7,1.5,2.2s2.6,1,4.8,1.4c2.5,0.6,4.5,1.3,6.1,1.9c1.6,0.6,2.9,1.6,4.1,3
		c1.2,1.4,1.8,3.2,1.8,5.5c0,2-0.6,3.7-1.6,5.3c-1.1,1.5-2.7,2.8-4.7,3.6c-2.1,0.9-4.5,1.3-7.2,1.3
		C165.5,176.8,162.9,176.3,160.6,175.3z"/>
	<path class="st6" d="M189,137.8c-1.1-1.1-1.7-2.4-1.7-3.9c0-1.6,0.6-2.9,1.7-4c1.1-1.1,2.6-1.6,4.4-1.6c1.8,0,3.2,0.5,4.4,1.6
		c1.1,1.1,1.7,2.4,1.7,4c0,1.6-0.6,2.9-1.7,3.9c-1.1,1.1-2.6,1.6-4.4,1.6C191.6,139.4,190.2,138.9,189,137.8z M198.5,142.9v33.5
		h-10.3v-33.5H198.5z"/>
	<path class="st6" d="M224.9,143.8c1.8,1,3.1,2.2,4.1,3.8v-4.7h10.3v33.4c0,3.1-0.6,5.9-1.8,8.4c-1.2,2.5-3.1,4.5-5.6,6
		c-2.5,1.5-5.6,2.2-9.3,2.2c-5,0-9-1.2-12.1-3.5c-3.1-2.3-4.8-5.5-5.3-9.5h10.1c0.3,1.3,1.1,2.3,2.3,3c1.2,0.7,2.7,1.1,4.4,1.1
		c2.1,0,3.8-0.6,5.1-1.8c1.3-1.2,1.9-3.2,1.9-5.9v-4.7c-1,1.6-2.4,2.8-4.1,3.8c-1.8,1-3.8,1.5-6.2,1.5c-2.8,0-5.3-0.7-7.5-2.1
		c-2.2-1.4-4-3.4-5.3-6.1c-1.3-2.6-1.9-5.6-1.9-9.1c0-3.4,0.6-6.5,1.9-9.1c1.3-2.6,3.1-4.6,5.3-6c2.2-1.4,4.7-2.1,7.5-2.1
		C221.1,142.4,223.1,142.9,224.9,143.8z M226.9,153.5c-1.4-1.5-3.1-2.2-5.2-2.2s-3.8,0.7-5.2,2.2c-1.4,1.5-2.1,3.5-2.1,6
		c0,2.6,0.7,4.6,2.1,6.1c1.4,1.5,3.1,2.3,5.2,2.3s3.8-0.7,5.2-2.2c1.4-1.5,2.1-3.5,2.1-6.1C229,157,228.3,155,226.9,153.5z"/>
	<path class="st6" d="M276.5,146.3c2.3,2.5,3.5,6,3.5,10.5v19.6h-10.2v-18.2c0-2.2-0.6-4-1.7-5.2c-1.2-1.2-2.7-1.9-4.7-1.9
		c-2,0-3.5,0.6-4.7,1.9c-1.2,1.2-1.7,3-1.7,5.2v18.2h-10.3v-33.5H257v4.4c1-1.5,2.4-2.6,4.2-3.5c1.8-0.9,3.7-1.3,5.9-1.3
		C271,142.5,274.2,143.8,276.5,146.3z"/>
	<path class="st6" d="M316.7,151.4h-5.5v25h-10.3v-25h-3.7v-8.5h3.7v-1c0-4.1,1.2-7.2,3.5-9.4c2.4-2.1,5.8-3.2,10.4-3.2
		c0.8,0,1.3,0,1.7,0.1v8.7c-2-0.1-3.3,0.2-4.1,0.8c-0.8,0.7-1.2,1.9-1.2,3.7v0.3h5.5V151.4z"/>
	<path class="st6" d="M327.9,174.7c-2.6-1.4-4.7-3.4-6.2-6c-1.5-2.6-2.3-5.6-2.3-9.1c0-3.4,0.8-6.5,2.3-9.1c1.5-2.6,3.6-4.6,6.2-6
		c2.6-1.4,5.6-2.1,8.9-2.1c3.3,0,6.2,0.7,8.9,2.1c2.6,1.4,4.7,3.4,6.2,6c1.5,2.6,2.3,5.7,2.3,9.1c0,3.4-0.8,6.5-2.3,9.1
		c-1.5,2.6-3.6,4.6-6.3,6c-2.7,1.4-5.6,2.1-8.9,2.1C333.4,176.8,330.5,176.1,327.9,174.7z M341.7,165.8c1.4-1.4,2.1-3.5,2.1-6.2
		c0-2.7-0.7-4.7-2-6.2c-1.3-1.4-3-2.2-4.9-2.2c-2,0-3.7,0.7-5,2.1c-1.3,1.4-2,3.5-2,6.2c0,2.7,0.6,4.7,1.9,6.2
		c1.3,1.4,2.9,2.2,4.9,2.2C338.7,167.9,340.4,167.2,341.7,165.8z"/>
	<path class="st6" d="M374.5,144.1c1.8-1.1,3.8-1.6,6-1.6v10.9h-2.8c-2.6,0-4.5,0.6-5.8,1.6c-1.3,1.1-1.9,3-1.9,5.8v15.5h-10.3
		v-33.5H370v5.6C371.2,146.6,372.7,145.2,374.5,144.1z"/>
	<path class="st6" d="M432.3,142.9l-21,49.4h-11l7.7-17l-13.6-32.3h11.5l7.7,20.9l7.7-20.9H432.3z"/>
	<path class="st6" d="M442.4,174.7c-2.6-1.4-4.7-3.4-6.2-6c-1.5-2.6-2.3-5.6-2.3-9.1c0-3.4,0.8-6.5,2.3-9.1c1.5-2.6,3.6-4.6,6.2-6
		c2.6-1.4,5.6-2.1,8.9-2.1c3.3,0,6.2,0.7,8.9,2.1c2.6,1.4,4.7,3.4,6.2,6c1.5,2.6,2.3,5.7,2.3,9.1c0,3.4-0.8,6.5-2.3,9.1
		c-1.5,2.6-3.6,4.6-6.3,6c-2.7,1.4-5.6,2.1-8.9,2.1C448,176.8,445,176.1,442.4,174.7z M456.3,165.8c1.4-1.4,2.1-3.5,2.1-6.2
		c0-2.7-0.7-4.7-2-6.2c-1.3-1.4-3-2.2-5-2.2c-2,0-3.7,0.7-5,2.1c-1.3,1.4-2,3.5-2,6.2c0,2.7,0.6,4.7,2,6.2c1.3,1.4,2.9,2.2,4.9,2.2
		C453.2,167.9,454.9,167.2,456.3,165.8z"/>
	<path class="st6" d="M507.3,142.9v33.5H497v-4.6c-1,1.5-2.5,2.7-4.2,3.6c-1.8,0.9-3.8,1.4-5.9,1.4c-2.6,0-4.8-0.6-6.8-1.7
		s-3.5-2.8-4.6-4.9c-1.1-2.2-1.6-4.7-1.6-7.6v-19.6h10.2V161c0,2.2,0.6,4,1.7,5.2c1.2,1.2,2.7,1.9,4.7,1.9c2,0,3.6-0.6,4.7-1.9
		c1.2-1.2,1.7-3,1.7-5.2v-18.2H507.3z"/>
	<path class="st6" d="M518.4,175.2c-1.1-1.1-1.7-2.4-1.7-3.9c0-1.6,0.6-2.9,1.7-4c1.1-1.1,2.6-1.6,4.4-1.6c1.8,0,3.2,0.5,4.3,1.6
		s1.7,2.4,1.7,4c0,1.6-0.6,2.9-1.7,3.9c-1.1,1.1-2.6,1.6-4.3,1.6C521,176.8,519.5,176.3,518.4,175.2z M528.2,132.7l-1.2,28.7h-8.7
		l-1.2-28.7H528.2z"/>
</g>
</svg>
