<?xml version="1.0" encoding="utf-8"?>
<!-- Generator: Adobe Illustrator 22.1.0, SVG Export Plug-In . SVG Version: 6.00 Build 0)  -->
<svg version="1.1" id="fad6bd40-d7a1-475a-8cb8-f1a0445f95b8"
	 xmlns="http://www.w3.org/2000/svg" xmlns:xlink="http://www.w3.org/1999/xlink" x="0px" y="0px" viewBox="0 0 782.1 524.3"
	 style="enable-background:new 0 0 782.1 524.3;" xml:space="preserve">
<style type="text/css">
	.st0{fill:#6FA5E2;}
	.st1{fill:#FFB8B8;}
	.st2{fill:#D2B188;}
	.st3{fill:#2F2E41;}
	.st4{opacity:0.2;enable-background:new    ;}
	.st5{fill:#3F3D56;}
</style>
<circle class="st0" cx="344.7" cy="340.1" r="78"/>
<path class="st1" d="M626.2,344.5c3.1-4.6,1.8-10.9-2.9-13.9c-0.5-0.3-1-0.6-1.6-0.8l2.6-35.6l-16.2,9.1v32.5
	c-1.9,5.3,0.9,11,6.2,12.9C618.8,350.1,623.7,348.4,626.2,344.5L626.2,344.5z"/>
<path class="st2" d="M622.2,205.9l4.4,113.4l-18-1l-4-119l3.8-1.8c4.8-2.3,10.6-0.2,12.9,4.6C621.8,203.4,622.1,204.7,622.2,205.9z"
	/>
<polygon class="st1" points="566.5,512.2 554.3,512.2 548.4,464.9 566.5,464.9 "/>
<path class="st3" d="M545.5,508.7h23.6l0,0v14.9l0,0h-38.5l0,0l0,0C530.6,515.4,537.3,508.7,545.5,508.7z"/>
<polygon class="st1" points="668.5,497.5 657.4,502.7 632.2,462.2 648.7,454.6 "/>
<path class="st3" d="M648,503.2l21.5-9.9l0,0l6.3,13.5l0,0l-35,16.2l0,0l0,0C637.3,515.5,640.5,506.7,648,503.2z"/>
<path class="st3" d="M537.4,357.9L550,502.2l17-2l12.6-131.8L649,494.2l18-5c0,0-57.9-173.3-62.4-187.8c-4.9-15.9-44-22-44-22
	l-1.5-1.5C542.3,300.5,535.6,329.8,537.4,357.9z"/>
<circle class="st1" cx="603.3" cy="165.2" r="24.6"/>
<path class="st2" d="M622.1,198.2l-18.9,98.7c0,0-25.9-5.2-35.2-11.4c-3.7-2.5-7-5-9.8-7.4c-3.1-2.6-6.2-5.3-9-8.2
	c0,0,6.6-32.6,9-41.3c2.8-10.1,12.2-21.9,19.5-29.9c5.4-5.9,13.7-8.4,21.5-6.4L622.1,198.2z"/>
<path class="st4" d="M567.9,285.4c-3.7-2.5-7-5-9.8-7.4c1-14.9,23-46.2,31.9-46.2C590.1,231.9,592.2,280.1,567.9,285.4z"/>
<path class="st1" d="M522.6,324.7c5.2-1.9,7.9-7.7,6-12.9c-0.2-0.6-0.5-1.1-0.7-1.6l23.4-27l-18.4-2.4l-19.4,26
	c-4.6,3.1-5.9,9.4-2.8,14C513.3,324.7,518.3,326.3,522.6,324.7z"/>
<path class="st2" d="M588,193.4c-1,0-2,0.1-3,0.3c-4.1,0.9-7.4,3.9-8.9,7.8l-28.9,60.3l-31,33l15.5,12.5l49-44l19.6-53.3
	c2.2-6.7-1.5-13.9-8.2-16.1C590.7,193.6,589.3,193.4,588,193.4z"/>
<path class="st3" d="M612,188c1.7-6,2.2-13.8-3-17.4c-5.1-3.5-12-0.6-18.2-0.9c-8.6-0.4-16-8.1-17.2-16.7
	c-1.2-8.6,3.2-17.4,10.1-22.6c6.9-5.2,15.9-7.1,24.6-6.3c10.6,0.9,21,5.9,27.5,14.5c6.4,8.5,8.3,20.6,3.6,30.2
	c-5,10.3-16.1,16.1-27,19.4"/>
<path class="st3" d="M640.1,148.7c2.6,5,9.5,6.2,15,5.2s10.9-3.7,16.5-3.9c10-0.5,18.9,6.5,25.1,14.4c6.2,7.9,10.7,17.1,17.8,24.2
	c7,7.1,17.9,11.9,27.1,8.1c-1,14.2-13.3,24.9-27.5,23.8c-7.6-0.5-14.7-4.5-19.1-10.7c-6.9-9.7-7-23.8-16.1-31.4
	c-5.1-4.2-11.9-5.5-18.4-6.5s-13.3-2-18.7-5.8s-8.6-11.5-5.3-17.2"/>
<path class="st5" d="M321.1,433.7c-43.7,0-79.2-35.4-79.2-79.2c0-43.7,35.4-79.2,79.2-79.2c43.7,0,79.2,35.4,79.2,79.2
	C400.3,398.2,364.8,433.6,321.1,433.7z M321.1,277.7c-42.4,0-76.8,34.4-76.8,76.8s34.4,76.8,76.8,76.8s76.8-34.4,76.8-76.8l0,0
	C397.9,312.1,363.5,277.8,321.1,277.7z"/>
</svg>
