<?xml version="1.0" encoding="utf-8"?>
<!-- Generator: Adobe Illustrator 22.1.0, SVG Export Plug-In . SVG Version: 6.00 Build 0)  -->
<svg version="1.1" id="fad6bd40-d7a1-475a-8cb8-f1a0445f95b8"
	 xmlns="http://www.w3.org/2000/svg" xmlns:xlink="http://www.w3.org/1999/xlink" x="0px" y="0px" viewBox="0 0 782.1 524.3"
	 style="enable-background:new 0 0 782.1 524.3;" xml:space="preserve">
<style type="text/css">
	.st0{fill:#E6E6E6;}
	.st1{fill:#FFFFFF;}
	.st2{fill:#FF6584;}
	.st3{fill:#3F3D56;}
	.st4{fill:#6FA5E2;}
	.st5{opacity:0.2;enable-background:new    ;}
	.st6{fill:#CCCCCC;}
	.st7{fill:#F2F2F2;}
</style>
<path class="st0" d="M553.5,274.9c-1,0.2-1.6,1.1-1.4,2.1l23.2,120.1c0.2,1,1.1,1.6,2.1,1.4l167.3-32.3c1-0.2,1.6-1.1,1.4-2.1
	L722.9,244c-0.2-1-1.1-1.6-2.1-1.4L553.5,274.9z"/>
<path class="st1" d="M713.7,255.1l16.5,85.3c0.2,1.2-0.5,2.3-1.7,2.6l-144.9,28c-0.1,0-0.2,0-0.3,0c-1.1,0.1-2-0.7-2.3-1.8
	l-16.5-85.3c-0.2-1.2,0.5-2.3,1.7-2.6l144.9-28C712.3,253.2,713.4,253.9,713.7,255.1z"/>
<circle class="st2" cx="689.3" cy="290" r="7.9"/>
<circle class="st3" cx="557.6" cy="278.6" r="2.6"/>
<ellipse transform="matrix(0.9818 -0.1897 0.1897 0.9818 -33.935 140.7439)" class="st3" cx="718.1" cy="247.6" rx="2.6" ry="2.6"/>
<circle class="st3" cx="579.8" cy="393.5" r="2.6"/>
<ellipse transform="matrix(0.9818 -0.1897 0.1897 0.9818 -55.3416 147.0469)" class="st3" cx="740.3" cy="362.5" rx="2.6" ry="2.6"/>
<ellipse transform="matrix(0.9818 -0.1897 0.1897 0.9818 -50.3771 123.9159)" class="st4" cx="622" cy="325" rx="9.5" ry="9.5"/>
<polygon class="st3" points="628.3,353 626.4,353.4 621.5,323.7 "/>
<polygon class="st3" points="622.8,329.2 624.3,326 622.9,329.9 622.6,329.6 "/>
<polygon class="st3" points="623.1,332.1 620.5,329.7 623.3,332.8 623.4,332.4 "/>
<ellipse transform="matrix(0.9818 -0.1897 0.1897 0.9818 -45.6806 139.8667)" class="st4" cx="707.6" cy="308.5" rx="9.5" ry="9.5"/>
<polygon class="st3" points="713.9,336.4 712,336.8 707.2,307.1 "/>
<polygon class="st3" points="708.4,312.7 709.9,309.4 708.6,313.4 708.2,313 "/>
<polygon class="st3" points="708.8,315.6 706.2,313.2 708.9,316.3 709.1,315.9 "/>
<ellipse transform="matrix(0.9818 -0.1897 0.1897 0.9818 -47.3771 128.5064)" class="st4" cx="647.4" cy="311.7" rx="14" ry="14"/>
<polygon class="st3" points="656.8,353 654,353.5 646.8,309.6 "/>
<polygon class="st3" points="648.7,317.9 650.9,313.1 648.8,318.9 648.4,318.4 "/>
<polygon class="st3" points="649.2,322.2 645.3,318.5 649.4,323.2 649.6,322.5 "/>
<ellipse transform="matrix(0.9818 -0.1897 0.1897 0.9818 -44.5521 134.4805)" class="st4" cx="680" cy="299.9" rx="14" ry="14"/>
<polygon class="st3" points="689.4,341.2 686.6,341.7 679.4,297.9 "/>
<polygon class="st3" points="681.3,306.1 683.5,301.3 681.4,307.1 681,306.6 "/>
<polygon class="st3" points="681.8,310.4 677.9,306.8 682,311.4 682.2,310.8 "/>
<ellipse transform="matrix(0.9818 -0.1897 0.1897 0.9818 -49.3351 118.2361)" class="st4" cx="592.8" cy="316.8" rx="14" ry="14"/>
<polygon class="st3" points="602.2,358 599.3,358.6 592.2,314.7 "/>
<polygon class="st3" points="594.1,322.9 596.3,318.2 594.2,324 593.8,323.5 "/>
<polygon class="st3" points="594.5,327.2 590.7,323.6 594.8,328.3 595,327.6 "/>
<path class="st3" d="M657,356.8L583.6,371c-0.1,0-0.2,0-0.3,0c-1.1,0.1-2-0.7-2.3-1.8l-3.5-18.3c6.7-2.5,13.6-4.4,20.6-5.7
	c26.1-5,49.3-1.8,56.7,7.2C655.8,353.6,656.6,355.2,657,356.8z"/>
<path class="st3" d="M729.3,336.3l0.8,4.2c0.2,1.2-0.5,2.3-1.7,2.6l-81.2,15.7c2.2-2.4,4.8-4.5,7.5-6.3c9.1-6.2,22.6-11.6,38.2-14.6
	C706.4,335.2,719.2,334.8,729.3,336.3z"/>
<path class="st0" d="M193.4,218.9c-0.3,0-0.6,0.1-0.8,0.2l-150.4,80c-0.9,0.5-1.2,1.5-0.7,2.4l57.4,108c0.5,0.9,1.5,1.2,2.4,0.7
	l150.4-80c0.9-0.5,1.2-1.5,0.7-2.4l-57.4-108c-0.2-0.4-0.6-0.7-1.1-0.9C193.8,218.9,193.6,218.9,193.4,218.9z"/>
<path class="st1" d="M189.4,233.2l40.8,76.7c0.6,1.1,0.2,2.4-0.9,3c0,0,0,0,0,0L99.1,382.2c-0.1,0.1-0.2,0.1-0.3,0.1
	c-1,0.4-2.2-0.1-2.7-1l-40.8-76.7c-0.6-1.1-0.2-2.4,0.9-3c0,0,0,0,0,0l130.3-69.3C187.5,231.7,188.8,232.1,189.4,233.2
	C189.4,233.2,189.4,233.2,189.4,233.2z"/>
<ellipse transform="matrix(0.1602 -0.9871 0.9871 0.1602 -223.7968 364.5674)" class="st2" cx="102.4" cy="313.8" rx="19.2" ry="19.2"/>
<path class="st3" d="M183.3,337.8L100.1,382c-0.1,0.1-0.2,0.1-0.3,0.1l3.1-89c0-1.7,1.5-3.1,3.2-3c0.6,0,1.1,0.2,1.6,0.5l50.7,31.7
	l2.4,1.5L183.3,337.8z"/>
<polygon class="st5" points="183.3,337.8 154.9,352.9 158.1,325.2 158.3,323.2 158.4,322.2 160.8,323.7 "/>
<path class="st3" d="M229.6,313.1l-71.9,38.3l3.2-27.7l0.2-2l4.1-36c0.3-2.4,3.1-4,5.3-3.2c0.1,0.1,0.3,0.1,0.4,0.2L229.6,313.1z"/>
<circle class="st3" cx="47.1" cy="301.4" r="2.6"/>
<circle class="st3" cx="191.4" cy="224.7" r="2.6"/>
<circle class="st3" cx="102.1" cy="404.8" r="2.6"/>
<circle class="st3" cx="246.4" cy="328.1" r="2.6"/>
<path class="st0" d="M468.5,410.8c1,0.3,1.9-0.3,2.2-1.3l31.4-118.2c0.3-1-0.3-1.9-1.3-2.2l-164.7-43.8c-1-0.3-1.9,0.3-2.2,1.3
	l-31.4,118.2c-0.3,1,0.3,1.9,1.3,2.2c0,0,0,0,0,0L468.5,410.8z"/>
<path class="st1" d="M489,297.3l-22.3,84c-0.3,1.2-1.5,1.9-2.7,1.6l-142.6-37.9c-0.1,0-0.2-0.1-0.3-0.1c-1-0.4-1.5-1.5-1.3-2.6
	l22.3-84c0.3-1.2,1.5-1.9,2.7-1.6l142.6,37.9C488.6,294.9,489.3,296.1,489,297.3z"/>
<path class="st3" d="M469.8,369.4l-3.2,11.9c-0.3,1.2-1.5,1.9-2.7,1.6l-142.6-37.9c-0.1,0-0.2-0.1-0.3-0.1c-1-0.4-1.5-1.5-1.3-2.6
	l3.2-11.9L469.8,369.4z"/>
<rect x="393.8" y="346.8" transform="matrix(0.2571 -0.9664 0.9664 0.2571 -52.9377 648.1782)" class="st6" width="2.7" height="23.5"/>
<rect x="341.6" y="332.9" transform="matrix(0.2571 -0.9664 0.9664 0.2571 -78.2857 587.4482)" class="st6" width="2.7" height="23.5"/>
<rect x="445.9" y="360.7" transform="matrix(0.2571 -0.9664 0.9664 0.2571 -27.5896 708.908)" class="st6" width="2.7" height="23.5"/>
<circle class="st3" cx="338.3" cy="250.4" r="2.6"/>
<circle class="st3" cx="496.2" cy="292.5" r="2.6"/>
<circle class="st3" cx="308.2" cy="363.6" r="2.6"/>
<circle class="st3" cx="466.1" cy="405.6" r="2.6"/>
<rect x="440.3" y="358.1" transform="matrix(0.2576 -0.9663 0.9663 0.2576 -24.6761 697.0891)" class="st3" width="2.1" height="13"/>
<path class="st4" d="M344,338.1l2.4,1.3l98.8,26.4l1.4-1.8c2.5-3.1,4.1-6.9,4.5-10.9c0.3-3,0-6.1-2.1-8l3.4-30.4L397.9,300
	l-25.7,11.4c0,0-9.9-2.8-17.2,2.5c-2.6,2-4.6,4.7-5.6,7.8l-1.1,3.5L344,338.1z"/>
<circle class="st3" cx="365.8" cy="343.4" r="12.6"/>
<circle class="st6" cx="365.8" cy="343.4" r="6.6"/>
<circle class="st3" cx="426.1" cy="359.5" r="12.6"/>
<circle class="st6" cx="426.1" cy="359.5" r="6.6"/>
<polygon class="st1" points="381.1,311.7 410.7,319.6 414.3,320.5 420.4,322.2 420.5,321.7 421.9,316.4 423.5,310.4 419.5,309.3 
	415.9,308.3 409.5,306.6 405.9,305.6 398.5,303.7 "/>
<polygon class="st1" points="425.2,323.4 440.8,327.6 441.6,324.5 443,319.2 443.9,315.8 441.6,315.2 438,314.2 428.3,311.6 "/>
<rect x="414.5" y="331.6" transform="matrix(0.2576 -0.9663 0.9663 0.2576 -12.1573 649.3719)" class="st3" width="3.9" height="2.1"/>
<rect x="385" y="315.8" transform="matrix(0.2576 -0.9663 0.9663 0.2576 -20.3878 608.9263)" class="st3" width="2.1" height="3.9"/>
<path class="st3" d="M386.6,317.7l-0.2-0.1c-2.3-0.6-3.7-3-3.1-5.3l0,0c0.6-2.3,3-3.7,5.3-3.1l0.2,0.1l0,0L386.6,317.7L386.6,317.7z
	"/>
<path class="st3" d="M348.3,325.2c3.4,1.3,7.3-0.4,8.6-3.8c1-2.6,0.3-5.6-1.9-7.5c-2.6,2-4.6,4.7-5.6,7.8L348.3,325.2z"/>
<polygon class="st7" points="415.9,308.3 420.5,321.7 421.9,316.4 419.5,309.3 "/>
<polygon class="st7" points="438,314.2 441.6,324.5 443,319.2 441.6,315.2 "/>
<polygon class="st7" points="405.9,305.6 410.7,319.6 414.3,320.5 409.5,306.6 "/>
</svg>
