<?xml version="1.0" encoding="utf-8"?>
<!-- Generator: Adobe Illustrator 22.1.0, SVG Export Plug-In . SVG Version: 6.00 Build 0)  -->
<svg version="1.1" id="Layer_1" xmlns="http://www.w3.org/2000/svg" xmlns:xlink="http://www.w3.org/1999/xlink" x="0px" y="0px"
	 viewBox="0 0 348.9 76.8" style="enable-background:new 0 0 348.9 76.8;" xml:space="preserve">
<style type="text/css">
	.st0{fill:#484848;}
	.st1{fill:#CCA781;}
</style>
<title>logo</title>
<path class="st0" d="M36.5,31.4c-1.4,2.5-3.6,4.6-6.2,5.9c-3.2,1.6-6.8,2.3-10.4,2.2h-7.7v18.1H0V7.1h20c3.5-0.1,7,0.6,10.2,2.1
	c2.6,1.2,4.8,3.2,6.3,5.8c1.4,2.6,2.2,5.5,2.1,8.4C38.6,26.2,37.9,29,36.5,31.4z M24.3,28.1c1.2-1.2,1.8-2.9,1.7-4.7
	c0.1-1.7-0.5-3.4-1.7-4.7c-1.5-1.2-3.4-1.8-5.3-1.6h-6.7v12.7H19C21.4,29.7,23.1,29.2,24.3,28.1z"/>
<path class="st0" d="M44.8,26.6c1.4-3,3.6-5.4,6.4-7.2c2.7-1.7,5.8-2.6,9-2.5c2.6-0.1,5.2,0.5,7.4,1.7c2,1,3.7,2.6,4.9,4.5v-5.7
	h12.3v40.2H72.5V52c-1.2,1.9-3,3.5-5,4.5c-2.3,1.2-4.9,1.8-7.5,1.7c-3.2,0-6.3-0.9-8.9-2.6c-2.8-1.8-5-4.3-6.4-7.3
	c-1.6-3.4-2.4-7.1-2.3-10.9C42.4,33.8,43.2,30,44.8,26.6z M70,30.3c-3.3-3.4-8.8-3.5-12.2-0.2c-0.1,0.1-0.1,0.1-0.2,0.2
	c-1.8,2-2.7,4.6-2.6,7.2c-0.1,2.7,0.8,5.3,2.5,7.3c3.3,3.4,8.7,3.6,12.1,0.3c0.1-0.1,0.2-0.2,0.3-0.3c1.8-2,2.7-4.6,2.6-7.2
	C72.7,34.9,71.8,32.3,70,30.3z"/>
<path class="st0" d="M111.1,18.7c2.3-1.2,4.9-1.8,7.4-1.7c3.2,0,6.3,0.8,9,2.5c2.8,1.8,5,4.2,6.4,7.2c1.6,3.4,2.4,7.1,2.3,10.9
	c0.1,3.8-0.7,7.5-2.3,10.9c-1.4,3-3.6,5.5-6.4,7.3c-2.7,1.7-5.8,2.6-9,2.6c-2.6,0-5.1-0.5-7.4-1.7c-2-1-3.7-2.6-5-4.5v24.8H93.8
	V17.5h12.3v5.7C107.4,21.3,109.1,19.7,111.1,18.7z M121.1,30.3c-3.4-3.5-8.9-3.5-12.4-0.2c-0.1,0.1-0.1,0.1-0.2,0.2
	c-1.8,2-2.7,4.6-2.6,7.3c-0.1,2.7,0.8,5.3,2.6,7.3c3.3,3.5,8.7,3.6,12.2,0.3c0.1-0.1,0.2-0.2,0.3-0.3c1.8-2,2.7-4.6,2.6-7.3
	C123.8,34.9,122.9,32.3,121.1,30.3L121.1,30.3z"/>
<path class="st0" d="M180.4,40.5h-27.8c0,2.1,0.9,4.2,2.4,5.7c1.4,1.3,3.3,2,5.2,2c2.7,0.2,5.3-1.4,6.4-3.9h13.1
	c-0.7,2.6-1.9,5.1-3.6,7.1c-1.8,2.1-4,3.9-6.6,5c-2.8,1.2-5.8,1.8-8.9,1.8c-3.7,0.1-7.3-0.8-10.5-2.5c-3-1.7-5.5-4.2-7.2-7.2
	c-1.8-3.4-2.7-7.2-2.6-11c-0.1-3.8,0.8-7.6,2.6-10.9c1.6-3,4.1-5.6,7.2-7.2c6.6-3.3,14.3-3.4,20.9-0.1c3,1.6,5.5,4,7.1,7
	c1.7,3.3,2.6,6.9,2.5,10.6C180.5,38.1,180.5,39.3,180.4,40.5z M168,33.7c0.1-1.9-0.7-3.7-2.2-5c-1.5-1.3-3.4-1.9-5.4-1.9
	c-1.9-0.1-3.8,0.6-5.2,1.8c-1.5,1.3-2.4,3.1-2.7,5.1H168z"/>
<path class="st0" d="M204.8,19c2.2-1.3,4.7-1.9,7.2-1.9v13h-3.4c-3.1,0-5.4,0.7-6.9,2c-1.5,1.3-2.3,3.6-2.3,6.9v18.7h-12.3V17.5
	h12.3v6.7C200.7,22.1,202.6,20.3,204.8,19z"/>
<path class="st1" d="M281.1,21.6c3,3,4.4,7.2,4.4,12.6v23.5h-12.2V35.9c0.1-2.2-0.6-4.4-2-6c-3.2-2.8-8.1-2.8-11.3,0
	c-1.4,1.7-2.1,3.8-2,6v21.8h-12.3V35.9c0.1-2.2-0.6-4.4-2-6c-3.2-2.8-8.1-2.8-11.3,0c-1.5,1.6-2.2,3.8-2.1,6v21.8h-12.3V17.5h12.3v5
	c1.3-1.7,3-3.1,4.9-4c2.1-1,4.5-1.5,6.8-1.4c2.8,0,5.6,0.7,8.1,2c2.4,1.3,4.3,3.2,5.6,5.5c1.4-2.2,3.4-4.1,5.7-5.4
	c2.4-1.4,5.1-2.1,7.8-2.1C274.1,17.1,278.1,18.6,281.1,21.6z"/>
<path class="st1" d="M295,11.4c-1.3-1.2-2.1-2.9-2-4.7c0-1.8,0.7-3.6,2-4.8c1.4-1.3,3.3-2,5.3-1.9c1.9-0.1,3.8,0.6,5.2,1.9
	c1.3,1.2,2.1,3,2,4.8c0,1.8-0.7,3.5-2,4.7c-1.4,1.3-3.3,2-5.2,1.9C298.4,13.4,296.5,12.7,295,11.4z M306.4,17.5v40.2h-12.3V17.5
	H306.4z"/>
<path class="st1" d="M327.7,4.4v53.3h-12.3V4.4H327.7z"/>
<path class="st1" d="M348.9,4.4v53.3h-12.3V4.4H348.9z"/>
</svg>
