<svg id="Layer_1" data-name="Layer 1" xmlns="http://www.w3.org/2000/svg" viewBox="0 0 348.91 76.82"><defs><style>.cls-1{fill:#484848;}.cls-2{fill:#cca781;}</style></defs><title>logo</title><path class="cls-1" d="M51,71.37a14.92,14.92,0,0,1-6.19,5.87,21.91,21.91,0,0,1-10.37,2.23H26.78V97.61H14.46V47.07H34.41a22.57,22.57,0,0,1,10.22,2.09,14.35,14.35,0,0,1,6.27,5.76A16.72,16.72,0,0,1,53,63.34,16.33,16.33,0,0,1,51,71.37ZM38.73,68a6.17,6.17,0,0,0,1.73-4.68,6.19,6.19,0,0,0-1.73-4.68A7.37,7.37,0,0,0,33.47,57H26.78V69.68h6.69C35.82,69.68,37.58,69.13,38.73,68Z" transform="translate(-14.46 -39.94)"/><path class="cls-1" d="M59.28,66.58a17.46,17.46,0,0,1,6.38-7.2,16.6,16.6,0,0,1,9-2.52,15.49,15.49,0,0,1,7.45,1.73A12.74,12.74,0,0,1,87,63.12V57.44H99.35V97.61H87V91.92a13.26,13.26,0,0,1-5,4.54,15.51,15.51,0,0,1-7.46,1.73,16.25,16.25,0,0,1-8.92-2.56,17.66,17.66,0,0,1-6.38-7.27,24.23,24.23,0,0,1-2.34-10.91A24,24,0,0,1,59.28,66.58Zm25.2,3.67a8.65,8.65,0,0,0-12.45,0,9.9,9.9,0,0,0-2.56,7.23A10.16,10.16,0,0,0,72,84.76a8.57,8.57,0,0,0,12.45,0A10.06,10.06,0,0,0,87,77.52,10,10,0,0,0,84.48,70.25Z" transform="translate(-14.46 -39.94)"/><path class="cls-1" d="M125.56,58.59A15.25,15.25,0,0,1,133,56.86a16.6,16.6,0,0,1,9,2.52,17.46,17.46,0,0,1,6.38,7.2,24,24,0,0,1,2.34,10.87,24.23,24.23,0,0,1-2.34,10.91A17.66,17.66,0,0,1,142,95.63a16.38,16.38,0,0,1-9,2.56,15.35,15.35,0,0,1-7.38-1.73,13.57,13.57,0,0,1-5-4.46v24.76H108.28V57.44h12.31v5.68A13.37,13.37,0,0,1,125.56,58.59Zm10,11.63a8.74,8.74,0,0,0-12.53,0,10.09,10.09,0,0,0-2.55,7.27,10.09,10.09,0,0,0,2.55,7.28,8.63,8.63,0,0,0,12.5,0,10.14,10.14,0,0,0,2.59-7.31A9.9,9.9,0,0,0,135.6,70.22Z" transform="translate(-14.46 -39.94)"/><path class="cls-1" d="M194.82,80.48H167a8.35,8.35,0,0,0,2.41,5.72,7.35,7.35,0,0,0,5.22,2A6.48,6.48,0,0,0,181,84.29h13.1a17.86,17.86,0,0,1-3.64,7.13,18.19,18.19,0,0,1-6.58,5,21.19,21.19,0,0,1-8.86,1.8,21.53,21.53,0,0,1-10.51-2.52,18,18,0,0,1-7.2-7.2,22.22,22.22,0,0,1-2.59-11,22.52,22.52,0,0,1,2.55-10.94,17.69,17.69,0,0,1,7.17-7.2,23.32,23.32,0,0,1,20.95-.07,17.58,17.58,0,0,1,7.09,7A21.26,21.26,0,0,1,195,76.88,32.46,32.46,0,0,1,194.82,80.48Zm-12.38-6.84a6.32,6.32,0,0,0-2.16-5,8,8,0,0,0-5.4-1.88,7.83,7.83,0,0,0-5.22,1.8A8,8,0,0,0,167,73.64Z" transform="translate(-14.46 -39.94)"/><path class="cls-1" d="M219.23,58.91a14,14,0,0,1,7.2-1.91V70H223q-4.6,0-6.91,2c-1.54,1.32-2.3,3.63-2.3,6.94V97.61H201.52V57.44h12.31v6.69A16.3,16.3,0,0,1,219.23,58.91Z" transform="translate(-14.46 -39.94)"/><path class="cls-2" d="M295.51,61.54c2.95,3,4.43,7.23,4.43,12.6V97.61H287.7V75.8a8.3,8.3,0,0,0-2.05-6,8.6,8.6,0,0,0-11.31,0,8.35,8.35,0,0,0-2,6V97.61H260.05V75.8a8.3,8.3,0,0,0-2.05-6,8.59,8.59,0,0,0-11.3,0,8.31,8.31,0,0,0-2.06,6V97.61H232.33V57.44h12.31v5a13.15,13.15,0,0,1,4.9-4A15.44,15.44,0,0,1,256.38,57a16.62,16.62,0,0,1,8.1,2,13.9,13.9,0,0,1,5.58,5.54,16.23,16.23,0,0,1,5.69-5.4A15.37,15.37,0,0,1,283.59,57Q291.09,57,295.51,61.54Z" transform="translate(-14.46 -39.94)"/><path class="cls-2" d="M309.48,51.35a6.16,6.16,0,0,1-2.05-4.71,6.26,6.26,0,0,1,2.05-4.79,7.47,7.47,0,0,1,5.29-1.91A7.38,7.38,0,0,1,320,41.85,6.26,6.26,0,0,1,322,46.64,6.16,6.16,0,0,1,320,51.35a7.38,7.38,0,0,1-5.22,1.91A7.47,7.47,0,0,1,309.48,51.35Zm11.41,6.09V97.61H308.58V57.44Z" transform="translate(-14.46 -39.94)"/><path class="cls-2" d="M342.13,44.33V97.61H329.82V44.33Z" transform="translate(-14.46 -39.94)"/><path class="cls-2" d="M363.37,44.33V97.61H351.06V44.33Z" transform="translate(-14.46 -39.94)"/></svg>