<?xml version="1.0" encoding="utf-8"?>
<!-- Generator: Adobe Illustrator 22.1.0, SVG Export Plug-In . SVG Version: 6.00 Build 0)  -->
<svg version="1.1" id="b6b21c14-e7c7-4824-8aee-a7e7fb4354e1"
	 xmlns="http://www.w3.org/2000/svg" xmlns:xlink="http://www.w3.org/1999/xlink" x="0px" y="0px" viewBox="0 0 860.9 811"
	 style="enable-background:new 0 0 860.9 811;" xml:space="preserve">
<style type="text/css">
	.st0{opacity:0.1;fill:#F8F0C1;enable-background:new    ;}
	.st1{fill:#F8F0C1;}
	.st2{fill:#444053;}
	.st3{fill:none;stroke:#444053;stroke-miterlimit:10;}
	.st4{fill:none;stroke:#444053;stroke-width:0.75;stroke-miterlimit:10;}
	.st5{fill:#504F60;}
	.st6{opacity:0.1;enable-background:new    ;}
	.st7{fill:#FFFFFF;}
	.st8{fill:#3F3D56;}
	.st9{opacity:5.000000e-02;fill:#F8F0C1;enable-background:new    ;}
	.st10{fill:url(#SVGID_1_);}
	.st11{fill:#2F2E41;}
	.st12{opacity:8.000000e-02;}
	.st13{fill:#FBBEBE;}
	.st14{opacity:8.000000e-02;enable-background:new    ;}
	.st15{fill:#464353;}
	.st16{opacity:0.9;fill:#F8F0C1;enable-background:new    ;}
	.st17{opacity:0.9;fill:#FBBEBE;enable-background:new    ;}
	.st18{opacity:0.9;fill:#3F3D56;enable-background:new    ;}
	.st19{fill:#F86D70;}
	.st20{opacity:0.9;fill:#A1616A;enable-background:new    ;}
	.st21{opacity:0.9;fill:#FDD8D8;enable-background:new    ;}
	.st22{opacity:0.2;fill:none;stroke:#2F2E41;stroke-width:0.25;stroke-miterlimit:10;enable-background:new    ;}
	.st23{opacity:0.1;}
	.st24{fill:#FFD037;}
	.st25{fill:#A8A8A8;}
	.st26{opacity:0.2;enable-background:new    ;}
	.st27{fill:none;stroke:#535461;stroke-width:2;stroke-miterlimit:10;}
</style>
<title>making art</title>
<path class="st0" d="M265.8,29.7C295,3.7,340.9-1.7,382.6,0.4c131.1,6.5,249.4,69.8,351.8,141.4c37.1,25.9,73.5,53.8,97.6,89.5
	c49,72.6,34.4,173.3-33.6,233.1c-23.2,20.4-51.3,36-80.1,49.8c-51.3,24.6-106.6,44.4-164.7,50c-41.5,4-83.5,0.8-124.7-4.8
	c-115.3-15.6-228.4-50.2-323.2-109.3C64.1,424.2,24.9,391.9,7.7,350S1.6,254.9,44,230c17.6-10.3,38.6-14.9,59.1-19.3
	c30.3-6.4,61-12.7,88.3-25.8c28.2-13.5,61.6-39.5,56-69.3C241.5,83.8,236.7,55.7,265.8,29.7z"/>
<path class="st1" d="M675.1,235.2c0,0-10.6-4.3-44.2,11.1s-37.9,13.5-46.6,11.2s-13.6-2.9-22.9-15.8c0,0-6.6-35.7-13-41.3
	s-33.5,3.2-33.5,3.2s-32.5,7.4-38.7-36c0,0,4.4-32.7-1.6-42.8c0,0,12.1,5.2,32-3.2s35.9,9,35.9,9s5,13,4.5,20.8s2.7,10.7,12.2,6.9
	c0,0,4.7-6.6-1.9-17.6s-11.3-19.1-9.5-27.7s7.2-20.4,24.2-26.3s40.2-7,51.3-11.7s13.9-7.7,13.9-7.7s-6.8,6.8,9.3,35.9
	s5.8,41.6,5.8,41.6s-8.6,20.4-46.4,18.8c0,0-36.5,1.3-16.6,16.8c0,0,12.7-2.6,31.8-8.6s32.8,18.9,36.2,36.3S675.1,235.2,675.1,235.2
	z"/>
<path class="st2" d="M626,89.5l0.2-0.1c1.5,5.5-14.8,27.8-28.8,45.5l-0.2-0.1C617,109.9,627.2,93.8,626,89.5z"/>
<path class="st2" d="M597.6,134.5l0.1,0.2c-11.1,14.1-25.1,31-36.3,43.5c-1.1,1.2-2.1,2.4-3.2,3.7l-0.3-0.3c1-1.3,2.1-2.5,3.2-3.7
	C572.3,165.5,586.5,148.6,597.6,134.5z"/>
<path class="st2" d="M558.2,181.4l0.2,0.4c-20.4,25.4-21.7,65-21.8,65.3l-4.3-5C532.4,241.8,537.7,207,558.2,181.4z"/>
<path class="st3" d="M651.5,221.4c0,0-24-12.5-42.8-8s-61-15.9-61-15.9s-17.9-7.3-21.5-15.6c0,0-12.3-13-13-19.7
	s-12.7-23.6-20.5-24.3"/>
<path class="st3" d="M647.9,233.4c0,0-12.1-8.2-10.7-17.7"/>
<path class="st3" d="M629.4,244c0,0-17.3-6.3-19-30.9"/>
<path class="st3" d="M601.5,250.3c0,0-16.5-13.7-11-37.7"/>
<path class="st3" d="M567.9,243.6c0,0-11-23.1-1.2-38.1"/>
<path class="st3" d="M651.7,206.2c0,0-12.5,4-9.8,10.6"/>
<path class="st3" d="M636.6,183.5c0,0-16.8,5.3-17.1,29"/>
<path class="st3" d="M613.2,178c0,0-15.3,18.8-14.1,35.9"/>
<path class="st3" d="M586.5,185.4c0,0-15.1,14.5-13.2,22.5"/>
<path class="st3" d="M577.4,180.3c0,0-14.2,2.5-16.2-2.1"/>
<path class="st3" d="M559,163.1c0,0,7.2,9.5,9,7.4"/>
<path class="st3" d="M630.1,157.1c0,0-35.8,2.6-43.9-8.2"/>
<path class="st3" d="M551.5,115.2c0,0,16.8,36.1,29,40.6"/>
<path class="st3" d="M569,98.1c0,0,10.3,33.2,23.1,43.5"/>
<path class="st4" d="M645.1,129.7c0,0-27.2,11.7-43.6-0.1"/>
<path class="st4" d="M593.3,91c0,0,6.2,24.4,14.6,30.3"/>
<path class="st4" d="M641,102.4c0,0-15.3,5.8-21,1.4"/>
<path class="st3" d="M545.8,171.1c0,0,0,21.3-5.8,22.8"/>
<path class="st3" d="M498.6,198.6c0,0,23,2,33.6-9.9"/>
<path class="st3" d="M539.9,146c0,0-5.6,21.6-20.9,27.4"/>
<path class="st3" d="M484.8,175.9c0,0,16.3,5.6,30.3-8.7"/>
<path class="st3" d="M521.8,127.4c0,0-1.5,18.3-11.5,26.9"/>
<path class="st3" d="M485.4,148c0,0,13.5,0.1,16.7-4.3"/>
<ellipse class="st0" cx="424.5" cy="738" rx="376" ry="73"/>
<polygon class="st5" points="447.1,435 447,438.9 440.2,677.4 428.8,677.4 434.4,438.9 434.5,434.4 "/>
<polygon class="st6" points="447.1,435 447,438.9 440.2,677.4 428.8,677.4 434.4,438.9 434.5,434.4 "/>
<polygon class="st5" points="512.8,637.1 504.3,637.1 377.9,636.8 371.1,636.8 374.7,625.7 511.9,625.7 "/>
<polygon class="st6" points="447.1,435 447,438.9 434.4,438.9 434.5,434.4 "/>
<rect x="430.8" y="429.2" class="st5" width="21.1" height="7.9"/>
<polygon class="st6" points="379,625.7 377.9,636.8 371.1,636.8 374.7,625.7 "/>
<polygon class="st5" points="397.1,429 396.8,432.5 368.8,709.1 355.9,708.5 385.5,432.5 385.8,429.4 "/>
<polygon class="st6" points="512.8,637.1 504.3,637.1 503.2,625.7 511.9,625.7 "/>
<polygon class="st5" points="526.3,708.5 513.4,709.1 485.4,432.5 485,429 496.4,429.4 496.7,432.5 "/>
<rect x="297.6" y="156.3" class="st7" width="283.4" height="271.7"/>
<rect x="297.6" y="156.3" class="st7" width="283.4" height="271.7"/>
<path class="st5" d="M444.8,65.4V131h-11V65.4c-0.1-3.1,2.2-5.6,5.3-5.8s5.6,2.2,5.8,5.3C444.8,65.1,444.8,65.3,444.8,65.4z"/>
<rect x="433.8" y="125.1" class="st6" width="11.1" height="6"/>
<path class="st5" d="M449.2,129.6v21.7h-19.7v-21.7c0-1.5,1.2-2.7,2.7-2.7l0,0h14.3C447.9,126.9,449.1,128.1,449.2,129.6z"/>
<circle class="st6" cx="439.3" cy="140.6" r="4.2"/>
<circle class="st8" cx="439.3" cy="139.7" r="4.2"/>
<rect x="429.4" y="148.5" class="st6" width="19.7" height="2.7"/>
<rect x="421.4" y="152.1" class="st6" width="35.9" height="6"/>
<rect x="421.4" y="150.3" class="st5" width="35.9" height="6"/>
<path class="st6" d="M366.7,421h150.6c3.6,0,6.5,2.9,6.5,6.5v1.4l0,0H360.2l0,0v-1.4C360.2,423.9,363.1,421,366.7,421z"/>
<polygon class="st6" points="385.8,429.4 397.1,429 396.8,432.5 385.5,432.5 "/>
<rect x="430.8" y="429.2" class="st6" width="21.1" height="3.3"/>
<polygon class="st6" points="496.7,432.5 485.4,432.5 485,429 496.4,429.4 "/>
<path class="st5" d="M366.7,422.8h150.6c3.6,0,6.5,2.9,6.5,6.5v1.4l0,0H360.2l0,0v-1.4C360.2,425.7,363.1,422.8,366.7,422.8z"/>
<path class="st9" d="M388,184.6c8.8-11.1,22.5-13.3,35.1-12.5c39.4,2.8,74.9,29.7,105.7,60.2c11.1,11,22.1,22.9,29.3,38.1
	c14.7,30.9,10.3,73.8-10.1,99.3c-7,8.7-15.4,15.3-24.1,21.2c-15.4,10.5-32,18.9-49.5,21.3c-12.5,1.7-25.1,0.3-37.5-2.1
	c-34.6-6.7-68.6-21.4-97.1-46.5c-12.5-11-24.3-24.8-29.4-42.6s-1.8-40.5,10.9-51.1c5.3-4.4,11.6-6.4,17.8-8.2
	c9.1-2.7,18.3-5.4,26.5-11c8.5-5.7,18.5-16.8,16.8-29.5C380.7,207.6,379.2,195.7,388,184.6z"/>
<linearGradient id="SVGID_1_" gradientUnits="userSpaceOnUse" x1="430.0529" y1="-31.2818" x2="430.0529" y2="664.4235" gradientTransform="matrix(1 0 0 -1 -169.54 765.5)">
	<stop  offset="0" style="stop-color:#808080;stop-opacity:0.25"/>
	<stop  offset="0.54" style="stop-color:#808080;stop-opacity:0.12"/>
	<stop  offset="1" style="stop-color:#808080;stop-opacity:0.1"/>
</linearGradient>
<path class="st10" d="M379.5,316.2l-81.8,21.7l-2.9,9.9c-3.5-0.4-7-1.2-10.2-2.6c-1.6-0.7-7-4-11.5-5.8c0-2.4,0.7-4.7,1.8-6.8
	c4.2-7.5,10.3-14.6,10.1-23.1c-0.1-3-0.9-6-1.4-9c-0.8-5.4-1.1-10.9-0.8-16.3c0-2.9,0.1-5.7,0.1-8.6c0.5,0.2,0.9,0.3,1.4,0.5
	c0.7,0.2,1.4,0.5,2,0.7c0,0.1,0,0.1,0,0.2c-0.1,0.5-0.2,1-0.2,1.4c7.6,2.9,7,5.8,7,5.8l0.7,0.1c1.1-5,0.6-9-0.9-12l-0.4-0.1
	c-1.4-3.2-4-5.7-7.2-7.2c-0.8-0.4-1.6-0.8-2.3-1.2c0.1-6.2,0.1-12.4,0.2-18.5c0.1-2.1-0.1-4.2-0.5-6.2c-0.8-2.1-1.9-4.2-3.2-6.1
	c-1.2-2-2.3-4-3.5-6c1.1-1.2,2.3-2.2,3.7-3.2c0.7-0.5,1.5-1.1,2.3-1.6l1.1-0.8c1.2-0.8,2.3-1.6,3.4-2.5c1.1-0.8,2.1-1.8,2.9-2.8
	c0.5-0.5,0.9-1.1,1.3-1.7l0.2-0.3c0.4-0.6,0.7-1.2,1-1.8c0.1-0.1,0.1-0.2,0.2-0.3c0.3-0.6,0.5-1.3,0.8-1.9l0,0
	c0.2-0.7,0.4-1.4,0.5-2.1c0-0.1,0-0.2,0-0.2c0.1-0.7,0.3-1.4,0.3-2.1v-0.2c0.2-2.3,0.2-4.7,0-7l0,0c-0.1-1.2-0.3-2.4-0.4-3.5
	c-1.2-7.3-3.5-14.6-3-22c0-0.3,0.1-0.6,0.1-0.9l0,0c0.5-4.7,2.1-9.4,3.6-14.1c0.1-0.4,0.3-0.8,0.4-1.2c0.1-0.2,0.1-0.4,0.2-0.5
	c0.2-0.6,0.3-1.2,0.5-1.8v-0.1c1.3-4.5,2.1-9,1.5-13.4l0,0c-0.1-1-0.4-1.9-0.6-2.9c-2-6.1-7-10.7-12-14.9
	c-8.9-7.4-18.3-14.4-29.1-18.6c-9.4-3.8-19.8-4.6-29.8-2.5c-10.1,2.2-20,1.6-29.9,5.9c-3.3,1.4-6.8,3.4-8.1,6.7
	c-0.8,2.1-0.7,4.4-0.9,6.6c-0.5,5.3-2.8,10.3-6.5,14.1c-2.7,2.7-6,4.7-8.7,7.5c-2.4,2.5-4,5.6-4.7,9l0,0c-0.4,1.7-0.5,3.4-0.3,5.1
	v0.1c0,0.4,0.1,0.8,0.2,1.1c0,0.1,0,0.1,0,0.1c0.1,0.4,0.2,0.7,0.3,1.1c0,0.1,0,0.1,0,0.2c0.1,0.3,0.2,0.7,0.4,1l0.1,0.2
	c0.2,0.4,0.3,0.8,0.5,1.2c1,1.9,2.4,3.6,3.4,5.5c0.3,0.5,0.5,0.9,0.7,1.4c0.8,1.9,1.4,3.9,1.7,5.9c0.2,1,0.3,2.1,0.4,3.1
	c0,0.5,0.1,1,0.1,1.6c0.5,7.2,0.3,14.5-0.6,21.6c-0.2,1.8-0.5,3.6-0.7,5.3l0,0c0,0.3,0,0.6-0.1,0.9c-2.8,1.2-5.3,3.1-6.4,5.9
	c-0.9,2.3-0.8,4.8-0.9,7.2c-0.1,3.6-0.8,7.4-2.9,10.4c-2.7,1.2-3.8,3.9-4.3,6.8c-0.4,2.3-0.5,4.6-0.5,6.9c0,2.9,0.1,5.8,0.3,8.8l0,0
	c-0.2,0.4-0.4,0.7-0.5,1.1c0,0.1,0,0.1-0.1,0.2c-0.1,0.3-0.3,0.7-0.4,1c0,0.1,0,0.1-0.1,0.2c-0.1,0.4-0.3,0.8-0.4,1.2l0,0
	c-0.1,0.4-0.2,0.8-0.3,1.2l-0.1,0.3c-0.1,0.4-0.2,0.7-0.3,1v0.1c-0.1,0.4-0.1,0.8-0.2,1.1c0,0.1,0,0.1,0,0.2c0,0.3-0.1,0.6-0.1,0.8
	v0.3c0,0.3-0.1,0.6-0.1,0.9s0,0.5-0.1,0.7c0,1.7-0.3,3.3-0.8,4.9c-0.3,0.7-0.7,1.4-1.1,2.1c-0.1,0.2-0.3,0.5-0.4,0.7
	c-0.5,1-0.8,2-1,3.1c-0.1,0.5-0.2,1.1-0.2,1.6c-0.1,1.1-0.1,2.2-0.1,3.4c0,0.6,0,1.1,0,1.7c0,1.1,0,2.3,0,3.4
	c-0.1,1.3-0.3,2.5-0.5,3.8c-0.1,0.6-0.2,1.2-0.4,1.9c-0.1,0.6-0.3,1.2-0.4,1.9c-0.6,2.6-1.1,5.1-1.7,7.7c-0.6,2.6-1.1,5.1-1.7,7.7
	c-1.2,5.1-2.4,10.2-3.7,15.3c-0.4,1.3-0.6,2.6-0.9,3.9c-0.2,1.3-0.3,2.6-0.1,3.9c0.1,0.9,0.4,1.7,0.8,2.5c0.2,0.4,0.5,0.8,0.7,1.2
	c0.2,0.4,0.4,0.8,0.6,1.2c0.7,1.7,0.4,3.7,0.5,5.5c0,0.6,0.2,1.2,0.4,1.8c0.8,2.1,2.8,3.6,5,3.7c0.3,0,0.6,0,0.9,0l0.8,1.9
	c0.8,1.9,1.6,3.8,3.3,5.1c2.1,1.5,4.7,1.9,7.2,1.3c2.4-0.7,4.7-1.7,6.9-3c5.2-2.9,10.4-5.8,15.5-8.8c1,1,1.8,2.2,2.3,3.5
	c0.1,0.4,0.2,0.8,0.2,1.2c-0.1,0.8-0.3,1.5-0.7,2.2c-1.3,2.7-2.5,5.3-3.7,8c-8.6,18.5-6.6,40.1-4.8,60.4c0.8,8.6,2.1,17.1,2.8,25.6
	c1.8,21.3,0,42.7,2.4,63.9c1.3,11.4,3.9,22.7,5.7,34c1.6,10.4,2.5,20.8,2.8,31.3c1-0.3,2-0.6,2.9-0.8l1.1-0.3
	c0.7-0.2,1.5-0.3,2.2-0.5s1.4-0.2,2-0.3l0,0c4.5-0.6,9.1-0.8,13.7-0.6l1.8,0.2c0.2,1.4,0.3,2.8,0.5,4.1c0,0.3,0.1,0.7,0.1,1
	c0.5,6.1,1.3,12.2,2.4,18.2c0.4,1.6,0.5,3.3,0.4,5c-0.5,2.7-2.5,4.9-4.4,7c-5.4,5.6-11.2,10.9-15.3,17.5c-4.9,7.8-7.2,16.9-9.4,25.8
	c-3.3,13.3-6.5,26.5-8.4,40c-0.1,0.8-0.1,1.7,0,2.5c0,0.1-0.1,0.1-0.1,0.2c-2.3,3.8-5.4,7.1-6.8,11.3c-0.8,2.8-1.1,5.7-1,8.6
	c-0.1,5-0.2,10-0.3,15c-0.2,10.9-0.4,21.9,2.9,32.3c1,3.6,2.8,7,5.2,9.9c2.5,2.9,6.1,4.6,10,4.8c1.6-0.1,3.2-0.3,4.7-0.8l0.8-0.2
	c-0.5,2.2-0.3,4.5,0.3,6.7c0.2,0.8,0.6,1.5,1.2,2.1c0.5,0.4,1.1,0.8,1.7,1c9.8,3.8,21,0.5,31.3,2.3c12,2.1,22.2,11,34.4,12
	c2.6,0.2,5.4,0,7.5-1.6c2.1-1.8,3-4.6,2.4-7.3c-0.1-0.6-0.3-1.1-0.5-1.6c-1.5-3.4-4.6-5.7-8.2-6.2c-11.2-1.6-21.2-8-27.3-17.6
	c-5-8.1-6.6-17.8-6.3-27.2s2.4-18.7,4.5-27.9c4.2-18.4,8.5-36.9,12.7-55.3c1.7-6.9,3-14,4-21.1c0.4-3.6,0.6-7.3,0.8-10.9
	c0.3-0.5,0.6-1.1,0.9-1.6c3.6-6.6,7-13.5,8.4-20.8c0.6-3.9,1-7.9,1-11.9c0-0.4,0-0.7,0-1c0-1.4,0.1-2.7,0.2-4.1c0.3,0,0.7,0,1-0.1
	c11.6-1.2,21.4-11.1,32.9-10.1c1,0.8,1.8-0.8,2.3-1.9c5.9-11.2,3.2-24.6,0.9-36.9c-6.3-33.4-9-67.4-8-101.3
	c0.4-14.7,1.4-30-1.4-44.2l75.6-25L379.5,316.2z M340.6,335.2c0,1.2-1.5,2.2-3.6,2.5c0-0.9,0-1.8,0.2-2.7c0-0.9-0.3-1.9-1-2.5
	C338.7,332.8,340.7,333.9,340.6,335.2L340.6,335.2z M332.5,332.9c-0.5,0.6-0.8,1.4-0.8,2.2c0.1,0.5,0.1,1.1,0,1.6
	c0,0.2,0,0.4,0.1,0.6c-1.3-0.5-2.1-1.3-2.1-2.1S330.7,333.3,332.5,332.9z M174,308.1l0.1,0.5h-0.9L174,308.1z M202.3,757.3
	c-1.7-8-1.6-16.3-1.6-24.5c0.1-6.8,0.1-13.5,0.2-20.3c-0.1-2.8,0.1-5.5,0.5-8.3c0.3-1.5,0.6-2.9,0.9-4.3c1.1-2.8,2.5-5.5,4.1-8
	c0,0,0,0.1,0,0.1c-0.6,11.9-2.8,24.3-0.7,36C207.5,737.8,206.3,748,202.3,757.3z M285.5,366.2c-0.3-0.4-0.5-0.9-0.8-1.3
	c1.5,0.5,3,0.9,4.6,1.3l-1.4,4.6C287.2,369.2,286.5,367.7,285.5,366.2z"/>
<path class="st11" d="M195.2,110.7c-3.2,1.4-6.6,3.4-7.9,6.7c-0.8,2.1-0.7,4.4-0.8,6.6c-0.4,5.3-2.7,10.2-6.3,14
	c-2.6,2.7-5.9,4.7-8.4,7.5c-4.6,5-6.5,12.8-3.5,18.9c0.9,1.9,2.3,3.6,3.3,5.5c2,3.6,2.5,7.8,2.8,11.9c0.5,7.2,0.3,14.4-0.6,21.5
	c-0.6,4.6-1.4,9.3-0.3,13.7c0.9,3.2,2.4,6.2,4.3,8.9c4.9,7.7,10.6,15.1,18.2,20.2c7.8,5.3,17.2,7.8,26.6,8.5s18.8-0.2,28.2-1.3
	c7-0.8,15.2-2.6,18.2-9c1.7-3.6,1.2-7.9,2.8-11.5c2.8-6.5,10.9-9,15.4-14.4c4.7-5.7,4.9-13.9,3.8-21.2c-1.2-7.3-3.5-14.6-2.9-21.9
	c0.9-11.9,9-23.4,5.4-34.8c-1.9-6.1-6.8-10.7-11.7-14.8c-8.6-7.4-17.8-14.3-28.3-18.5c-9.2-3.8-19.3-4.6-29-2.5
	C214.5,107.1,204.8,106.5,195.2,110.7z"/>
<g class="st12">
	<path d="M174.5,186.3c0.1-3.8,0.1-7.5-0.2-11.3c-0.3-4.1-0.8-8.3-2.8-11.9c-1-1.9-2.4-3.6-3.3-5.5c-0.5-1-0.9-2.1-1.1-3.2
		c-0.8,3.3-0.4,6.8,1.1,9.9c0.9,1.9,2.3,3.6,3.3,5.5c2,3.6,2.5,7.8,2.8,11.9C174.4,183.3,174.5,184.8,174.5,186.3z"/>
	<path d="M287.9,168.6c-0.1,1.9-0.1,3.9,0.1,5.8c1.1-10.5,7.5-20.8,6-31C292.8,151.7,288.5,160.1,287.9,168.6z"/>
	<path d="M287,211.7c-4.5,5.5-12.6,7.9-15.4,14.4c-1.6,3.6-1.1,7.9-2.8,11.5c-3,6.4-11.1,8.2-18.2,9c-9.4,1.1-18.8,2.1-28.2,1.3
		s-18.8-3.3-26.6-8.5c-7.6-5.1-13.3-12.5-18.2-20.3c-1.9-2.7-3.3-5.7-4.3-8.9c-0.1-0.5-0.2-1.1-0.3-1.7c-0.4,2.8-0.3,5.6,0.3,8.4
		c0.9,3.2,2.4,6.2,4.3,8.9c4.9,7.7,10.6,15.1,18.2,20.2c7.8,5.3,17.2,7.8,26.6,8.5s18.8-0.2,28.2-1.3c7-0.8,15.2-2.6,18.2-9
		c1.7-3.6,1.2-7.9,2.8-11.5c2.8-6.5,10.9-9,15.4-14.4c4-4.8,4.7-11.4,4.2-17.7C290.9,204.8,289.5,208.6,287,211.7z"/>
</g>
<path class="st13" d="M265,257.8c-3.6,4-9,6.1-14.4,6.4c-5.4,0.1-10.8-1-15.7-3.3c-18.4-8.1-31.3-25.1-34.1-45.1
	c-0.3-1.5-0.2-3,0.2-4.5c1.5-4.1,6.8-4.7,10.5-7.2c3.3-2.2,5.1-6,6.1-9.9c0.2-1.1,0.4-2.1,0.6-3.2c0.4-2.9,0.6-5.7,1.1-8.6
	c0.2-1.4,0.6-2.7,1.4-3.9c1-1.2,2.2-2.1,3.6-2.6c8.5-3.7,19.5-2,27.9,1.2c2.8,1.1,2.3,1.4,1.2,4.1c-0.7,1.8-1.3,3.6-1.8,5.4
	c-0.1,0.5-0.3,1-0.4,1.5c-1.2,4.7-1.8,9.5-1.8,14.4c0,4.4,0.5,9.1,2.9,12.8c3.9,5.9,11.7,8.4,15.3,14.5c1.3,2.4,2.1,5.1,2.3,7.9
	C270.7,244.8,269.7,252.5,265,257.8z"/>
<path class="st13" d="M174.5,703.3c-0.7,2.8-1.1,5.7-1,8.5l-0.3,15c-0.2,10.8-0.4,21.8,2.8,32.2c1,3.6,2.7,7,5.1,9.9
	c2.4,2.9,6,4.6,9.8,4.7c1.5-0.1,3.1-0.3,4.5-0.8c2.7-0.8,5.5-2,6.9-4.4c1.9-3.2,0.9-7.2,0.1-10.9c-1.7-8.1-1.6-16.5-1.6-24.7
	l0.2-20.2c-0.1-2.7,0.1-5.5,0.5-8.2c0.4-2.2,1.1-4.3,1.2-6.5c0.2-1.7-0.2-3.4-1.1-4.8c-1-1.1-2.3-1.9-3.7-2.2
	c-2.6-0.7-5.3-0.5-7.9-0.9c-1.2-0.2-2.3-0.5-3.4-1c-0.6-0.3-2-1.7-2.7-1.7c-1.3,0-2.1,3.6-2.9,4.8
	C179,695.8,175.9,699.1,174.5,703.3z"/>
<path class="st13" d="M257.4,564.3c-7.1,21.3-2.3,44.7-4.9,67.1c-0.9,7.1-2.2,14.1-3.9,21l-12.4,55.1c-2,9.2-4.1,18.4-4.4,27.8
	s1.3,19,6.2,27.1c5.8,9.5,15.6,15.9,26.6,17.5c3.6,0.5,6.6,2.8,8,6.2c0.2,0.5,0.4,1.1,0.5,1.6c0.6,2.7-0.3,5.5-2.3,7.3
	c-2,1.6-4.7,1.8-7.3,1.6c-11.9-1-21.8-9.9-33.5-12c-10.1-1.8-21,1.5-30.5-2.3c-0.6-0.2-1.2-0.6-1.7-1c-0.6-0.6-1-1.3-1.2-2.1
	c-2.2-7,2.4-14.1,5.4-20.8c4.3-9.5,5.7-20.2,3.8-30.5c-2.1-11.6,0.1-23.9,0.7-35.8c0.7-11,2.2-21.9,4.5-32.7
	c1.5-7.2,2.8-14.5,5.7-21.3c1.8-4,4.1-7.8,5.9-11.8c3.4-7.4,5.1-15.4,6.8-23.3c3.4-16,6.7-32.1,6.7-48.5c6.3,0,12.5,1.2,18.4,3.5
	C256.8,559.1,258.1,561.8,257.4,564.3z"/>
<path class="st14" d="M257.4,564.3c-7.1,21.3-2.3,44.7-4.9,67.1c-0.9,7.1-2.2,14.1-3.9,21l-12.4,55.1c-2,9.2-4.1,18.4-4.4,27.8
	s1.3,19,6.2,27.1c5.8,9.5,15.6,15.9,26.6,17.5c3.6,0.5,6.6,2.8,8,6.2c0.2,0.5,0.4,1.1,0.5,1.6c0.6,2.7-0.3,5.5-2.3,7.3
	c-2,1.6-4.7,1.8-7.3,1.6c-11.9-1-21.8-9.9-33.5-12c-10.1-1.8-21,1.5-30.5-2.3c-0.6-0.2-1.2-0.6-1.7-1c-0.6-0.6-1-1.3-1.2-2.1
	c-2.2-7,2.4-14.1,5.4-20.8c4.3-9.5,5.7-20.2,3.8-30.5c-2.1-11.6,0.1-23.9,0.7-35.8c0.7-11,2.2-21.9,4.5-32.7
	c1.5-7.2,2.8-14.5,5.7-21.3c1.8-4,4.1-7.8,5.9-11.8c3.4-7.4,5.1-15.4,6.8-23.3c3.4-16,6.7-32.1,6.7-48.5c6.3,0,12.5,1.2,18.4,3.5
	C256.8,559.1,258.1,561.8,257.4,564.3z"/>
<path class="st13" d="M264.5,554.3c-0.4,10.3-0.8,20.7-1.2,31c0,0.3,0,0.7,0,1c0,4-0.4,7.9-1,11.8c-1.3,7.3-4.7,14.2-8.2,20.8
	c-1,2.1-2.2,4.1-3.6,6c-1.2,1.6-2.5,3.1-3.6,4.7c-2.9,4.3-3.7,9.5-5.4,14.3c-7.6,22.1-31.4,35.4-39.4,57.3c-6-1.7-12-3.8-17.7-6.4
	c-2.2-0.5-3.7-2.7-3.2-4.9c0-0.2,0.1-0.4,0.1-0.5c1.8-13.4,5-26.7,8.2-39.8c2.1-8.9,4.4-17.9,9.1-25.7c4-6.5,9.6-11.8,14.9-17.4
	c1.9-2,3.8-4.2,4.3-6.9c0.2-1.7,0.1-3.4-0.4-5c-1.1-6-1.9-12.1-2.3-18.2c0-0.3,0-0.7-0.1-1c-0.5-4.6-1.5-10.6-0.5-14.8
	c1.8-7.8,17-9.4,23.6-9.6C247,550.7,255.8,552.5,264.5,554.3z"/>
<path class="st13" d="M282.6,346.9c10.1,4.3,21.6,3.1,32.4,0.6c10.7-2.4,21.3-5.9,32.3-6c3.1,0,6.9,0.9,7.5,3.9
	c0.3,1.6-0.5,3.1-1.3,4.5c-1.5,2.6-3,5.3-5.6,6.9c-2,1.2-4.3,1.6-6.5,2.2c-4.1,1.2-8,3.2-12,4.8c-6.8,2.7-14,4-21.2,5.3
	c-3.4,0.7-6.8,1.1-10.2,0.9c-2.3-0.2-4.6-0.7-6.8-1.4c-6.5-1.8-12.9-3.8-19.3-6c-1.3-0.5-2.7-1-3.2-2.3c-0.2-0.8-0.3-1.6-0.1-2.4
	c0.3-3.2,0-6.4-0.8-9.6c-0.4-1.6-3.6-7.1-2.5-8.3C267.5,337.7,280,345.9,282.6,346.9z"/>
<path class="st14" d="M282.6,346.9c10.1,4.3,21.6,3.1,32.4,0.6c10.7-2.4,21.3-5.9,32.3-6c3.1,0,6.9,0.9,7.5,3.9
	c0.3,1.6-0.5,3.1-1.3,4.5c-1.5,2.6-3,5.3-5.6,6.9c-2,1.2-4.3,1.6-6.5,2.2c-4.1,1.2-8,3.2-12,4.8c-6.8,2.7-14,4-21.2,5.3
	c-3.4,0.7-6.8,1.1-10.2,0.9c-2.3-0.2-4.6-0.7-6.8-1.4c-6.5-1.8-12.9-3.8-19.3-6c-1.3-0.5-2.7-1-3.2-2.3c-0.2-0.8-0.3-1.6-0.1-2.4
	c0.3-3.2,0-6.4-0.8-9.6c-0.4-1.6-3.6-7.1-2.5-8.3C267.5,337.7,280,345.9,282.6,346.9z"/>
<path class="st6" d="M253.4,181.4c-0.7,1.8-1.3,3.6-1.8,5.4c-9.5,7.4-22.3,9.1-33.4,4.4c0.4-2.9,0.6-5.7,1.1-8.6
	c0.2-1.4,0.6-2.7,1.4-3.9c1-1.2,2.2-2.1,3.6-2.6c8.5-3.7,19.5-2,27.9,1.2C255,178.3,254.5,178.6,253.4,181.4z"/>
<ellipse transform="matrix(0.1602 -0.9871 0.9871 0.1602 36.9268 362.0623)" class="st13" cx="231.2" cy="159.3" rx="33.1" ry="33.1"/>
<path class="st14" d="M264.5,554.3c-0.4,10.3-0.8,20.7-1.2,31c-5.3,0.3-10.6-1.3-15.7-2.8c-10.6-3.1-21.7-6.2-32.7-7.2
	c-0.5-4.6-1.5-10.6-0.5-14.8c1.8-7.8,17-9.4,23.6-9.6C247,550.7,255.8,552.5,264.5,554.3z"/>
<path class="st8" d="M298.9,569.3c-0.6,1.1-1.3,2.7-2.3,1.9c-11.3-1-20.8,8.8-32.1,10c-5.7,0.6-11.3-1.1-16.8-2.7
	c-18.4-5.4-38.1-10.7-56.3-4.9c-0.2-10.4-1.1-20.8-2.7-31.2c-1.7-11.3-4.2-22.5-5.5-33.9c-2.4-21.1-0.6-42.5-2.4-63.7
	c-0.7-8.5-2-17-2.7-25.5c-1.8-20.2-3.7-41.7,4.7-60.1c1.2-2.7,2.4-5.3,3.6-8c0.4-0.7,0.6-1.4,0.7-2.2c0-0.4,0-0.8-0.2-1.2
	c-0.5-1.7-2.1-3-3.1-4.6c-1.6-2.6-1.5-5.9-1.2-8.9c0.1-1.3,0.5-2.4,0.5-3.6c-3.5-4.9-5.6-10.4-7.1-16.3c-1.8-6.6-2.9-13.5-4.9-20.1
	c-3.1-10.5-8.5-20.3-11.2-30.9c-1.4-5.5-1.5-11.4-1.5-17c0-2.3,0.2-4.6,0.5-6.9c0.5-2.9,1.5-5.5,4.1-6.8c2-3,2.7-6.7,2.8-10.4
	c0.1-2.4,0-4.9,0.9-7.2c1.8-4.5,7-6.7,11.8-7.4s9.9-0.5,14.3-2.6c1.7-0.8,3.3-1.8,4.7-2.9c5.7-3.8,11.2-7.9,16.4-12.4
	c0.1-0.1,0.3-0.2,0.5-0.3c0.2,0,0.4,0.1,0.6,0.3c4.2,3.7,8.3,7.4,12.5,11.1c2.3,2,4.5,4,6.6,6.2c3,3.1,5.6,6.6,7.7,10.4
	c1,1.7,1.9,3.5,2.7,5.3c1.3,2.8,2.3,5.7,3,8.6c0.4,1.6,0.8,3.1,1,4.7c0.2,1.1,0.4,2.3,0.5,3.5c0.1,0.4,0.1,0.8,0.1,1.2
	c0.7-0.1,1.4-0.4,1.9-0.9c0.6-0.4,1.1-1,1.4-1.7c0.3-0.6,0.4-1.3,0.5-2c0.1-0.9,0.2-1.7,0.2-2.6c0-1,0.1-2.1,0.1-3.1
	c0-1.8-0.2-3.6-0.5-5.4c-0.7-3.3-2.1-6.4-3-9.6s-1.2-6.9,0.5-9.8c0.6-1.1,1.8-2.2,3-1.9c0.9,0.3,1.7,1.1,2,2
	c0.6,1.3,0.9,2.7,0.8,4.2c0,0.7,0,1.3,0.6,1.6c0.2,3.3,2.7,6,5.4,7.8c2.7,1.8,5.9,3.1,8.3,5.3c3.1,2.8,4.8,6.7,7,10.3
	c1.3,1.9,2.3,3.9,3.1,6c0.5,2,0.7,4.1,0.5,6.2c-0.1,12.9-0.3,25.8-0.4,38.7c-0.2,5.4,0,10.9,0.8,16.3c0.5,3,1.3,5.9,1.4,9
	c0.2,8.5-5.7,15.6-9.8,23c-3,5.4-1.9,12.2,0.7,17.7s6.6,10.3,9.7,15.6c10.9,18.8,9.1,42,8.5,63.8c-1,33.9,1.6,67.7,7.8,101
	C302,544.8,304.6,558.2,298.9,569.3z"/>
<path class="st14" d="M248.6,236.5c-1.1,0-2.2,0.1-3.3,0.2c0,1,0,2,0,3c1.2,0,2.5,0.1,3.7,0.3c0.7,0.1,1.4,0.2,2,0.3
	c2.2,0.4,4.2,1.2,6,2.5c3.4,2.4,5.3,7.1,3.4,10.8l-1.3,0.5c0.5,1.4,0.6,2.8,0.1,4.2c-0.6,1.3-2.5,2.1-3.5,1
	c-1.1-1.2-0.1-3.7-1.6-4.5c-1-0.4-2.1,0.1-2.5,1c-0.4,1-0.5,2-0.3,3c1,7.9,4.8,15.4,4.9,23.4c0,2.6,0.1,5.6-1.7,7.4
	c-3.4,3.5-6.9,7-10.4,10.6c-6.5,6.6-12.9,13.2-19.8,19.4c-10.6,9.6-21.9,18.3-34,25.9c-1.3,0.8-2.5,1.6-3.8,2.4
	c-0.5-1.7-2.1-3-3.1-4.6c-1.6-2.6-1.5-5.9-1.2-8.9c0.1-1.3,0.5-2.4,0.5-3.6c-3.5-4.9-5.6-10.4-7.1-16.3c0.5,0,0.9,0,1.4,0
	c4.8-0.1,9.4-1.8,13.9-3.5c4-1.4,8-3.1,11.8-5c5.8-3.2,11.1-7.1,16-11.6c3.1-2.7,6.7-5.2,10.8-5.4c2.4-2.5,6.2-3.9,7.4-7.1
	c0.5-1.8,0.6-3.7,0.2-5.6c-0.7-4.4-1.6-8.7-2.8-13c-1-3.4-0.7-6.6-1.4-10.1c-0.8-3.8-1.2-7.6-1.2-11.5c0.4-7.2,4.1-13.8,7.6-20.1
	c0.7-1.2,1.4-2.4,2.1-3.7c0.6-1,1.1-2,1.7-3c1.4,0.3,2.4,1.5,2.5,2.9c0,1.4-0.3,2.8-0.9,4c-0.2,0.5-0.4,0.9-0.5,1.4
	c-1.6,4.1-3.3,8.1-4.9,12.2c2.5-1.4,5.2-2.6,7.9-3.6c1.2-0.4,2.3-0.6,3.5-0.8c0.7-0.1,1.4-0.1,2.2-0.1c3.4,0,6.9,1.2,9,3.9
	c0.8,1,1.3,2.5,0.5,3.5c-3.2-0.9-6.5-1.4-9.7-1.6C251.6,236.4,250.1,236.4,248.6,236.5z"/>
<path class="st15" d="M295.4,339.6L280.5,391l83.7-28.4l10.8-44.6L295.4,339.6z M331.8,339.6c-3,0-5.4-1.2-5.4-2.7s2.4-2.7,5.4-2.7
	s5.4,1.2,5.4,2.7S334.8,339.6,331.8,339.6L331.8,339.6z"/>
<ellipse class="st11" cx="234.6" cy="139.1" rx="35.8" ry="17.6"/>
<ellipse class="st16" cx="307.5" cy="349.8" rx="4.7" ry="1.4"/>
<ellipse class="st17" cx="302.1" cy="356.5" rx="4.7" ry="1.4"/>
<ellipse class="st17" cx="337.3" cy="347" rx="4.7" ry="1.4"/>
<ellipse class="st17" cx="306.2" cy="356.5" rx="4.7" ry="1.4"/>
<ellipse class="st17" cx="298.1" cy="355.2" rx="4.7" ry="1.4"/>
<ellipse class="st17" cx="298.1" cy="359.2" rx="4.7" ry="1.4"/>
<ellipse class="st17" cx="308.9" cy="353.8" rx="4.7" ry="1.4"/>
<ellipse class="st17" cx="300.8" cy="351.1" rx="4.7" ry="1.4"/>
<ellipse class="st16" cx="310.3" cy="355.2" rx="4.7" ry="1.4"/>
<ellipse class="st16" cx="313" cy="348.4" rx="4.7" ry="1.4"/>
<ellipse class="st16" cx="313" cy="351.1" rx="4.7" ry="1.4"/>
<ellipse class="st16" cx="314.3" cy="355.2" rx="4.7" ry="1.4"/>
<ellipse class="st16" cx="327.8" cy="349.8" rx="4.7" ry="1.4"/>
<ellipse class="st16" cx="333.2" cy="348.4" rx="4.7" ry="1.4"/>
<ellipse class="st16" cx="333.2" cy="351.1" rx="4.7" ry="1.4"/>
<ellipse class="st16" cx="326.5" cy="355.2" rx="4.7" ry="1.4"/>
<ellipse class="st16" cx="327.8" cy="355.2" rx="4.7" ry="1.4"/>
<ellipse class="st16" cx="326.5" cy="355.2" rx="4.7" ry="1.4"/>
<ellipse class="st16" cx="322.4" cy="355.2" rx="4.7" ry="1.4"/>
<ellipse class="st16" cx="317" cy="349.8" rx="4.7" ry="1.4"/>
<ellipse class="st16" cx="318.4" cy="352.5" rx="4.7" ry="1.4"/>
<ellipse class="st18" cx="322.4" cy="348.4" rx="4.7" ry="1.4"/>
<ellipse class="st16" cx="322.4" cy="351.1" rx="4.7" ry="1.4"/>
<ellipse class="st19" cx="321" cy="352.5" rx="4.7" ry="1.4"/>
<ellipse class="st16" cx="326.5" cy="352.5" rx="4.7" ry="1.4"/>
<ellipse class="st16" cx="329.1" cy="357.9" rx="4.7" ry="1.4"/>
<ellipse class="st16" cx="331.9" cy="351.1" rx="4.7" ry="1.4"/>
<ellipse class="st16" cx="331.9" cy="353.8" rx="4.7" ry="1.4"/>
<ellipse class="st16" cx="333.2" cy="357.9" rx="4.7" ry="1.4"/>
<ellipse class="st16" cx="346.7" cy="352.5" rx="4.7" ry="1.4"/>
<ellipse class="st16" cx="352.1" cy="351.1" rx="4.7" ry="1.4"/>
<ellipse class="st20" cx="352.1" cy="353.8" rx="4.7" ry="1.4"/>
<ellipse class="st16" cx="345.4" cy="357.9" rx="4.7" ry="1.4"/>
<ellipse class="st16" cx="346.7" cy="357.9" rx="4.7" ry="1.4"/>
<ellipse class="st16" cx="345.4" cy="357.9" rx="4.7" ry="1.4"/>
<ellipse class="st19" cx="341.3" cy="357.9" rx="4.7" ry="1.4"/>
<ellipse class="st16" cx="335.9" cy="352.5" rx="4.7" ry="1.4"/>
<ellipse class="st16" cx="337.3" cy="355.2" rx="4.7" ry="1.4"/>
<ellipse class="st20" cx="341.3" cy="351.1" rx="4.7" ry="1.4"/>
<ellipse class="st19" cx="341.3" cy="353.8" rx="4.7" ry="1.4"/>
<ellipse class="st19" cx="340" cy="355.2" rx="4.7" ry="1.4"/>
<ellipse transform="matrix(0.9828 -0.1845 0.1845 0.9828 -62.2416 60.4533)" class="st16" cx="293.8" cy="364.7" rx="4.7" ry="1.4"/>
<ellipse transform="matrix(0.9828 -0.1845 0.1845 0.9828 -63.0671 61.2082)" class="st16" cx="297.4" cy="369.6" rx="4.7" ry="1.4"/>
<ellipse transform="matrix(0.9828 -0.1845 0.1845 0.9828 -61.7281 61.3461)" class="st16" cx="298.8" cy="362.4" rx="4.7" ry="1.4"/>
<ellipse transform="matrix(0.9835 -0.1807 0.1807 0.9835 -61.2466 59.5277)" class="st16" cx="296.2" cy="366" rx="4.7" ry="1.3"/>
<ellipse transform="matrix(0.9828 -0.1845 0.1845 0.9828 -62.862 61.9306)" class="st16" cx="301.4" cy="368.8" rx="4.7" ry="1.4"/>
<ellipse transform="matrix(0.9828 -0.1845 0.1845 0.9828 -61.2104 64.0615)" class="st16" cx="313.7" cy="361" rx="4.7" ry="1.4"/>
<ellipse transform="matrix(0.9828 -0.1845 0.1845 0.9828 -60.6967 64.9562)" class="st16" cx="318.8" cy="358.7" rx="4.7" ry="1.4"/>
<ellipse transform="matrix(0.9828 -0.1845 0.1845 0.9828 -61.1774 65.0925)" class="st16" cx="319.3" cy="361.3" rx="4.7" ry="1.4"/>
<ellipse transform="matrix(0.9828 -0.1845 0.1845 0.9828 -62.2426 64.0964)" class="st16" cx="313.4" cy="366.6" rx="4.7" ry="1.4"/>
<ellipse transform="matrix(0.9828 -0.1845 0.1845 0.9828 -62.174 64.3359)" class="st16" cx="314.7" cy="366.3" rx="4.7" ry="1.4"/>
<ellipse transform="matrix(0.9828 -0.1845 0.1845 0.9828 -62.2426 64.0964)" class="st16" cx="313.4" cy="366.6" rx="4.7" ry="1.4"/>
<ellipse transform="matrix(0.9828 -0.1845 0.1845 0.9828 -62.4477 63.3743)" class="st16" cx="309.4" cy="367.3" rx="4.7" ry="1.4"/>
<ellipse transform="matrix(0.9828 -0.1845 0.1845 0.9828 -61.7624 62.1371)" class="st18" cx="303.1" cy="363" rx="4.7" ry="1.4"/>
<ellipse transform="matrix(0.9828 -0.1845 0.1845 0.9828 -62.1721 62.516)" class="st16" cx="304.9" cy="365.4" rx="4.7" ry="1.4"/>
<ellipse transform="matrix(0.9828 -0.1845 0.1845 0.9828 -61.2451 63.0311)" class="st18" cx="308.1" cy="360.7" rx="4.7" ry="1.4"/>
<ellipse transform="matrix(0.9828 -0.1845 0.1845 0.9828 -61.7277 63.1676)" class="st16" cx="308.6" cy="363.3" rx="4.7" ry="1.4"/>
<ellipse transform="matrix(0.9828 -0.1845 0.1845 0.9828 -62.0379 62.9973)" class="st18" cx="307.6" cy="364.9" rx="4.7" ry="1.4"/>
<ellipse transform="matrix(0.9828 -0.1845 0.1845 0.9828 -61.762 63.9586)" class="st16" cx="312.9" cy="363.9" rx="4.7" ry="1.4"/>
<ellipse transform="matrix(0.9828 -0.1845 0.1845 0.9828 -62.5854 64.7152)" class="st16" cx="316.5" cy="368.7" rx="4.7" ry="1.4"/>
<ellipse transform="matrix(0.9828 -0.1845 0.1845 0.9828 -61.2446 64.8526)" class="st16" cx="317.9" cy="361.6" rx="4.7" ry="1.4"/>
<ellipse transform="matrix(0.9828 -0.1845 0.1845 0.9828 -61.7273 64.9891)" class="st16" cx="318.4" cy="364.3" rx="4.7" ry="1.4"/>
<ellipse transform="matrix(0.9828 -0.1845 0.1845 0.9828 -62.3805 65.4354)" class="st16" cx="320.5" cy="368" rx="4.7" ry="1.4"/>
<ellipse transform="matrix(0.9828 -0.1845 0.1845 0.9828 -60.7307 67.5669)" class="st16" cx="332.8" cy="360.2" rx="4.7" ry="1.4"/>
<ellipse transform="matrix(0.9828 -0.1845 0.1845 0.9828 -60.2153 68.4616)" class="st16" cx="337.8" cy="357.9" rx="4.7" ry="1.4"/>
<ellipse transform="matrix(0.9828 -0.1845 0.1845 0.9828 -60.6959 68.5994)" class="st20" cx="338.3" cy="360.5" rx="4.7" ry="1.4"/>
<ellipse transform="matrix(0.9828 -0.1845 0.1845 0.9828 -61.7611 67.6016)" class="st16" cx="332.4" cy="365.7" rx="4.7" ry="1.4"/>
<ellipse transform="matrix(0.9828 -0.1845 0.1845 0.9828 -61.692 67.8428)" class="st16" cx="333.8" cy="365.5" rx="4.7" ry="1.4"/>
<ellipse transform="matrix(0.9828 -0.1845 0.1845 0.9828 -61.7611 67.6016)" class="st16" cx="332.4" cy="365.7" rx="4.7" ry="1.4"/>
<ellipse transform="matrix(0.9828 -0.1845 0.1845 0.9828 -61.9681 66.8797)" class="st16" cx="328.5" cy="366.5" rx="4.7" ry="1.4"/>
<ellipse transform="matrix(0.9835 -0.1807 0.1807 0.9835 -60.3668 63.5933)" class="st20" cx="318.9" cy="363.2" rx="4.7" ry="1.3"/>
<ellipse transform="matrix(0.9828 -0.1845 0.1845 0.9828 -61.6924 66.0213)" class="st16" cx="324" cy="364.6" rx="4.7" ry="1.4"/>
<path class="st11" d="M215.5,181.8l-1,1c0,0,45.4,71,55.4,78.5l3.1-2.5C273.1,258.8,261.5,237.5,215.5,181.8z"/>
<path class="st15" d="M275.7,261.4c0,0-2.4-4.3-3.3-3.5s-3.9,2.9-3.5,3.5s3,4.1,3,4.1s3.4-0.1,4.5-3.1L275.7,261.4z"/>
<path class="st21" d="M290.9,284.1l-0.5-0.1c0,0,0.4-2.3-5.1-4.7c-1-0.4-2-0.8-3.1-1.1c-8.4-2.6-11.7-8.5-10-12.6
	c0-0.1,0.1-0.3,0.2-0.4l3.5-2.8l0.4,0.4c2.1,1.7,4.4,3.2,6.9,4.4c3.2,1.4,5.7,4,7.1,7.2C291.4,277.4,291.6,280.8,290.9,284.1z"/>
<path class="st22" d="M275.6,263.1c0,0,1.2,2.6,7.5,5.7s7.6,12,7.6,12s-3.3-8.3-8.3-9.8c-5-1.5-7.2-7.4-7.2-7.4L275.6,263.1z"/>
<path class="st22" d="M274.7,264.1c0,0-0.3,3.5,3.8,6.6c4.1,3.1,11.9,8.1,12.1,10.5c0,0-3.8-3.9-7-5.2s-7.7-3.9-8.2-6.4
	c0,0-1.8-3.8-1.3-5.3L274.7,264.1z"/>
<path class="st22" d="M273.4,264.9c0,0-1.7,3.4,2.4,8.1c2,1.8,4.4,3.2,7,3.9c2.9,1,5.4,2.8,7.4,5.1"/>
<ellipse transform="matrix(0.9828 -0.1845 0.1845 0.9828 -60.7654 66.5365)" class="st18" cx="327.2" cy="359.9" rx="4.7" ry="1.4"/>
<ellipse transform="matrix(0.9828 -0.1845 0.1845 0.9828 -61.2442 66.6741)" class="st16" cx="327.7" cy="362.5" rx="4.7" ry="1.4"/>
<ellipse transform="matrix(0.9828 -0.1845 0.1845 0.9828 -61.5546 66.502)" class="st16" cx="326.6" cy="364.1" rx="4.7" ry="1.4"/>
<path class="st8" d="M156.1,264.8c0,1.9-0.3,3.8-0.9,5.6c-0.4,1-1,1.8-1.4,2.7c-2,4-1.1,8.7-1.4,13.1c-0.2,2.5-0.6,5-1.2,7.5
	c-2.2,10.2-4.4,20.4-7,30.5c-0.9,3.4-1.7,7.1-0.2,10.3c0.4,0.8,0.9,1.5,1.3,2.4c0.9,2.3,0.1,5,0.9,7.3c0.9,2.4,3.3,3.9,5.8,3.7
	c0.6-9.6,5-18.5,10.5-26.4c2.6-3.7,5.5-7.4,9.4-9.8c1.9-1.2,4-2.1,5.5-3.8c1.5-1.9,2.5-4.2,2.8-6.6c2.6-14.8-3.7-29.6-11-42.8
	c-1.5-2.7-4.7-8.8-8-6.5S156.5,261.1,156.1,264.8z"/>
<path class="st6" d="M234.6,151.2c-17.9,0-32.7-6.4-35.4-14.9c-0.3,0.9-0.4,1.8-0.4,2.7c0,9.7,16,17.6,35.8,17.6s35.8-7.9,35.8-17.6
	c0-0.9-0.1-1.8-0.4-2.7C267.3,144.8,252.5,151.2,234.6,151.2z"/>
<g class="st23">
	<path d="M153.5,336.8c-0.3-0.8-0.9-1.6-1.3-2.4c-1.5-3.1-0.7-6.9,0.2-10.3c2.6-10.1,4.8-20.3,7-30.5c0.6-2.4,1-4.9,1.2-7.5
		c0.3-4.4-0.6-9.1,1.4-13.1c0.5-0.9,1-1.8,1.4-2.7c0.6-1.8,0.8-3.7,0.9-5.6c0.3-3.3,1.2-6.5,2.6-9.5c-0.2-2.9-0.3-5.9-0.3-8.7
		c0-2.3,0.2-4.6,0.5-6.9c0.5-2.9,1.5-5.5,4.1-6.8c2-3,2.7-6.7,2.8-10.4c0.1-2.4,0-4.9,0.9-7.2c1.8-4.5,7-6.7,11.8-7.4
		s9.9-0.5,14.3-2.6c1.7-0.8,3.3-1.8,4.7-2.9c4.3-3,8.6-6,12.7-9.3l-3.4-3c-0.2-0.1-0.4-0.3-0.6-0.3c-0.2,0-0.3,0.1-0.5,0.3
		c-5.2,4.5-10.7,8.6-16.4,12.4c-1.5,1.1-3.1,2.1-4.7,2.9c-4.4,2-9.5,1.9-14.3,2.6s-10,2.9-11.8,7.4c-0.9,2.3-0.8,4.8-0.9,7.2
		c-0.1,3.6-0.8,7.4-2.8,10.4c-2.6,1.2-3.7,3.9-4.1,6.8c-0.3,2.3-0.5,4.6-0.5,6.9c0,2.9,0.1,5.8,0.3,8.7c-1.4,3-2.3,6.2-2.6,9.5
		c0,1.9-0.3,3.8-0.9,5.6c-0.4,1-1,1.8-1.4,2.7c-2,4-1.1,8.7-1.4,13.1c-0.2,2.5-0.6,5-1.2,7.5c-2.2,10.2-4.4,20.4-7,30.5
		c-0.9,3.4-1.7,7.1-0.2,10.3c0.4,0.8,0.9,1.5,1.3,2.4c0.9,2.3,0.1,5,0.9,7.3c0.9,2.4,3.3,3.9,5.8,3.7c0.2-3.2,0.8-6.4,1.8-9.4
		C153.8,337.9,153.6,337.3,153.5,336.8z"/>
	<path d="M251.2,220.1c0.5,1,1,2,1.4,3c1.3,2.8,2.3,5.7,3,8.6c0.4,1.6,0.8,3.1,1,4.7c0.2,1.1,0.4,2.3,0.5,3.5c0,0.4,0.1,0.8,0.1,1.2
		c0.7-0.1,1.4-0.4,1.9-0.9c0.6-0.4,1.1-1.1,1.4-1.8c0.2-0.6,0.4-1.3,0.5-2c0.1-0.9,0.2-1.7,0.2-2.6c0-1,0.1-2.1,0.1-3.1
		c0-1.8-0.2-3.6-0.5-5.4c-0.7-3.3-2.1-6.4-3-9.6c-0.1-0.2-0.1-0.5-0.2-0.7c-0.5-1-0.8-2-0.9-3.1c-0.6-0.4-0.7-0.9-0.6-1.6
		c0-1.4-0.3-2.9-0.8-4.2c-0.3-0.9-1.1-1.7-2-2c-1.3-0.3-2.4,0.8-3,1.9c-1.6,2.9-1.4,6.6-0.5,9.8
		C250.2,217.2,250.7,218.7,251.2,220.1z"/>
	<path d="M196.8,542.4c-1.7-11.3-4.2-22.5-5.5-33.9c-2.4-21.1-0.6-42.5-2.4-63.7c-0.7-8.5-2-17-2.7-25.5
		c-1.8-20.2-3.7-41.7,4.6-60.1c1.2-2.7,2.4-5.3,3.6-8c0.4-0.7,0.6-1.4,0.7-2.2c0-0.4,0-0.8-0.2-1.2c-0.5-1.7-2.1-3-3.1-4.6
		c-1.6-2.6-1.5-5.9-1.2-8.9c0.1-1.3,0.5-2.4,0.5-3.6c-3.5-4.9-5.6-10.4-7.1-16.3c-0.4-1.5-0.8-3-1.1-4.5c-1,0.6-2,1.1-3,1.7
		c-1.4,0.9-2.7,2-3.9,3.1c1.3,5.7,3.7,11.1,7,15.9c-0.1,1.3-0.4,2.4-0.5,3.6c-0.2,3-0.4,6.4,1.2,8.9c1,1.6,2.6,2.9,3.1,4.6
		c0.1,0.4,0.2,0.8,0.2,1.2c-0.1,0.8-0.3,1.5-0.7,2.2c-1.2,2.7-2.4,5.3-3.6,8c-8.4,18.5-6.4,39.9-4.7,60.1c0.8,8.5,2,17,2.7,25.5
		c1.8,21.2,0,42.6,2.4,63.7c1.3,11.4,3.8,22.6,5.5,33.9c1.6,10.3,2.5,20.7,2.7,31.2c2.6-0.8,5.3-1.4,8-1.8
		C199.1,561.9,198.2,552.1,196.8,542.4z"/>
	<path d="M255.8,578.5c-14-4.1-28.7-8.2-43-7.3c11.7,0.7,23.6,4,34.9,7.3c5.5,1.6,11.1,3.3,16.8,2.7c0.5,0,0.9-0.1,1.4-0.2
		C262.5,580.4,259.1,579.6,255.8,578.5z"/>
</g>
<path class="st13" d="M148.3,339l4.4,10.6c0.8,1.9,1.6,3.8,3.2,5.1c2,1.5,4.6,1.9,7,1.3c2.4-0.7,4.6-1.7,6.7-3
	c6.7-3.8,13.3-7.6,19.8-11.7c12.1-7.6,23.4-16.3,34-25.9c6.8-6.2,13.3-12.8,19.8-19.4l10.3-10.6c1.8-1.8,1.7-4.9,1.7-7.4
	c-0.1-8-4-15.4-4.9-23.4c-0.2-1-0.1-2,0.3-3c0.5-0.9,1.6-1.4,2.5-1c1.5,0.8,0.5,3.2,1.6,4.5c1,1.1,2.9,0.3,3.5-1
	c0.4-1.4,0.4-2.9-0.1-4.2l1.3-0.5c1.9-3.6-0.1-8.4-3.4-10.8c-3.4-2.4-7.7-2.9-11.8-3v-3c5.9-0.6,11.8-0.1,17.5,1.5
	c0.9-1,0.3-2.5-0.5-3.5c-2.5-3.2-7.1-4.3-11.2-3.8s-7.8,2.5-11.5,4.4l5.4-13.6c0.6-1.2,0.9-2.6,0.9-4c0-1.4-1.1-2.6-2.5-2.9
	l-3.8,6.7c-3.6,6.3-7.2,12.9-7.6,20.1c-0.1,3.9,0.3,7.7,1.2,11.5c0.6,3.4,0.4,6.7,1.4,10.1c1.2,4.3,2.1,8.6,2.8,13
	c0.4,1.8,0.4,3.8-0.2,5.6c-1.2,3.2-5,4.6-7.4,7.1c-4,0.2-7.7,2.8-10.8,5.4c-4.9,4.5-10.2,8.3-16,11.6c-3.8,1.9-7.8,3.6-11.8,5
	c-4.5,1.7-9.1,3.5-13.9,3.5c-3.6,0-7.3-0.8-10.7,0.3c-5.1,1.6-8,7-10.3,11.8l-3.8,8C150,333.3,149,336.1,148.3,339z"/>
<path class="st8" d="M162.2,320.8c2.7-3.8,5.7-7.6,9.6-10c0.7-0.5,1.5-0.9,2.3-1.3c-3.1-0.1-6.2-0.6-9.1,0.3
	c-5.3,1.7-8.2,7.1-10.6,12.1l-3.9,8.2c-1.2,2.8-2.2,5.7-3,8.7l3.8,9h0.1C151.9,338,156.6,328.9,162.2,320.8z"/>
<ellipse class="st13" cx="331.2" cy="336.8" rx="2.7" ry="3.2"/>
<ellipse class="st13" cx="331.2" cy="338.4" rx="2.7" ry="3.2"/>
<path class="st16" d="M291.5,286.3l-0.7-0.1c0,0,0.5-2.8-6.8-5.7c0-0.5,0.1-1,0.2-1.4c0.1-0.4,0.2-0.8,0.4-1.1
	c0.1-0.4,0.3-0.7,0.5-1c0.4-0.7,1-1.3,1.7-1.8c0.5-0.3,1-0.6,1.5-0.7c0.4-0.1,0.8-0.2,1.2-0.2c0.4,0,0.8,0.1,1.2,0.2
	C292,277.4,292.5,281.3,291.5,286.3z"/>
<path class="st1" d="M121.5,660.5c0,0,6.2,8.1-2.9,20.4S102,703.5,105,711.2c0,0,13.7-22.8,24.9-23.1S133.7,674.2,121.5,660.5z"/>
<path class="st6" d="M121.5,660.5c0.5,0.8,1,1.6,1.3,2.5c10.9,12.8,16.7,24.7,6.2,25c-9.8,0.3-21.5,17.7-24.3,22.1
	c0.1,0.3,0.2,0.7,0.3,1c0,0,13.7-22.8,24.9-23.1S133.7,674.2,121.5,660.5z"/>
<path class="st24" d="M133,670.9c0,2.9-0.3,5.2-0.7,5.2s-0.7-2.3-0.7-5.2s0.4-1.5,0.8-1.5S133,668,133,670.9z"/>
<path class="st24" d="M137,674.3c-2.5,1.4-4.7,2.2-4.9,1.8s1.7-1.7,4.2-3.1s1.5-0.4,1.7,0S139.5,672.9,137,674.3z"/>
<path class="st1" d="M88.6,660.5c0,0-6.2,8.1,2.9,20.4s16.6,22.6,13.5,30.3c0,0-13.7-22.8-24.9-23.1S76.3,674.2,88.6,660.5z"/>
<path class="st6" d="M88.6,660.5c-0.5,0.8-1,1.6-1.3,2.5c-10.9,12.8-16.7,24.7-6.2,25c9.7,0.3,21.4,17.7,24.2,22.1
	c-0.1,0.3-0.2,0.7-0.3,1c0,0-13.7-22.8-24.9-23.1S76.3,674.2,88.6,660.5z"/>
<path class="st24" d="M77,670.9c0,2.9,0.3,5.2,0.7,5.2s0.7-2.3,0.7-5.2s-0.4-1.5-0.8-1.5S77,668,77,670.9z"/>
<path class="st24" d="M73.1,674.3c2.5,1.4,4.7,2.2,4.9,1.8s-1.7-1.7-4.2-3.1s-1.5-0.4-1.7,0S70.6,672.9,73.1,674.3z"/>
<path class="st25" d="M79,710.2c0,0,17.4-0.5,22.6-4.3s26.8-8.2,28-2.2s26.1,29.8,6.5,29.9s-45.6-3.1-50.8-6.2S79,710.2,79,710.2z"
	/>
<path class="st26" d="M136.5,731.5c-19.6,0.2-45.6-3.1-50.8-6.2c-4-2.4-5.6-11.1-6.1-15.2H79c0,0,1.1,14,6.3,17.2s31.2,6.4,50.8,6.2
	c5.7,0,7.6-2.1,7.5-5C142.9,730.4,140.7,731.5,136.5,731.5z"/>
<path class="st27" d="M566,689.7c0,0-11.1-37.7,2.1-65.5c5.6-11.6,7.3-24.7,4.8-37.4c-1.2-6-3-11.9-5.3-17.5"/>
<path class="st1" d="M575.8,551.7c0,4.6-8.4,18-8.4,18s-8.4-13.4-8.4-18c0.2-4.6,4-8.2,8.7-8.1C572.1,543.8,575.7,547.3,575.8,551.7
	z"/>
<path class="st1" d="M589.7,577.3c-2.5,3.9-16.8,10.6-16.8,10.6s0.3-15.8,2.8-19.7c2.5-3.9,7.7-5,11.6-2.5
	C591.1,568.3,592.2,573.4,589.7,577.3L589.7,577.3z"/>
<path class="st1" d="M589.1,621.1c-4.1,2.1-19.9,0.6-19.9,0.6s8.2-13.5,12.3-15.6c4.1-2.1,9.2-0.4,11.3,3.7
	C594.9,614,593.2,619,589.1,621.1L589.1,621.1z"/>
<path class="st1" d="M581.1,654.1c-3.7,2.8-19.5,4-19.5,4s5.8-14.7,9.5-17.5c3.7-2.8,9-2,11.7,1.7
	C585.7,646.1,584.9,651.3,581.1,654.1L581.1,654.1z"/>
<path class="st1" d="M555.3,588.8c3.3,3.2,18.8,6.6,18.8,6.6s-3.8-15.3-7.1-18.6c-3.3-3.3-8.6-3.3-11.8,0s-3.3,8.6,0,11.8
	C555.2,588.7,555.2,588.7,555.3,588.8L555.3,588.8z"/>
<path class="st1" d="M546.5,627.5c4.1,2.1,19.9,0.6,19.9,0.6s-8.2-13.5-12.3-15.6c-4.2-2-9.2-0.1-11.1,4
	C541,620.6,542.6,625.4,546.5,627.5z"/>
<path class="st1" d="M543.1,666.3c3.7,2.8,19.5,4,19.5,4s-5.8-14.7-9.5-17.5c-3.7-2.8-9-2-11.7,1.7S539.4,663.6,543.1,666.3
	L543.1,666.3L543.1,666.3z"/>
<path class="st1" d="M575.8,551.7c0,4.6-8.4,18-8.4,18s-8.4-13.4-8.4-18c0.2-4.6,4-8.2,8.7-8.1C572.1,543.8,575.7,547.3,575.8,551.7
	z"/>
<path class="st1" d="M589.7,577.3c-2.5,3.9-16.8,10.6-16.8,10.6s0.3-15.8,2.8-19.7c2.5-3.9,7.7-5,11.6-2.5
	C591.1,568.3,592.2,573.4,589.7,577.3L589.7,577.3z"/>
<path class="st1" d="M589.1,621.1c-4.1,2.1-19.9,0.6-19.9,0.6s8.2-13.5,12.3-15.6c4.1-2.1,9.2-0.4,11.3,3.7
	C594.9,614,593.2,619,589.1,621.1L589.1,621.1z"/>
<path class="st1" d="M581.1,654.1c-3.7,2.8-19.5,4-19.5,4s5.8-14.7,9.5-17.5c3.7-2.8,9-2,11.7,1.7
	C585.7,646.1,584.9,651.3,581.1,654.1L581.1,654.1z"/>
<path class="st1" d="M555.3,588.8c3.3,3.2,18.8,6.6,18.8,6.6s-3.8-15.3-7.1-18.6c-3.3-3.3-8.6-3.3-11.8,0s-3.3,8.6,0,11.8
	C555.2,588.7,555.2,588.7,555.3,588.8L555.3,588.8z"/>
<path class="st1" d="M546.5,627.5c4.1,2.1,19.9,0.6,19.9,0.6s-8.2-13.5-12.3-15.6c-4.2-2-9.2-0.1-11.1,4
	C541,620.6,542.6,625.4,546.5,627.5z"/>
<path class="st1" d="M543.1,666.3c3.7,2.8,19.5,4,19.5,4s-5.8-14.7-9.5-17.5c-3.7-2.8-9-2-11.7,1.7S539.4,663.6,543.1,666.3
	L543.1,666.3L543.1,666.3z"/>
<path class="st25" d="M539.7,687.3c0,0,13.5-2.7,17.1-6.3s19.8-9.8,21.7-5.4s24.3,19.7,9,22.4s-36.1,3.6-40.6,1.8
	S539.7,687.3,539.7,687.3z"/>
<path class="st26" d="M587.6,696.4c-15.3,2.7-36.1,3.6-40.6,1.8c-3.4-1.4-5.8-7.9-6.8-11l-0.5,0.1c0,0,2.7,10.8,7.2,12.5
	s25.3,0.9,40.6-1.8c4.4-0.8,5.7-2.6,5.2-4.9C592.4,694.7,590.8,695.8,587.6,696.4z"/>
</svg>
