<?xml version="1.0" encoding="utf-8"?>
<!-- Generator: Adobe Illustrator 22.1.0, SVG Export Plug-In . SVG Version: 6.00 Build 0)  -->
<svg version="1.1" id="fad6bd40-d7a1-475a-8cb8-f1a0445f95b8"
	 xmlns="http://www.w3.org/2000/svg" xmlns:xlink="http://www.w3.org/1999/xlink" x="0px" y="0px" viewBox="0 0 782.1 524.3"
	 style="enable-background:new 0 0 782.1 524.3;" xml:space="preserve">
<style type="text/css">
	.st0{fill:#6FA5E2;}
	.st1{fill:#3F3D56;}
	.st2{fill:none;stroke:#2F2E41;stroke-miterlimit:10;}
	.st3{opacity:0.3;fill:#6FA5E2;enable-background:new    ;}
</style>
<ellipse class="st0" cx="392.1" cy="178.9" rx="33" ry="30.2"/>
<path class="st1" d="M450.5,455.4c0,0-70.3,28.2-120.2,0.6l0.5-8l4.3-74l4.1-70.1l4.9-83.7h93.4l4.5,83.7l3.8,70.1l4,74L450.5,455.4
	z"/>
<path class="st2" d="M330.3,220.2"/>
<path class="st0" d="M450.5,455.4c0,0-64.6,28.8-120.2,0.6l0.5-8h118.8L450.5,455.4z"/>
<polygon class="st0" points="445.6,374 335,374 339.1,303.9 441.8,303.9 "/>
<rect x="338.3" y="211.1" class="st1" width="104.8" height="11.4"/>
<rect x="338.3" y="172.9" class="st1" width="104.8" height="11.4"/>
<rect x="347.4" y="184.3" class="st1" width="6.3" height="29.6"/>
<rect x="363.9" y="184.3" class="st1" width="6.3" height="29.6"/>
<rect x="380.4" y="184.3" class="st1" width="6.3" height="29.6"/>
<rect x="396.9" y="184.3" class="st1" width="6.3" height="29.6"/>
<rect x="413.4" y="184.3" class="st1" width="6.3" height="29.6"/>
<rect x="363.9" y="139.1" class="st1" width="6.3" height="39"/>
<rect x="380.4" y="139.1" class="st1" width="6.3" height="39"/>
<rect x="396.9" y="139.1" class="st1" width="6.3" height="39"/>
<rect x="413.4" y="139.1" class="st1" width="6.3" height="39"/>
<rect x="430" y="184.3" class="st1" width="6.3" height="29.6"/>
<rect x="347.7" y="143.6" class="st1" width="6.3" height="34.7"/>
<rect x="430.2" y="143.6" class="st1" width="6.3" height="34.7"/>
<polygon class="st1" points="443.3,150.2 338.5,150.2 338.5,116 390.9,73.6 443.3,116 "/>
<circle class="st3" cx="392.1" cy="178.4" r="88.1"/>
<circle class="st3" cx="392.1" cy="178.4" r="122.4"/>
</svg>
