<?xml version="1.0" encoding="utf-8"?>
<!-- Generator: Adobe Illustrator 22.1.0, SVG Export Plug-In . SVG Version: 6.00 Build 0)  -->
<svg version="1.1" id="fad6bd40-d7a1-475a-8cb8-f1a0445f95b8"
	 xmlns="http://www.w3.org/2000/svg" xmlns:xlink="http://www.w3.org/1999/xlink" x="0px" y="0px" viewBox="0 0 782.1 524.3"
	 style="enable-background:new 0 0 782.1 524.3;" xml:space="preserve">
<style type="text/css">
	.st0{fill:#3F3D56;}
	.st1{fill:#E6E6E6;}
	.st2{opacity:0.3;fill:#D6AF87;enable-background:new    ;}
	.st3{opacity:0.3;fill:#6C63FF;enable-background:new    ;}
</style>
<path class="st0" d="M478.9,461.7l-68.4-45.6V62.9c0-1.3-1.1-2.4-2.4-2.4h-3.5c-1.3,0-2.4,1.1-2.4,2.4v351.6l-70.8,47.2l9.1-0.1
	l61.7-41.4v41.5h8.3v-39.9l59.4,39.8L478.9,461.7z"/>
<path class="st1" d="M286.6,97.1c-1.3,0-2.4,1.1-2.4,2.4v212.4c0,1.3,1.1,2.4,2.4,2.4h239.5c1.3,0,2.4-1.1,2.4-2.4V99.5
	c0-1.3-1.1-2.4-2.4-2.4H286.6z"/>
<path class="st0" d="M393,94.8c0.5,1.4,1.8,2.4,3.3,2.4h21.2c1.5,0,2.8-0.9,3.3-2.4H393z"/>
<path class="st0" d="M344.6,316.6h124.7c-0.5-1.4-1.8-2.4-3.3-2.4h-118C346.4,314.2,345.1,315.2,344.6,316.6z"/>
<circle class="st2" cx="349.3" cy="172.4" r="32.8"/>
<circle class="st3" cx="425.7" cy="208.6" r="32.8"/>
<circle class="st3" cx="382.4" cy="210.3" r="47.3"/>
<circle class="st2" cx="368" cy="227.4" r="47.3"/>
<circle class="st2" cx="454.8" cy="241.3" r="47.3"/>
<circle class="st3" cx="439.9" cy="173.1" r="47.3"/>
</svg>
