<?xml version="1.0" encoding="utf-8"?>
<!-- Generator: Adobe Illustrator 22.1.0, SVG Export Plug-In . SVG Version: 6.00 Build 0)  -->
<svg version="1.1" id="fad6bd40-d7a1-475a-8cb8-f1a0445f95b8"
	 xmlns="http://www.w3.org/2000/svg" xmlns:xlink="http://www.w3.org/1999/xlink" x="0px" y="0px" viewBox="0 0 782.1 524.3"
	 style="enable-background:new 0 0 782.1 524.3;" xml:space="preserve">
<style type="text/css">
	.st0{fill:#2F2E41;}
	.st1{fill:#FFFFFF;}
	.st2{fill:#FFB8B8;}
	.st3{fill:#6FA5E2;}
	.st4{fill:#A0616A;}
	.st5{fill:#D6AF87;}
</style>
<g>
	<path class="st0" d="M156.6,125v9.9H136v10.7h15.4v9.6H136v20.4h-12.3V125H156.6z"/>
	<path class="st0" d="M164,129.3c-1.4-1.3-2.1-2.8-2.1-4.7c0-1.9,0.7-3.5,2.1-4.8c1.4-1.3,3.1-1.9,5.3-1.9c2.1,0,3.9,0.6,5.2,1.9
		c1.4,1.3,2.1,2.9,2.1,4.8c0,1.9-0.7,3.4-2.1,4.7c-1.4,1.3-3.1,1.9-5.2,1.9C167.1,131.2,165.3,130.6,164,129.3z M175.4,135.4v40.2
		h-12.3v-40.2H175.4z"/>
	<path class="st0" d="M220.1,139.5c2.8,3,4.2,7.2,4.2,12.6v23.5H212v-21.8c0-2.7-0.7-4.8-2.1-6.3c-1.4-1.5-3.3-2.2-5.6-2.2
		c-2.4,0-4.2,0.7-5.6,2.2c-1.4,1.5-2.1,3.6-2.1,6.3v21.8h-12.3v-40.2h12.3v5.3c1.2-1.8,2.9-3.2,5-4.2c2.1-1,4.5-1.5,7.1-1.5
		C213.5,134.9,217.3,136.5,220.1,139.5z"/>
	<path class="st0" d="M232.7,144.5c1.6-3.1,3.7-5.5,6.4-7.2c2.7-1.7,5.7-2.5,9-2.5c2.6,0,5.1,0.6,7.2,1.7c2.2,1.1,3.9,2.6,5.1,4.5
		v-18.6h12.3v53.3h-12.3v-5.8c-1.2,1.9-2.8,3.5-4.9,4.6c-2.1,1.2-4.6,1.7-7.5,1.7c-3.3,0-6.3-0.9-9-2.6c-2.7-1.7-4.8-4.1-6.4-7.3
		c-1.6-3.1-2.3-6.8-2.3-10.9C230.4,151.3,231.2,147.6,232.7,144.5z M257.9,148.2c-1.7-1.8-3.8-2.7-6.2-2.7c-2.4,0-4.5,0.9-6.2,2.6
		c-1.7,1.8-2.6,4.2-2.6,7.2c0,3.1,0.9,5.5,2.6,7.3c1.7,1.8,3.8,2.7,6.2,2.7c2.4,0,4.5-0.9,6.2-2.7c1.7-1.8,2.6-4.2,2.6-7.3
		C260.5,152.4,259.6,150,257.9,148.2z"/>
	<path class="st0" d="M296.9,144.5c1.6-3.1,3.7-5.5,6.4-7.2c2.7-1.7,5.7-2.5,9-2.5c2.8,0,5.3,0.6,7.5,1.7c2.1,1.2,3.8,2.7,4.9,4.5
		v-5.7H337v40.2h-12.3v-5.7c-1.2,1.9-2.9,3.4-5,4.5c-2.1,1.2-4.6,1.7-7.5,1.7c-3.3,0-6.2-0.9-8.9-2.6c-2.7-1.7-4.8-4.1-6.4-7.3
		c-1.6-3.1-2.3-6.8-2.3-10.9C294.5,151.3,295.3,147.6,296.9,144.5z M322.1,148.2c-1.7-1.8-3.8-2.7-6.2-2.7c-2.4,0-4.5,0.9-6.2,2.6
		c-1.7,1.8-2.6,4.2-2.6,7.2c0,3.1,0.9,5.5,2.6,7.3c1.7,1.8,3.8,2.7,6.2,2.7c2.4,0,4.5-0.9,6.2-2.7c1.7-1.8,2.6-4.2,2.6-7.3
		C324.6,152.4,323.8,150,322.1,148.2z"/>
	<path class="st0" d="M394.1,128.2c4,2.1,7.1,5.1,9.3,8.9c2.2,3.8,3.3,8.2,3.3,13.2c0,4.9-1.1,9.3-3.3,13.2
		c-2.2,3.8-5.3,6.8-9.3,8.9c-4,2.1-8.7,3.2-13.9,3.2h-18.9V125h18.9C385.4,125,390.1,126.1,394.1,128.2z M390.2,161.1
		c2.6-2.5,3.9-6.1,3.9-10.8c0-4.7-1.3-8.3-3.9-10.9c-2.6-2.6-6.2-3.9-10.9-3.9h-5.8v29.4h5.8C383.9,164.9,387.6,163.6,390.2,161.1z"
		/>
	<path class="st0" d="M451.1,158.4h-27.9c0.2,2.5,1,4.4,2.4,5.7c1.4,1.3,3.2,2,5.2,2c3.1,0,5.2-1.3,6.4-3.9h13.1
		c-0.7,2.6-1.9,5-3.6,7.1c-1.8,2.1-3.9,3.8-6.6,5c-2.6,1.2-5.6,1.8-8.9,1.8c-3.9,0-7.4-0.8-10.5-2.5c-3.1-1.7-5.5-4.1-7.2-7.2
		c-1.7-3.1-2.6-6.8-2.6-10.9c0-4.2,0.9-7.8,2.6-10.9c1.7-3.1,4.1-5.5,7.2-7.2c3.1-1.7,6.6-2.5,10.6-2.5c3.9,0,7.3,0.8,10.4,2.4
		c3,1.6,5.4,4,7.1,7c1.7,3,2.6,6.6,2.6,10.6C451.4,156,451.3,157.2,451.1,158.4z M438.8,151.6c0-2.1-0.7-3.8-2.2-5
		c-1.4-1.2-3.2-1.9-5.4-1.9c-2.1,0-3.8,0.6-5.2,1.8c-1.4,1.2-2.3,2.9-2.6,5.1H438.8z"/>
	<path class="st0" d="M464.8,174.3c-2.7-1.2-4.9-2.8-6.5-4.9c-1.6-2.1-2.5-4.4-2.7-7h12.2c0.1,1.4,0.8,2.5,1.9,3.4s2.6,1.3,4.2,1.3
		c1.5,0,2.7-0.3,3.6-0.9c0.8-0.6,1.3-1.4,1.3-2.3c0-1.2-0.6-2-1.8-2.6c-1.2-0.6-3.1-1.2-5.8-1.8c-2.9-0.7-5.3-1.4-7.2-2.1
		c-1.9-0.7-3.6-1.9-5-3.5c-1.4-1.6-2.1-3.8-2.1-6.5c0-2.3,0.6-4.4,1.9-6.3c1.3-1.9,3.1-3.4,5.6-4.5c2.5-1.1,5.4-1.7,8.8-1.7
		c5,0,9,1.2,11.9,3.7c2.9,2.5,4.6,5.8,5,9.9h-11.4c-0.2-1.4-0.8-2.5-1.8-3.3c-1-0.8-2.4-1.2-4.1-1.2c-1.4,0-2.5,0.3-3.3,0.8
		c-0.8,0.6-1.2,1.3-1.2,2.3c0,1.2,0.6,2,1.8,2.6c1.2,0.6,3.1,1.2,5.7,1.7c3,0.8,5.4,1.5,7.3,2.3c1.9,0.7,3.5,1.9,4.9,3.6
		c1.4,1.7,2.1,3.9,2.2,6.7c0,2.4-0.7,4.5-2,6.3c-1.3,1.8-3.2,3.3-5.7,4.4c-2.5,1.1-5.3,1.6-8.6,1.6
		C470.7,176.1,467.6,175.5,464.8,174.3z"/>
	<path class="st0" d="M498.9,129.3c-1.4-1.3-2.1-2.8-2.1-4.7c0-1.9,0.7-3.5,2.1-4.8c1.4-1.3,3.1-1.9,5.3-1.9c2.1,0,3.9,0.6,5.2,1.9
		c1.4,1.3,2.1,2.9,2.1,4.8c0,1.9-0.7,3.4-2.1,4.7c-1.4,1.3-3.1,1.9-5.2,1.9C502,131.2,500.3,130.6,498.9,129.3z M510.3,135.4v40.2
		H498v-40.2H510.3z"/>
	<path class="st0" d="M542,136.5c2.1,1.2,3.8,2.7,4.9,4.5v-5.7h12.3v40.1c0,3.7-0.7,7-2.2,10c-1.5,3-3.7,5.4-6.7,7.2
		c-3,1.8-6.7,2.7-11.2,2.7c-6,0-10.8-1.4-14.5-4.2c-3.7-2.8-5.8-6.6-6.3-11.4h12.2c0.4,1.5,1.3,2.7,2.7,3.6c1.4,0.9,3.2,1.3,5.3,1.3
		c2.5,0,4.6-0.7,6.1-2.2c1.5-1.5,2.3-3.8,2.3-7v-5.7c-1.2,1.9-2.9,3.4-5,4.6c-2.1,1.2-4.6,1.8-7.4,1.8c-3.3,0-6.3-0.9-9-2.6
		c-2.7-1.7-4.8-4.1-6.4-7.3c-1.6-3.1-2.3-6.8-2.3-10.9c0-4.1,0.8-7.8,2.3-10.9c1.6-3.1,3.7-5.5,6.4-7.2c2.7-1.7,5.7-2.5,9-2.5
		C537.4,134.8,539.8,135.4,542,136.5z M544.3,148.2c-1.7-1.8-3.8-2.7-6.2-2.7s-4.5,0.9-6.2,2.6c-1.7,1.8-2.6,4.2-2.6,7.2
		c0,3.1,0.9,5.5,2.6,7.3c1.7,1.8,3.8,2.7,6.2,2.7s4.5-0.9,6.2-2.7c1.7-1.8,2.6-4.2,2.6-7.3C546.9,152.4,546.1,150,544.3,148.2z"/>
	<path class="st0" d="M603.9,139.5c2.8,3,4.2,7.2,4.2,12.6v23.5h-12.2v-21.8c0-2.7-0.7-4.8-2.1-6.3c-1.4-1.5-3.3-2.2-5.6-2.2
		c-2.4,0-4.2,0.7-5.6,2.2c-1.4,1.5-2.1,3.6-2.1,6.3v21.8h-12.3v-40.2h12.3v5.3c1.2-1.8,2.9-3.2,5-4.2c2.1-1,4.5-1.5,7.1-1.5
		C597.3,134.9,601.1,136.5,603.9,139.5z"/>
	<path class="st0" d="M654.3,158.4h-27.9c0.2,2.5,1,4.4,2.4,5.7c1.4,1.3,3.2,2,5.2,2c3.1,0,5.2-1.3,6.4-3.9h13.1
		c-0.7,2.6-1.9,5-3.6,7.1c-1.8,2.1-3.9,3.8-6.6,5c-2.6,1.2-5.6,1.8-8.9,1.8c-3.9,0-7.4-0.8-10.5-2.5c-3.1-1.7-5.5-4.1-7.2-7.2
		c-1.7-3.1-2.6-6.8-2.6-10.9c0-4.2,0.9-7.8,2.6-10.9c1.7-3.1,4.1-5.5,7.2-7.2c3.1-1.7,6.6-2.5,10.6-2.5c3.9,0,7.3,0.8,10.4,2.4
		c3,1.6,5.4,4,7.1,7c1.7,3,2.6,6.6,2.6,10.6C654.5,156,654.5,157.2,654.3,158.4z M641.9,151.6c0-2.1-0.7-3.8-2.2-5
		c-1.4-1.2-3.2-1.9-5.4-1.9c-2.1,0-3.8,0.6-5.2,1.8c-1.4,1.2-2.3,2.9-2.6,5.1H641.9z"/>
	<path class="st0" d="M678.7,136.8c2.2-1.3,4.6-1.9,7.2-1.9v13h-3.4c-3.1,0-5.4,0.7-6.9,2c-1.5,1.3-2.3,3.6-2.3,6.9v18.6H661v-40.2
		h12.3v6.7C674.8,139.9,676.6,138.1,678.7,136.8z"/>
</g>
<rect x="295.5" y="254.3" class="st1" width="180.2" height="157.4"/>
<polygon class="st2" points="357.7,265.9 363.3,288 360.9,320.4 382.2,337 389.3,281.7 385.4,268.2 "/>
<polygon class="st1" points="377.5,315.7 381.4,294.3 389.3,279.3 409.1,359.1 364.1,365.4 352.2,301.4 362.3,284.2 369.6,297.5 "/>
<polygon class="st0" points="428.3,411.7 353.4,411.7 353.8,405.7 371.2,394.7 394.9,394.7 428.1,408.9 "/>
<circle class="st2" cx="372.8" cy="258.8" r="19"/>
<path class="st3" d="M444.7,350.4l-18.2-15l1.8,39.3l0.2,3.8l0.2,5l0.5,10.9l0.8,17.4h-39.6l-2.7-8.3l-1.1,8.3h-36.2
	c-0.3-4.4-0.4-9.6-0.2-14.9c0.1-4.9,0.8-9.7,1.9-14.5c0.7-3.2,2-6.3,4-9l-7.1-25.3l-3.2,15.8l-22.1,1.6c0,0,0-0.4,0.1-1.2v0
	c0.3-7.8,2.6-51.8,14.2-60.5l23.5-23.1c0,0,0,1.7,0.2,4.5v0c0.2,2.4,0.5,5.6,1.1,9.3v0c1.3,8.4,3.9,19.3,9.2,28.9
	c1.9,3.6,3.5,6.6,4.8,9.2c5.5,11.2,5.5,13.8,5.5,13.8l2.3-27.2l0-0.1l0-0.1l3-36.4l0.5-5.4v0c0,0,36.1,6.1,47.1,22.7
	c8.9,13.3,25.4,34.8,31.6,42.8c0.1,0.1,0.1,0.2,0.2,0.3l0.9,1.2c0.2,0.2,0.3,0.4,0.5,0.6c0.2,0.2,0.3,0.3,0.4,0.5l0.4,0.5
	L444.7,350.4z"/>
<circle class="st0" cx="383.8" cy="358.3" r="2.4"/>
<circle class="st0" cx="387" cy="379.7" r="2.4"/>
<polygon class="st2" points="435.2,388.4 428.1,395.5 423.3,382.8 428.5,378.5 "/>
<polygon class="st2" points="345.1,391.5 352.2,398.6 353.8,382.8 349,381.2 "/>
<path class="st0" d="M350.6,244.2c0,0-5.5-7,0-10.5v1.8c0,0,11.9-13.2,19-9.6l6.3-1.8v1.8l4-1.8l-0.8,2.6h5.5l-2.4,1.8
	c0,0,18.2-0.9,7.1,12.3c0,0,5.3,7.9,0.3,12.3c0,0-4.2-9.6-9.7-7c-3.1,1.6-6.8,1.2-9.5-0.9c0,0-11.1-0.9-9.5,4.4s0.8,7,0.8,7
	s-4,2.6-3.2,4.4s0.8,7,0.8,7s-4-6.1-5.5-5.3S343.5,254.7,350.6,244.2z"/>
<path class="st3" d="M326.9,362.3l-3.2,2v1.9c0.2,3.4,1.3,6.7,3.2,9.5c3.2,4.7,20.5,20.5,20.5,20.5l4.7-16.6l-6.3-15.8l-4-4.7
	L326.9,362.3z"/>
<path class="st3" d="M458.1,341.7l8.7,0.9l2.4,3.1c0,0,1.6,7.1-1.6,11.1s-30.8,36.4-30.8,36.4l-11.9-14.2l20.5-25.3l-0.8-3.2
	L458.1,341.7z"/>
<rect x="566.6" y="252.8" class="st1" width="182" height="158.9"/>
<polygon class="st0" points="679.1,287.3 638,288.1 632.4,250.2 679.1,250.2 "/>
<path class="st4" d="M699.2,293.2c0,0,14.2,0,15.8,15s-4,53.7-4,53.7l-4.7,49.8h-11.1l0.9-37.9l3.2-54.5l-9.5-10.3L699.2,293.2z"/>
<path class="st4" d="M640.7,293.2c0,0-13.4-3.2-26.1,15c0,0-32.4,23.7-22.1,32.4s37.9,14.2,37.9,14.2s-10.3,21.3-4,22.1
	s15.8-22.9,13.4-26.9s-11.1-6.3-11.1-6.3l-20.5-10.3c0,0,26.4-22.6,27.8-12.9l7.8-3.7L640.7,293.2z"/>
<path class="st4" d="M670,266.4c3.4,11.5,11.8,20.8,22.9,25.3L672.4,309l-24.5-15.8c0,0,8.7-5.5,6.3-17.4L670,266.4z"/>
<circle class="st4" cx="654.2" cy="260" r="19"/>
<path class="st5" d="M637.6,291.7l14.4-2.8c0,0,4.5,10.7,19.6,9.1s17.7-8.1,17.7-8.1l13.9,3.3c0,0-7.9,8.7-4,26.1
	c0,0,1.6,28.4-7.1,38.7l-0.8,15.8c0,0,10.3,26.9,4.7,37.9h-77.4c0,0,3.2-39.5,17.4-49.8l3.2-7.1c0,0-6.3-27.7-3.2-32.4
	C636,322.5,638.4,292.4,637.6,291.7z"/>
<path class="st0" d="M690.2,277.9c-4.3-2.4-6.3-7.7-6.5-12.6c-0.1-4.9,1-9.8,1.1-14.7c0-1,0-2-0.3-3c-0.4-1.2-0.9-2.4-1.6-3.4
	c-5.6-8.6-15.3-14.6-25.6-14.7c-1.5,0-3,0.3-4.3,0.8c-1.1,0.4-1.4,0.4-1.6,1.7c-2.4-0.8-5.1-0.7-7.4,0.2c-2.3,1-4.5,2.3-6.5,3.9
	c-1.2,0.9-2.3,1.8-3.3,2.8c-5.4,5.6-6.7,14.3-5.1,21.9c0.5,2.5-1.9,4.9-4,6.4s-4.4,2.9-5.4,5.3c-1,2.2-0.4,4.8-0.6,7.2
	c-0.4,4.7-3.5,8.7-7.9,10.4c0.9,1.1,2.3,1.6,3.7,1.3c1.4-0.3,2.7-0.9,3.8-1.8c4.2-3.1,7.2-7.6,8.5-12.6c0.6,2.7,0.4,5.5,0.3,8.3
	c0.1,3.1-0.5,6.2-1.7,9c-1.2,2.9-3.3,5.3-6.1,6.7c2.7,1.3,5.6,0.4,7.8-1.6c2.2-2,3.7-4.6,4.5-7.5c1.5-4.6,2.1-9.4,1.8-14.2
	c2.5,4.2,3.4,9.1,2.5,13.8c-0.9,4.9-3.4,9.3-7.2,12.5c6.6-0.1,13-1.7,18.9-4.8c1.5-0.7,2.8-1.7,3.9-3c1.9-2.6,1.4-6.1,0.9-9.3
	c-0.4-2.5,2.7-6.1,0.9-7.9c-0.5-0.5-1.1-0.8-1.7-0.8c-6.5-0.9-12.3-4.6-15.1-10.5c-1.2-2.4-1.9-5.1-1.9-7.8c0-10.5,8.5-19,19-19
	c10.5,0,19,8.5,19,19c0,2.8-0.6,5.7-1.9,8.2c-0.2,3.8-0.8,7.6-1.9,11.3c-1.4,4.7-3.6,9.5-7.9,12c1.5,0.6,3.1,1,4.7,1
	c5.3,0.6,10.9,0.5,15.7-1.9C686.8,288.2,690.6,283.2,690.2,277.9z"/>
<path class="st0" d="M676.7,255.7c-14.2-5.7-28.2-6.9-41.9,0v-11.5c0-4.1,3.3-7.5,7.5-7.5h28.5c3.3,0,5.9,2.6,5.9,5.9c0,0,0,0,0,0
	V255.7z"/>
<ellipse class="st4" cx="673.1" cy="258.1" rx="3" ry="4.7"/>
<rect x="34.4" y="253.8" class="st1" width="180.8" height="157.9"/>
<polygon class="st0" points="137.8,291.9 99,291.1 99,237.3 137.8,241.3 "/>
<path class="st0" d="M173.2,411.7H89.6c0.5-3,1.5-6,2.8-8.8c2.4-4.4,5.3-13.8,7.7-22.2c1.4-4.9,2.5-9.4,3.3-12.3
	c0.5-2.1,0.9-3.4,0.9-3.4l41.1-16.6c0,0,1.2,2.1,3,5.6c0,0.1,0.1,0.1,0.1,0.2c1.3,2.5,3,5.7,4.8,9.4h0
	C160,377,169.2,396.7,173.2,411.7z"/>
<path class="st2" d="M107,268.9l-5.5,27.7l19,1.6c0,0,3.2-24.5,4-25.3S107,268.9,107,268.9z"/>
<circle class="st2" cx="119.2" cy="259.1" r="19"/>
<path class="st5" d="M101.4,288.7c0,0,18.2,4,19,3.2s22.1,3.2,23.7,10.3s-2.4,34.8-2.4,34.8s8.7,4,7.9,5.5s4.7,3.2,3.2,5.5
	s-30,43.5-43.5,42.7s-37.9-90.1-37.9-90.1s0.8-11.1,11.1-11.1S101.4,288.7,101.4,288.7z"/>
<path class="st2" d="M153.2,352.3c0,0-11.1,2.5-9.1,7.6s13.8,3.5,13.8,3.5L153.2,352.3z"/>
<path class="st5" d="M118.6,411.7H89.6c-0.1,0.5-0.2,0.9-0.3,1.4c-1.4-0.6-2.8-1-4.3-1.4c-0.3-0.1-0.5-0.1-0.5-0.1
	s-6.3-23.7-15-52.9c-7.7-25.9,0.1-52.5,2-58.2v0c0.2-0.7,0.4-1.1,0.4-1.1l7.1-5.5l24.4,74.5l6.4,19.5c0,0,0.2,1.1,0.5,2.8
	c1,5,3.4,15.2,5.8,17C117.2,408.8,118.1,410.1,118.6,411.7z"/>
<path class="st5" d="M133.4,299.4l9.9,1l22.5,28.2c0,0,8.7,7.9,3.2,11.1s-7.9,9.5-7.9,9.5s7.1,15.8-3.2,18.2c0,0-7.1-15.8-9.5-17.4
	s3.2-7.9,3.2-7.9l-18.2-11.9L133.4,299.4z"/>
<path class="st0" d="M119.2,228.2c0,0-22.1-4-26.1,15.8c-0.9,4.6-1.6,9.2-1.9,13.9c-0.6,11.4-3.8,22.6-9.2,32.7l0,0l35.6,10.3
	c0,0-9.5-15-7.9-21.3c0.3-1.6,0.3-3.2-0.1-4.8c-8.9-5.5-11.7-17.2-6.2-26.1s17.2-11.7,26.1-6.2c8.9,5.5,11.7,17.2,6.2,26.1
	c-2.4,3.9-6.1,6.8-10.5,8.2c-2.6,5.8-4.1,12-0.5,16.3c4.5,5.5,9.8,10.3,15.8,14.2c0,0-4-19,2.4-30S142.9,229.8,119.2,228.2z"/>
<polygon class="st0" points="138.9,253.6 101.8,255.8 100.8,238.4 133,237.2 "/>
</svg>
