<?xml version="1.0" encoding="utf-8"?>
<!-- Generator: Adobe Illustrator 22.1.0, SVG Export Plug-In . SVG Version: 6.00 Build 0)  -->
<svg version="1.1" id="fad6bd40-d7a1-475a-8cb8-f1a0445f95b8"
	 xmlns="http://www.w3.org/2000/svg" xmlns:xlink="http://www.w3.org/1999/xlink" x="0px" y="0px" viewBox="0 0 782.1 524.3"
	 style="enable-background:new 0 0 782.1 524.3;" xml:space="preserve">
<style type="text/css">
	.st0{fill:#2F2E41;}
	.st1{fill:#E6E6E6;}
	.st2{fill:#FFFFFF;}
	.st3{fill:#FF6584;}
	.st4{fill:#3F3D56;}
	.st5{fill:#6FA5E2;}
	.st6{opacity:0.2;enable-background:new    ;}
	.st7{fill:#CCCCCC;}
	.st8{fill:#F2F2F2;}
</style>
<g>
	<path class="st0" d="M100,125.9v9.9H79.4v10.7h15.4v9.6H79.4v20.4H67.1v-50.5H100z"/>
	<path class="st0" d="M106.4,145.4c1.6-3.1,3.7-5.5,6.4-7.2c2.7-1.7,5.7-2.5,9-2.5c2.8,0,5.3,0.6,7.5,1.7c2.1,1.2,3.8,2.7,4.9,4.5
		v-5.7h12.3v40.2h-12.3v-5.7c-1.2,1.9-2.9,3.4-5,4.5c-2.1,1.2-4.6,1.7-7.5,1.7c-3.3,0-6.2-0.9-8.9-2.6c-2.7-1.7-4.8-4.1-6.4-7.3
		c-1.6-3.1-2.3-6.8-2.3-10.9C104,152.1,104.8,148.5,106.4,145.4z M131.6,149.1c-1.7-1.8-3.8-2.7-6.2-2.7c-2.4,0-4.5,0.9-6.2,2.6
		c-1.7,1.8-2.6,4.2-2.6,7.2c0,3.1,0.9,5.5,2.6,7.3c1.7,1.8,3.8,2.7,6.2,2.7c2.4,0,4.5-0.9,6.2-2.7c1.7-1.8,2.6-4.2,2.6-7.3
		C134.1,153.3,133.3,150.9,131.6,149.1z"/>
	<path class="st0" d="M173.4,164.9l8.7-28.7h13.1L181,176.4h-15.2l-14.3-40.2h13.2L173.4,164.9z"/>
	<path class="st0" d="M208.1,174.5c-3.1-1.7-5.6-4.1-7.4-7.2c-1.8-3.1-2.7-6.8-2.7-10.9c0-4.1,0.9-7.8,2.7-10.9
		c1.8-3.1,4.3-5.6,7.5-7.2c3.2-1.7,6.7-2.5,10.7-2.5c3.9,0,7.5,0.8,10.7,2.5c3.2,1.7,5.7,4.1,7.5,7.2c1.8,3.1,2.7,6.8,2.7,10.9
		c0,4.1-0.9,7.8-2.8,10.9c-1.8,3.1-4.4,5.6-7.6,7.2c-3.2,1.7-6.8,2.5-10.7,2.5C214.8,177,211.2,176.2,208.1,174.5z M224.7,163.8
		c1.7-1.7,2.5-4.2,2.5-7.4c0-3.2-0.8-5.7-2.4-7.4c-1.6-1.7-3.6-2.6-5.9-2.6c-2.4,0-4.4,0.9-6,2.6c-1.6,1.7-2.4,4.2-2.4,7.5
		c0,3.2,0.8,5.7,2.3,7.4c1.6,1.7,3.5,2.6,5.9,2.6C221.1,166.4,223.1,165.5,224.7,163.8z"/>
	<path class="st0" d="M286,136.3v40.2h-12.3V171c-1.2,1.8-2.9,3.2-5.1,4.3c-2.1,1.1-4.5,1.6-7.1,1.6c-3.1,0-5.8-0.7-8.1-2.1
		c-2.4-1.4-4.2-3.3-5.5-5.9c-1.3-2.6-1.9-5.6-1.9-9.1v-23.5h12.2v21.8c0,2.7,0.7,4.8,2.1,6.3c1.4,1.5,3.3,2.2,5.6,2.2
		c2.4,0,4.3-0.7,5.7-2.2c1.4-1.5,2.1-3.6,2.1-6.3v-21.8H286z"/>
	<path class="st0" d="M312.5,137.7c2.2-1.3,4.6-1.9,7.2-1.9v13h-3.4c-3.1,0-5.4,0.7-6.9,2c-1.5,1.3-2.3,3.6-2.3,6.9v18.6h-12.3
		v-40.2h12.3v6.7C308.6,140.7,310.4,139,312.5,137.7z"/>
	<path class="st0" d="M326.5,130.2c-1.4-1.3-2.1-2.8-2.1-4.7c0-1.9,0.7-3.5,2.1-4.8c1.4-1.3,3.1-1.9,5.3-1.9c2.1,0,3.9,0.6,5.2,1.9
		c1.4,1.3,2.1,2.9,2.1,4.8c0,1.9-0.7,3.4-2.1,4.7c-1.4,1.3-3.1,1.9-5.2,1.9C329.7,132.1,327.9,131.4,326.5,130.2z M337.9,136.3v40.2
		h-12.3v-40.2H337.9z"/>
	<path class="st0" d="M369.3,166v10.4H363c-4.5,0-7.9-1.1-10.4-3.3c-2.5-2.2-3.7-5.7-3.7-10.7v-16h-4.9v-10.2h4.9v-9.8h12.3v9.8h8.1
		v10.2h-8.1v16.1c0,1.2,0.3,2.1,0.9,2.6c0.6,0.5,1.5,0.8,2.9,0.8H369.3z"/>
	<path class="st0" d="M413.8,159.3h-27.9c0.2,2.5,1,4.4,2.4,5.7c1.4,1.3,3.2,2,5.2,2c3.1,0,5.2-1.3,6.4-3.9H413
		c-0.7,2.6-1.9,5-3.6,7.1c-1.8,2.1-3.9,3.8-6.6,5c-2.6,1.2-5.6,1.8-8.9,1.8c-3.9,0-7.4-0.8-10.5-2.5c-3.1-1.7-5.5-4.1-7.2-7.2
		c-1.7-3.1-2.6-6.8-2.6-10.9c0-4.2,0.9-7.8,2.6-10.9c1.7-3.1,4.1-5.5,7.2-7.2c3.1-1.7,6.6-2.5,10.6-2.5c3.9,0,7.3,0.8,10.4,2.4
		c3,1.6,5.4,4,7.1,7c1.7,3,2.6,6.6,2.6,10.6C414,156.9,413.9,158.1,413.8,159.3z M401.4,152.5c0-2.1-0.7-3.8-2.2-5
		c-1.4-1.2-3.2-1.9-5.4-1.9c-2.1,0-3.8,0.6-5.2,1.8c-1.4,1.2-2.3,2.9-2.6,5.1H401.4z"/>
	<path class="st0" d="M468.6,129.1c4,2.1,7.1,5.1,9.3,8.9c2.2,3.8,3.3,8.2,3.3,13.2c0,4.9-1.1,9.3-3.3,13.2
		c-2.2,3.8-5.3,6.8-9.3,8.9c-4,2.1-8.7,3.2-13.9,3.2h-18.9v-50.5h18.9C460,125.9,464.6,126.9,468.6,129.1z M464.7,162
		c2.6-2.5,3.9-6.1,3.9-10.8c0-4.7-1.3-8.3-3.9-10.9c-2.6-2.6-6.2-3.9-10.9-3.9H448v29.4h5.8C458.5,165.8,462.1,164.5,464.7,162z"/>
	<path class="st0" d="M525.7,159.3h-27.9c0.2,2.5,1,4.4,2.4,5.7c1.4,1.3,3.2,2,5.2,2c3.1,0,5.2-1.3,6.4-3.9H525
		c-0.7,2.6-1.9,5-3.6,7.1c-1.8,2.1-3.9,3.8-6.6,5c-2.6,1.2-5.6,1.8-8.9,1.8c-3.9,0-7.4-0.8-10.5-2.5c-3.1-1.7-5.5-4.1-7.2-7.2
		c-1.7-3.1-2.6-6.8-2.6-10.9c0-4.2,0.9-7.8,2.6-10.9c1.7-3.1,4.1-5.5,7.2-7.2c3.1-1.7,6.6-2.5,10.6-2.5c3.9,0,7.3,0.8,10.4,2.4
		c3,1.6,5.4,4,7.1,7c1.7,3,2.6,6.6,2.6,10.6C525.9,156.9,525.9,158.1,525.7,159.3z M513.3,152.5c0-2.1-0.7-3.8-2.2-5
		c-1.4-1.2-3.2-1.9-5.4-1.9c-2.1,0-3.8,0.6-5.2,1.8c-1.4,1.2-2.3,2.9-2.6,5.1H513.3z"/>
	<path class="st0" d="M539.4,175.2c-2.7-1.2-4.9-2.8-6.5-4.9c-1.6-2.1-2.5-4.4-2.7-7h12.2c0.1,1.4,0.8,2.5,1.9,3.4s2.6,1.3,4.2,1.3
		c1.5,0,2.7-0.3,3.6-0.9c0.8-0.6,1.3-1.4,1.3-2.3c0-1.2-0.6-2-1.8-2.6c-1.2-0.6-3.1-1.2-5.8-1.8c-2.9-0.7-5.3-1.4-7.2-2.1
		c-1.9-0.7-3.6-1.9-5-3.5c-1.4-1.6-2.1-3.8-2.1-6.5c0-2.3,0.6-4.4,1.9-6.3c1.3-1.9,3.1-3.4,5.6-4.5c2.5-1.1,5.4-1.7,8.8-1.7
		c5,0,9,1.2,11.9,3.7c2.9,2.5,4.6,5.8,5,9.9h-11.4c-0.2-1.4-0.8-2.5-1.8-3.3c-1-0.8-2.4-1.2-4.1-1.2c-1.4,0-2.5,0.3-3.3,0.8
		c-0.8,0.6-1.2,1.3-1.2,2.3c0,1.2,0.6,2,1.8,2.6c1.2,0.6,3.1,1.2,5.7,1.7c3,0.8,5.4,1.5,7.3,2.3c1.9,0.7,3.5,1.9,4.9,3.6
		c1.4,1.7,2.1,3.9,2.2,6.7c0,2.4-0.7,4.5-2,6.3c-1.3,1.8-3.2,3.3-5.7,4.4c-2.5,1.1-5.3,1.6-8.6,1.6
		C545.3,177,542.1,176.4,539.4,175.2z"/>
	<path class="st0" d="M573.5,130.2c-1.4-1.3-2.1-2.8-2.1-4.7c0-1.9,0.7-3.5,2.1-4.8c1.4-1.3,3.1-1.9,5.3-1.9c2.1,0,3.9,0.6,5.2,1.9
		c1.4,1.3,2.1,2.9,2.1,4.8c0,1.9-0.7,3.4-2.1,4.7c-1.4,1.3-3.1,1.9-5.2,1.9C576.6,132.1,574.9,131.4,573.5,130.2z M584.9,136.3v40.2
		h-12.3v-40.2H584.9z"/>
	<path class="st0" d="M616.6,137.4c2.1,1.2,3.8,2.7,4.9,4.5v-5.7h12.3v40.1c0,3.7-0.7,7-2.2,10c-1.5,3-3.7,5.4-6.7,7.2
		c-3,1.8-6.7,2.7-11.2,2.7c-6,0-10.8-1.4-14.5-4.2c-3.7-2.8-5.8-6.6-6.3-11.4h12.2c0.4,1.5,1.3,2.7,2.7,3.6c1.4,0.9,3.2,1.3,5.3,1.3
		c2.5,0,4.6-0.7,6.1-2.2c1.5-1.5,2.3-3.8,2.3-7v-5.7c-1.2,1.9-2.9,3.4-5,4.6c-2.1,1.2-4.6,1.8-7.4,1.8c-3.3,0-6.3-0.9-9-2.6
		c-2.7-1.7-4.8-4.1-6.4-7.3c-1.6-3.1-2.3-6.8-2.3-10.9c0-4.1,0.8-7.8,2.3-10.9c1.6-3.1,3.7-5.5,6.4-7.2c2.7-1.7,5.7-2.5,9-2.5
		C611.9,135.7,614.4,136.3,616.6,137.4z M618.9,149.1c-1.7-1.8-3.8-2.7-6.2-2.7s-4.5,0.9-6.2,2.6c-1.7,1.8-2.6,4.2-2.6,7.2
		c0,3.1,0.9,5.5,2.6,7.3c1.7,1.8,3.8,2.7,6.2,2.7s4.5-0.9,6.2-2.7c1.7-1.8,2.6-4.2,2.6-7.3C621.5,153.3,620.6,150.9,618.9,149.1z"/>
	<path class="st0" d="M678.5,140.4c2.8,3,4.2,7.2,4.2,12.6v23.5h-12.2v-21.8c0-2.7-0.7-4.8-2.1-6.3c-1.4-1.5-3.3-2.2-5.6-2.2
		c-2.4,0-4.2,0.7-5.6,2.2c-1.4,1.5-2.1,3.6-2.1,6.3v21.8h-12.3v-40.2H655v5.3c1.2-1.8,2.9-3.2,5-4.2c2.1-1,4.5-1.5,7.1-1.5
		C671.9,135.8,675.7,137.4,678.5,140.4z"/>
	<path class="st0" d="M698.2,175.2c-2.7-1.2-4.9-2.8-6.5-4.9c-1.6-2.1-2.5-4.4-2.7-7h12.2c0.1,1.4,0.8,2.5,1.9,3.4s2.6,1.3,4.2,1.3
		c1.5,0,2.7-0.3,3.6-0.9c0.8-0.6,1.3-1.4,1.3-2.3c0-1.2-0.6-2-1.8-2.6c-1.2-0.6-3.1-1.2-5.8-1.8c-2.9-0.7-5.3-1.4-7.2-2.1
		c-1.9-0.7-3.6-1.9-5-3.5c-1.4-1.6-2.1-3.8-2.1-6.5c0-2.3,0.6-4.4,1.9-6.3c1.3-1.9,3.1-3.4,5.6-4.5c2.5-1.1,5.4-1.7,8.8-1.7
		c5,0,9,1.2,11.9,3.7c2.9,2.5,4.6,5.8,5,9.9h-11.4c-0.2-1.4-0.8-2.5-1.8-3.3c-1-0.8-2.4-1.2-4.1-1.2c-1.4,0-2.5,0.3-3.3,0.8
		c-0.8,0.6-1.2,1.3-1.2,2.3c0,1.2,0.6,2,1.8,2.6c1.2,0.6,3.1,1.2,5.7,1.7c3,0.8,5.4,1.5,7.3,2.3c1.9,0.7,3.5,1.9,4.9,3.6
		c1.4,1.7,2.1,3.9,2.2,6.7c0,2.4-0.7,4.5-2,6.3c-1.3,1.8-3.2,3.3-5.7,4.4c-2.5,1.1-5.3,1.6-8.6,1.6C704.1,177,701,176.4,698.2,175.2
		z"/>
</g>
<path class="st1" d="M553.5,274.9c-1,0.2-1.6,1.1-1.4,2.1l23.2,120.1c0.2,1,1.1,1.6,2.1,1.4l167.3-32.3c1-0.2,1.6-1.1,1.4-2.1
	L722.9,244c-0.2-1-1.1-1.6-2.1-1.4L553.5,274.9z"/>
<path class="st2" d="M713.7,255.1l16.5,85.3c0.2,1.2-0.5,2.3-1.7,2.6l-144.9,28c-0.1,0-0.2,0-0.3,0c-1.1,0.1-2-0.7-2.3-1.8
	l-16.5-85.3c-0.2-1.2,0.5-2.3,1.7-2.6l144.9-28C712.3,253.2,713.4,253.9,713.7,255.1z"/>
<circle class="st3" cx="689.3" cy="290" r="7.9"/>
<circle class="st4" cx="557.6" cy="278.6" r="2.6"/>
<ellipse transform="matrix(0.9818 -0.1897 0.1897 0.9818 -33.935 140.7439)" class="st4" cx="718.1" cy="247.6" rx="2.6" ry="2.6"/>
<circle class="st4" cx="579.8" cy="393.5" r="2.6"/>
<ellipse transform="matrix(0.9818 -0.1897 0.1897 0.9818 -55.3416 147.0469)" class="st4" cx="740.3" cy="362.5" rx="2.6" ry="2.6"/>
<ellipse transform="matrix(0.9818 -0.1897 0.1897 0.9818 -50.3771 123.9159)" class="st5" cx="622" cy="325" rx="9.5" ry="9.5"/>
<polygon class="st4" points="628.3,353 626.4,353.4 621.5,323.7 "/>
<polygon class="st4" points="622.8,329.2 624.3,326 622.9,329.9 622.6,329.6 "/>
<polygon class="st4" points="623.1,332.1 620.5,329.7 623.3,332.8 623.4,332.4 "/>
<ellipse transform="matrix(0.9818 -0.1897 0.1897 0.9818 -45.6806 139.8667)" class="st5" cx="707.6" cy="308.5" rx="9.5" ry="9.5"/>
<polygon class="st4" points="713.9,336.4 712,336.8 707.2,307.1 "/>
<polygon class="st4" points="708.4,312.7 709.9,309.4 708.6,313.4 708.2,313 "/>
<polygon class="st4" points="708.8,315.6 706.2,313.2 708.9,316.3 709.1,315.9 "/>
<ellipse transform="matrix(0.9818 -0.1897 0.1897 0.9818 -47.3771 128.5064)" class="st5" cx="647.4" cy="311.7" rx="14" ry="14"/>
<polygon class="st4" points="656.8,353 654,353.5 646.8,309.6 "/>
<polygon class="st4" points="648.7,317.9 650.9,313.1 648.8,318.9 648.4,318.4 "/>
<polygon class="st4" points="649.2,322.2 645.3,318.5 649.4,323.2 649.6,322.5 "/>
<ellipse transform="matrix(0.9818 -0.1897 0.1897 0.9818 -44.5521 134.4805)" class="st5" cx="680" cy="299.9" rx="14" ry="14"/>
<polygon class="st4" points="689.4,341.2 686.6,341.7 679.4,297.9 "/>
<polygon class="st4" points="681.3,306.1 683.5,301.3 681.4,307.1 681,306.6 "/>
<polygon class="st4" points="681.8,310.4 677.9,306.8 682,311.4 682.2,310.8 "/>
<ellipse transform="matrix(0.9818 -0.1897 0.1897 0.9818 -49.3351 118.2361)" class="st5" cx="592.8" cy="316.8" rx="14" ry="14"/>
<polygon class="st4" points="602.2,358 599.3,358.6 592.2,314.7 "/>
<polygon class="st4" points="594.1,322.9 596.3,318.2 594.2,324 593.8,323.5 "/>
<polygon class="st4" points="594.5,327.2 590.7,323.6 594.8,328.3 595,327.6 "/>
<path class="st4" d="M657,356.8L583.6,371c-0.1,0-0.2,0-0.3,0c-1.1,0.1-2-0.7-2.3-1.8l-3.5-18.3c6.7-2.5,13.6-4.4,20.6-5.7
	c26.1-5,49.3-1.8,56.7,7.2C655.8,353.6,656.6,355.2,657,356.8z"/>
<path class="st4" d="M729.3,336.3l0.8,4.2c0.2,1.2-0.5,2.3-1.7,2.6l-81.2,15.7c2.2-2.4,4.8-4.5,7.5-6.3c9.1-6.2,22.6-11.6,38.2-14.6
	C706.4,335.2,719.2,334.8,729.3,336.3z"/>
<path class="st1" d="M193.4,218.9c-0.3,0-0.6,0.1-0.8,0.2l-150.4,80c-0.9,0.5-1.2,1.5-0.7,2.4l57.4,108c0.5,0.9,1.5,1.2,2.4,0.7
	l150.4-80c0.9-0.5,1.2-1.5,0.7-2.4l-57.4-108c-0.2-0.4-0.6-0.7-1.1-0.9C193.8,218.9,193.6,218.9,193.4,218.9z"/>
<path class="st2" d="M189.4,233.2l40.8,76.7c0.6,1.1,0.2,2.4-0.9,3c0,0,0,0,0,0L99.1,382.2c-0.1,0.1-0.2,0.1-0.3,0.1
	c-1,0.4-2.2-0.1-2.7-1l-40.8-76.7c-0.6-1.1-0.2-2.4,0.9-3c0,0,0,0,0,0l130.3-69.3C187.5,231.7,188.8,232.1,189.4,233.2
	C189.4,233.2,189.4,233.2,189.4,233.2z"/>
<ellipse transform="matrix(0.1602 -0.9871 0.9871 0.1602 -223.7968 364.5674)" class="st3" cx="102.4" cy="313.8" rx="19.2" ry="19.2"/>
<path class="st4" d="M183.3,337.8L100.1,382c-0.1,0.1-0.2,0.1-0.3,0.1l3.1-89c0-1.7,1.5-3.1,3.2-3c0.6,0,1.1,0.2,1.6,0.5l50.7,31.7
	l2.4,1.5L183.3,337.8z"/>
<polygon class="st6" points="183.3,337.8 154.9,352.9 158.1,325.2 158.3,323.2 158.4,322.2 160.8,323.7 "/>
<path class="st4" d="M229.6,313.1l-71.9,38.3l3.2-27.7l0.2-2l4.1-36c0.3-2.4,3.1-4,5.3-3.2c0.1,0.1,0.3,0.1,0.4,0.2L229.6,313.1z"/>
<circle class="st4" cx="47.1" cy="301.4" r="2.6"/>
<circle class="st4" cx="191.4" cy="224.7" r="2.6"/>
<circle class="st4" cx="102.1" cy="404.8" r="2.6"/>
<circle class="st4" cx="246.4" cy="328.1" r="2.6"/>
<path class="st1" d="M468.5,410.8c1,0.3,1.9-0.3,2.2-1.3l31.4-118.2c0.3-1-0.3-1.9-1.3-2.2l-164.7-43.8c-1-0.3-1.9,0.3-2.2,1.3
	l-31.4,118.2c-0.3,1,0.3,1.9,1.3,2.2c0,0,0,0,0,0L468.5,410.8z"/>
<path class="st2" d="M489,297.3l-22.3,84c-0.3,1.2-1.5,1.9-2.7,1.6l-142.6-37.9c-0.1,0-0.2-0.1-0.3-0.1c-1-0.4-1.5-1.5-1.3-2.6
	l22.3-84c0.3-1.2,1.5-1.9,2.7-1.6l142.6,37.9C488.6,294.9,489.3,296.1,489,297.3z"/>
<path class="st4" d="M469.8,369.4l-3.2,11.9c-0.3,1.2-1.5,1.9-2.7,1.6l-142.6-37.9c-0.1,0-0.2-0.1-0.3-0.1c-1-0.4-1.5-1.5-1.3-2.6
	l3.2-11.9L469.8,369.4z"/>
<rect x="393.8" y="346.8" transform="matrix(0.2571 -0.9664 0.9664 0.2571 -52.9377 648.1782)" class="st7" width="2.7" height="23.5"/>
<rect x="341.6" y="332.9" transform="matrix(0.2571 -0.9664 0.9664 0.2571 -78.2857 587.4482)" class="st7" width="2.7" height="23.5"/>
<rect x="445.9" y="360.7" transform="matrix(0.2571 -0.9664 0.9664 0.2571 -27.5896 708.908)" class="st7" width="2.7" height="23.5"/>
<circle class="st4" cx="338.3" cy="250.4" r="2.6"/>
<circle class="st4" cx="496.2" cy="292.5" r="2.6"/>
<circle class="st4" cx="308.2" cy="363.6" r="2.6"/>
<circle class="st4" cx="466.1" cy="405.6" r="2.6"/>
<rect x="440.3" y="358.1" transform="matrix(0.2576 -0.9663 0.9663 0.2576 -24.6761 697.0891)" class="st4" width="2.1" height="13"/>
<path class="st5" d="M344,338.1l2.4,1.3l98.8,26.4l1.4-1.8c2.5-3.1,4.1-6.9,4.5-10.9c0.3-3,0-6.1-2.1-8l3.4-30.4L397.9,300
	l-25.7,11.4c0,0-9.9-2.8-17.2,2.5c-2.6,2-4.6,4.7-5.6,7.8l-1.1,3.5L344,338.1z"/>
<circle class="st4" cx="365.8" cy="343.4" r="12.6"/>
<circle class="st7" cx="365.8" cy="343.4" r="6.6"/>
<circle class="st4" cx="426.1" cy="359.5" r="12.6"/>
<circle class="st7" cx="426.1" cy="359.5" r="6.6"/>
<polygon class="st2" points="381.1,311.7 410.7,319.6 414.3,320.5 420.4,322.2 420.5,321.7 421.9,316.4 423.5,310.4 419.5,309.3 
	415.9,308.3 409.5,306.6 405.9,305.6 398.5,303.7 "/>
<polygon class="st2" points="425.2,323.4 440.8,327.6 441.6,324.5 443,319.2 443.9,315.8 441.6,315.2 438,314.2 428.3,311.6 "/>
<rect x="414.5" y="331.6" transform="matrix(0.2576 -0.9663 0.9663 0.2576 -12.1573 649.3719)" class="st4" width="3.9" height="2.1"/>
<rect x="385" y="315.8" transform="matrix(0.2576 -0.9663 0.9663 0.2576 -20.3878 608.9263)" class="st4" width="2.1" height="3.9"/>
<path class="st4" d="M386.6,317.7l-0.2-0.1c-2.3-0.6-3.7-3-3.1-5.3l0,0c0.6-2.3,3-3.7,5.3-3.1l0.2,0.1l0,0L386.6,317.7L386.6,317.7z
	"/>
<path class="st4" d="M348.3,325.2c3.4,1.3,7.3-0.4,8.6-3.8c1-2.6,0.3-5.6-1.9-7.5c-2.6,2-4.6,4.7-5.6,7.8L348.3,325.2z"/>
<polygon class="st8" points="415.9,308.3 420.5,321.7 421.9,316.4 419.5,309.3 "/>
<polygon class="st8" points="438,314.2 441.6,324.5 443,319.2 441.6,315.2 "/>
<polygon class="st8" points="405.9,305.6 410.7,319.6 414.3,320.5 409.5,306.6 "/>
</svg>
