<?xml version="1.0" encoding="utf-8"?>
<!-- Generator: Adobe Illustrator 22.1.0, SVG Export Plug-In . SVG Version: 6.00 Build 0)  -->
<svg version="1.1" id="_x37_dd09a4d-2b74-438e-986e-0efea9b9300a"
	 xmlns="http://www.w3.org/2000/svg" xmlns:xlink="http://www.w3.org/1999/xlink" x="0px" y="0px" viewBox="0 0 734 764.5"
	 style="enable-background:new 0 0 734 764.5;" xml:space="preserve">
<style type="text/css">
	.st0{fill:#6FA5E2;}
	.st1{opacity:0.1;enable-background:new    ;}
	.st2{opacity:0.17;enable-background:new    ;}
	.st3{opacity:5.000000e-02;enable-background:new    ;}
	.st4{fill:#E0E0E0;}
	.st5{fill:#D1AF8B;}
	.st6{opacity:0.5;}
	.st7{fill:url(#SVGID_1_);}
	.st8{opacity:0.6;fill:#3AD29F;enable-background:new    ;}
	.st9{fill:#D2B188;}
	.st10{opacity:7.000000e-02;enable-background:new    ;}
	.st11{fill:url(#SVGID_2_);}
	.st12{fill:url(#SVGID_3_);}
	.st13{fill:#FFFFFF;}
	.st14{fill:#323142;}
</style>
<title>collecting</title>
<polygon class="st0" points="608.9,363.4 368.9,305.5 368.9,758 608.9,695.2 "/>
<polygon class="st1" points="608.2,363.5 368.1,305.6 368.1,758.1 608.2,695.3 "/>
<polygon class="st0" points="128.8,363.4 368.9,305.5 368.9,758 128.8,696.4 "/>
<polygon class="st2" points="130.4,366.1 370.5,308.3 370.5,762.8 130.4,701.2 "/>
<polygon class="st0" points="366.9,307.5 493.3,202.5 733.4,264.1 606.9,365.4 "/>
<polygon class="st0" points="7.7,267.3 130.8,365.4 370.9,307.5 249,204.5 "/>
<polygon class="st3" points="3.7,266.2 129.8,366.2 369.9,308.4 245,203.3 "/>
<path class="st4" d="M204.3,392.1h89.4c0.4,0,0.8,0.4,0.8,0.8v1.3c0,0.4-0.4,0.8-0.8,0.8h-89.4c-0.4,0-0.8-0.4-0.8-0.8v-1.3
	C203.5,392.5,203.8,392.1,204.3,392.1z"/>
<path class="st5" d="M189.6,359.5h102.1c1.5,0,2.8,1.1,2.8,2.6v86.2c0,1.4-1.2,2.6-2.8,2.6H189.6c-1.5,0-2.8-1.1-2.8-2.6v-86.2
	C186.8,360.6,188,359.5,189.6,359.5z"/>
<path class="st4" d="M231.2,421.3h156.2c0.4,0,0.8,0.4,0.8,0.8v1.3c0,0.4-0.4,0.8-0.8,0.8H231.2c-0.4,0-0.8-0.4-0.8-0.8v-1.3
	C230.4,421.7,230.7,421.3,231.2,421.3z"/>
<path class="st4" d="M231.2,430.1h89.4c0.4,0,0.8,0.4,0.8,0.8v1.3c0,0.4-0.4,0.8-0.8,0.8h-89.4c-0.4,0-0.8-0.4-0.8-0.8v-1.3
	C230.4,430.5,230.7,430.1,231.2,430.1z"/>
<g class="st6">
	
		<linearGradient id="SVGID_1_" gradientUnits="userSpaceOnUse" x1="398.5" y1="474.1" x2="398.5" y2="655.5" gradientTransform="matrix(1 0 0 -1 0 968)">
		<stop  offset="0" style="stop-color:#808080;stop-opacity:0.25"/>
		<stop  offset="0.54" style="stop-color:#808080;stop-opacity:0.12"/>
		<stop  offset="1" style="stop-color:#808080;stop-opacity:0.1"/>
	</linearGradient>
	<rect x="321.3" y="312.5" class="st7" width="154.4" height="181.4"/>
</g>
<rect x="326.1" y="315.4" class="st5" width="146.4" height="174.5"/>
<rect x="348" y="428.5" class="st4" width="102.9" height="4.4"/>
<rect x="418.4" y="413.1" class="st8" width="32.5" height="4.4"/>
<rect x="384.1" y="446.4" class="st9" width="32.5" height="4.4"/>
<polygon class="st0" points="128.8,363.4 128.8,696.4 368.9,758 372.1,427.5 "/>
<polygon class="st0" points="608.9,695.2 368.9,758 368.9,427.5 608.9,363.4 "/>
<polygon class="st10" points="607.5,695.2 367.4,758 367.4,427.5 607.5,363.4 "/>
<polygon class="st10" points="513.4,584.6 513.4,693.9 608.9,667.5 608.9,558.2 "/>
<linearGradient id="SVGID_2_" gradientUnits="userSpaceOnUse" x1="518.7" y1="564.4" x2="518.7" y2="632.4" gradientTransform="matrix(1 0 0 -1 0 968)">
	<stop  offset="0" style="stop-color:#808080;stop-opacity:0.25"/>
	<stop  offset="0.54" style="stop-color:#808080;stop-opacity:0.12"/>
	<stop  offset="1" style="stop-color:#808080;stop-opacity:0.1"/>
</linearGradient>
<rect x="483.3" y="335.6" class="st11" width="70.8" height="68"/>
<rect x="484.4" y="337.2" class="st5" width="68.6" height="65"/>
<g class="st6">
	
		<linearGradient id="SVGID_3_" gradientUnits="userSpaceOnUse" x1="507.15" y1="690.4" x2="507.15" y2="783.8" gradientTransform="matrix(1 0 0 -1 0 968)">
		<stop  offset="0" style="stop-color:#808080;stop-opacity:0.25"/>
		<stop  offset="0.54" style="stop-color:#808080;stop-opacity:0.12"/>
		<stop  offset="1" style="stop-color:#808080;stop-opacity:0.1"/>
	</linearGradient>
	<rect x="450.3" y="184.2" class="st12" width="113.7" height="93.4"/>
</g>
<rect x="451.7" y="186" class="st13" width="110.8" height="90.1"/>
<rect x="460.5" y="233.9" class="st4" width="68" height="4"/>
<rect x="460.5" y="240.7" class="st4" width="44.2" height="4"/>
<rect x="460.5" y="247.6" class="st4" width="58.3" height="4"/>
<rect x="460.5" y="254.4" class="st4" width="68" height="4"/>
<rect x="460.5" y="261.3" class="st4" width="22.7" height="4"/>
<polygon class="st1" points="610.8,536.2 476.4,570.1 368.3,482.1 368.3,428.1 608.3,367.8 "/>
<polygon class="st1" points="125.7,536.2 260.2,570.1 368.3,482.1 368.3,428.1 128.2,367.8 "/>
<polygon class="st0" points="128.8,363.4 5.7,465.2 245.7,525.5 368.9,427.5 "/>
<polygon class="st0" points="608.9,363.4 733.4,465.2 494.6,525.5 368.9,427.5 "/>
<polygon class="st10" points="608.9,365.3 733.4,467.1 494.6,527.4 368.9,429.4 "/>
<rect x="451.7" y="186" class="st5" width="110.8" height="90.1"/>
<g>
	<path class="st14" d="M172.4,82.7v12.3h-25.7v13.3h19.3v12h-19.3v25.6h-15.4V82.7H172.4z"/>
	<path class="st14" d="M180.4,107.1c1.9-3.9,4.6-6.9,8-9c3.4-2.1,7.1-3.1,11.3-3.1c3.5,0,6.6,0.7,9.3,2.2c2.7,1.4,4.7,3.3,6.2,5.7
		v-7.1h15.4v50.2h-15.4v-7.1c-1.5,2.3-3.6,4.2-6.3,5.7c-2.7,1.4-5.8,2.2-9.3,2.2c-4.1,0-7.8-1.1-11.2-3.2c-3.4-2.1-6-5.2-8-9.1
		c-2-3.9-2.9-8.5-2.9-13.6C177.4,115.5,178.4,111,180.4,107.1z M211.9,111.7c-2.1-2.2-4.7-3.3-7.8-3.3s-5.7,1.1-7.8,3.3
		c-2.1,2.2-3.2,5.2-3.2,9c0,3.8,1.1,6.9,3.2,9.1c2.1,2.3,4.7,3.4,7.8,3.4s5.7-1.1,7.8-3.3c2.1-2.2,3.2-5.2,3.2-9.1
		C215.1,117,214,113.9,211.9,111.7z"/>
	<path class="st14" d="M264.2,131.5l10.9-35.8h16.4l-17.8,50.2h-19l-17.8-50.2h16.5L264.2,131.5z"/>
	<path class="st14" d="M307.5,143.5c-3.9-2.1-7-5.1-9.3-9c-2.3-3.9-3.4-8.5-3.4-13.7c0-5.2,1.1-9.7,3.4-13.6c2.3-3.9,5.4-6.9,9.4-9
		c4-2.1,8.4-3.1,13.3-3.1c4.9,0,9.4,1.1,13.3,3.1c4,2.1,7.1,5.1,9.4,9c2.3,3.9,3.4,8.5,3.4,13.6c0,5.2-1.2,9.7-3.5,13.6
		c-2.3,3.9-5.5,6.9-9.4,9c-4,2.1-8.4,3.2-13.4,3.2C315.9,146.6,311.5,145.6,307.5,143.5z M328.3,130.1c2.1-2.2,3.1-5.2,3.1-9.3
		c0-4-1-7.1-3-9.3c-2-2.2-4.5-3.2-7.4-3.2c-3,0-5.5,1.1-7.5,3.2c-2,2.1-3,5.2-3,9.3c0,4,1,7.1,2.9,9.3c1.9,2.2,4.4,3.2,7.3,3.2
		C323.8,133.3,326.3,132.2,328.3,130.1z"/>
	<path class="st14" d="M404.9,95.7v50.2h-15.4v-6.8c-1.6,2.2-3.7,4-6.3,5.4c-2.7,1.4-5.6,2-8.9,2c-3.8,0-7.2-0.9-10.2-2.6
		c-2.9-1.7-5.2-4.2-6.8-7.4c-1.6-3.2-2.4-7-2.4-11.4V95.7h15.3V123c0,3.4,0.9,6,2.6,7.8c1.7,1.9,4.1,2.8,7,2.8c3,0,5.4-0.9,7.1-2.8
		c1.7-1.9,2.6-4.5,2.6-7.8V95.7H404.9z"/>
	<path class="st14" d="M438.1,97.5c2.7-1.6,5.7-2.4,9-2.4v16.3h-4.2c-3.8,0-6.7,0.8-8.6,2.5c-1.9,1.7-2.9,4.5-2.9,8.7v23.3h-15.4
		V95.7h15.4v8.4C433.1,101.3,435.4,99.1,438.1,97.5z"/>
	<path class="st14" d="M455.6,88.1c-1.7-1.6-2.6-3.6-2.6-5.9c0-2.4,0.9-4.4,2.6-6c1.7-1.6,3.9-2.4,6.6-2.4c2.6,0,4.8,0.8,6.5,2.4
		c1.7,1.6,2.6,3.6,2.6,6c0,2.3-0.9,4.3-2.6,5.9c-1.7,1.6-3.9,2.4-6.5,2.4C459.5,90.5,457.3,89.7,455.6,88.1z M469.9,95.7v50.2h-15.4
		V95.7H469.9z"/>
	<path class="st14" d="M509,132.9v13h-7.8c-5.6,0-9.9-1.4-13-4.1c-3.1-2.7-4.7-7.2-4.7-13.4v-20h-6.1V95.7h6.1V83.4h15.4v12.2h10.1
		v12.8h-10.1v20.2c0,1.5,0.4,2.6,1.1,3.2c0.7,0.7,1.9,1,3.6,1H509z"/>
	<path class="st14" d="M564.6,124.5h-34.8c0.2,3.1,1.2,5.5,3,7.2c1.8,1.7,3.9,2.5,6.5,2.5c3.8,0,6.5-1.6,8-4.9h16.4
		c-0.8,3.3-2.4,6.3-4.5,8.9c-2.2,2.6-4.9,4.7-8.2,6.2c-3.3,1.5-7,2.3-11.1,2.3c-4.9,0-9.3-1-13.1-3.2c-3.8-2.1-6.8-5.1-9-9
		c-2.2-3.9-3.2-8.5-3.2-13.7c0-5.2,1.1-9.8,3.2-13.7c2.1-3.9,5.1-6.9,9-9c3.8-2.1,8.2-3.1,13.2-3.1c4.9,0,9.2,1,13,3.1
		c3.8,2,6.7,4.9,8.9,8.7c2.1,3.8,3.2,8.2,3.2,13.2C564.9,121.4,564.8,122.9,564.6,124.5z M549.1,115.9c0-2.6-0.9-4.7-2.7-6.3
		c-1.8-1.6-4-2.3-6.8-2.3c-2.6,0-4.8,0.8-6.5,2.3c-1.8,1.5-2.9,3.6-3.3,6.4H549.1z"/>
	<path class="st14" d="M581.7,144.4c-3.4-1.5-6.1-3.6-8.1-6.2c-2-2.6-3.1-5.5-3.3-8.8h15.2c0.2,1.7,1,3.2,2.4,4.2
		c1.4,1.1,3.2,1.6,5.3,1.6c1.9,0,3.4-0.4,4.5-1.1c1-0.7,1.6-1.7,1.6-2.9c0-1.4-0.8-2.5-2.3-3.2c-1.5-0.7-3.9-1.5-7.3-2.3
		c-3.6-0.8-6.6-1.7-9-2.7c-2.4-0.9-4.5-2.4-6.2-4.4c-1.7-2-2.6-4.7-2.6-8.1c0-2.9,0.8-5.5,2.4-7.9c1.6-2.4,3.9-4.2,7-5.6
		c3.1-1.4,6.8-2.1,11-2.1c6.3,0,11.3,1.6,14.9,4.7c3.6,3.1,5.7,7.3,6.3,12.4h-14.2c-0.2-1.7-1-3.1-2.3-4.1c-1.3-1-3-1.5-5.1-1.5
		c-1.8,0-3.2,0.3-4.1,1c-1,0.7-1.4,1.6-1.4,2.8c0,1.4,0.8,2.5,2.3,3.2c1.5,0.7,3.9,1.4,7.2,2.2c3.7,1,6.8,1.9,9.1,2.8
		c2.3,0.9,4.4,2.4,6.2,4.5c1.8,2.1,2.7,4.8,2.7,8.3c0,2.9-0.8,5.6-2.5,7.9c-1.7,2.3-4,4.1-7.1,5.4c-3.1,1.3-6.7,2-10.8,2
		C589,146.6,585.1,145.9,581.7,144.4z"/>
</g>
</svg>
