<?xml version="1.0" encoding="utf-8"?>
<!-- Generator: Adobe Illustrator 22.1.0, SVG Export Plug-In . SVG Version: 6.00 Build 0)  -->
<svg version="1.1" id="Layer_1" xmlns="http://www.w3.org/2000/svg" xmlns:xlink="http://www.w3.org/1999/xlink" x="0px" y="0px"
	 viewBox="0 0 400 76" style="enable-background:new 0 0 400 76;" xml:space="preserve">
<style type="text/css">
	.st0{fill:#484848;}
	.st1{fill:#CCA781;}
	.st2{fill:#494949;}
</style>
<path class="st0" d="M86.5,32.4c-1.4,2.5-3.6,4.6-6.2,5.9c-3.2,1.6-6.8,2.3-10.4,2.2h-7.7v18.1H50V8.1h19.9c3.5-0.1,7,0.6,10.2,2.1
	c2.6,1.2,4.8,3.2,6.3,5.8c1.4,2.6,2.2,5.5,2.1,8.4C88.6,27.2,87.9,30,86.5,32.4z M74.3,29.1c1.2-1.2,1.8-2.9,1.7-4.7
	c0.1-1.7-0.5-3.4-1.7-4.7c-1.5-1.2-3.4-1.8-5.3-1.6h-6.7v12.7H69C71.4,30.7,73.1,30.2,74.3,29.1z"/>
<path class="st0" d="M161.1,19.7c2.3-1.2,4.9-1.8,7.4-1.7c3.2,0,6.3,0.8,9,2.5c2.8,1.8,5,4.2,6.4,7.2c1.6,3.4,2.4,7.1,2.3,10.9
	c0.1,3.8-0.7,7.5-2.3,10.9c-1.4,3-3.6,5.5-6.4,7.3c-2.7,1.7-5.8,2.6-9,2.6c-2.6,0-5.1-0.5-7.4-1.7c-2-1-3.7-2.6-5-4.5v24.8h-12.3
	V18.5h12.3v5.7C157.4,22.3,159.1,20.7,161.1,19.7z M171.1,31.3c-3.4-3.5-8.9-3.5-12.4-0.2c-0.1,0.1-0.1,0.1-0.2,0.2
	c-1.8,2-2.7,4.6-2.6,7.3c-0.1,2.7,0.8,5.3,2.6,7.3c3.3,3.5,8.7,3.6,12.2,0.3c0.1-0.1,0.2-0.2,0.3-0.3c1.8-2,2.7-4.6,2.6-7.3
	C173.8,35.9,172.9,33.3,171.1,31.3L171.1,31.3z"/>
<path class="st0" d="M230.4,41.5h-27.8c0,2.1,0.9,4.2,2.4,5.7c1.4,1.3,3.3,2,5.2,2c2.7,0.2,5.3-1.4,6.4-3.9h13.1
	c-0.7,2.6-1.9,5.1-3.6,7.1c-1.8,2.1-4,3.9-6.6,5c-2.8,1.2-5.8,1.8-8.9,1.8c-3.7,0.1-7.3-0.8-10.5-2.5c-3-1.7-5.5-4.2-7.2-7.2
	c-1.8-3.4-2.7-7.2-2.6-11c-0.1-3.8,0.8-7.6,2.6-10.9c1.6-3,4.1-5.6,7.2-7.2c6.6-3.3,14.3-3.4,20.9-0.1c3,1.6,5.5,4,7.1,7
	c1.7,3.3,2.6,6.9,2.5,10.6C230.5,39.1,230.5,40.3,230.4,41.5z M218,34.7c0.1-1.9-0.7-3.7-2.2-5c-1.5-1.3-3.4-1.9-5.4-1.9
	c-1.9-0.1-3.8,0.6-5.2,1.8c-1.5,1.3-2.4,3.1-2.7,5.1H218z"/>
<path class="st0" d="M254.8,20c2.2-1.3,4.7-1.9,7.2-1.9v13h-3.4c-3.1,0-5.4,0.7-6.9,2c-1.5,1.3-2.3,3.6-2.3,6.9v18.7h-12.3V18.5
	h12.3v6.7C250.7,23.1,252.6,21.3,254.8,20z"/>
<path class="st1" d="M331.1,22.6c3,3,4.4,7.2,4.4,12.6v23.5h-12.2V36.9c0.1-2.2-0.6-4.4-2-6c-3.2-2.8-8.1-2.8-11.3,0
	c-1.4,1.7-2.1,3.8-2,6v21.8h-12.3V36.9c0.1-2.2-0.6-4.4-2-6c-3.2-2.8-8.1-2.8-11.3,0c-1.5,1.6-2.2,3.8-2.1,6v21.8h-12.3V18.5h12.3v5
	c1.3-1.7,3-3.1,4.9-4c2.1-1,4.5-1.5,6.8-1.4c2.8,0,5.6,0.7,8.1,2c2.4,1.3,4.3,3.2,5.6,5.5c1.4-2.2,3.4-4.1,5.7-5.4
	c2.4-1.4,5.1-2.1,7.8-2.1C324.1,18.1,328.1,19.6,331.1,22.6z"/>
<path class="st1" d="M345,12.4c-1.3-1.2-2.1-2.9-2-4.7c0-1.8,0.7-3.6,2-4.8c1.4-1.3,3.3-2,5.3-1.9c1.9-0.1,3.8,0.6,5.2,1.9
	c1.3,1.2,2.1,3,2,4.8c0,1.8-0.7,3.5-2,4.7c-1.4,1.3-3.3,2-5.2,1.9C348.4,14.4,346.5,13.7,345,12.4z M356.4,18.5v40.2h-12.3V18.5
	H356.4z"/>
<path class="st1" d="M377.7,5.4v53.3h-12.3V5.4H377.7z"/>
<path class="st1" d="M398.9,5.4v53.3h-12.3V5.4H398.9z"/>
<g>
	<path class="st2" d="M137.8,48.6c0.4,1,0,2.1-1,2.6l-21.2,9.7c-0.3,0.1-0.5,0.2-0.8,0.2c-0.2,0-0.4,0-0.6-0.1l-25.1-7.7
		c-1-0.3-1.6-1.4-1.3-2.4c0.3-1,1.4-1.6,2.4-1.3l24.4,7.5l20.6-9.3C136.2,47.2,137.4,47.7,137.8,48.6z M114.7,49.3l-24.4-7.5
		c-1-0.3-2.1,0.3-2.4,1.3c-0.3,1,0.3,2.1,1.3,2.4l25.1,7.7c0.2,0.1,0.4,0.1,0.6,0.1c0.3,0,0.5-0.1,0.8-0.2l21.2-9.7
		c1-0.4,1.4-1.6,1-2.6c-0.4-1-1.6-1.4-2.6-1L114.7,49.3z M87.8,36c0-0.8,0.4-1.6,1.2-1.9l14.1-5.9c2.8-1.2,4.1-2.6,4.1-7.8
		c0-0.6,0.3-1.2,0.7-1.5c0.5-0.4,1.1-0.5,1.7-0.4l25,6.2c0.9,0.2,1.5,1,1.5,1.9v0.3c0,5.7,0,9.5-7,12.4c-4.7,2-13.3,6-13.4,6.1
		c-0.3,0.1-0.5,0.2-0.8,0.2c-0.2,0-0.4,0-0.6-0.1l-25.1-7.7C88.4,37.5,87.8,36.8,87.8,36z M95.4,35.6l19.3,5.9
		c2.1-1,8.8-4.1,12.8-5.8c4.3-1.8,4.6-3.2,4.6-7.7l-21.2-5.2c-0.4,4-1.9,7-6.4,8.9L95.4,35.6z"/>
</g>
</svg>
