<?xml version="1.0" encoding="utf-8"?>
<!-- Generator: Adobe Illustrator 22.1.0, SVG Export Plug-In . SVG Version: 6.00 Build 0)  -->
<svg version="1.1" id="a1bb6ffe-8d83-4899-8fa0-fcb3165ea164"
	 xmlns="http://www.w3.org/2000/svg" xmlns:xlink="http://www.w3.org/1999/xlink" x="0px" y="0px" viewBox="0 0 884.6 628.6"
	 style="enable-background:new 0 0 884.6 628.6;" xml:space="preserve">
<style type="text/css">
	.st0{fill:#E6E6E6;}
	.st1{fill:#FFFFFF;}
	.st2{fill:#D6AC8A;}
	.st3{fill:#7F77FF;}
	.st4{fill:#6FA5E2;}
	.st5{fill:#3F3D56;}
	.st6{fill:#A0616A;}
	.st7{fill:#2F2E41;}
	.st8{fill:#CFCCE0;}
	.st9{opacity:0.2;enable-background:new    ;}
</style>
<title>work_in_progress</title>
<rect x="196.2" y="0.4" class="st0" width="688.4" height="440.9"/>
<rect x="215.9" y="55.7" class="st1" width="649" height="359.5"/>
<rect x="195.9" class="st2" width="688.4" height="29.2"/>
<circle class="st1" cx="217.7" cy="15" r="5.4"/>
<circle class="st1" cx="238.2" cy="15" r="5.4"/>
<ellipse transform="matrix(0.2076 -0.9782 0.9782 0.2076 190.4521 265.0132)" class="st1" cx="258.8" cy="15" rx="5.4" ry="5.4"/>
<path class="st3" d="M584.7,146.2c-0.1,0.4-0.2,0.8-0.2,1.2L584.7,146.2z"/>
<path class="st3" d="M501.7,184.2c0-0.9-0.2-1.3-0.3-1.3C501.5,183.7,501.6,184.4,501.7,184.2z"/>
<path class="st3" d="M500.1,203.2c0,0.4-0.1,0.8-0.1,1.2C499.9,204,499.9,203.6,500.1,203.2z"/>
<path class="st3" d="M584.6,147.4l-0.5,3.2C584.6,150.8,584.4,149,584.6,147.4z"/>
<path class="st3" d="M613.2,117.9l1,0c0.3-0.2,0.6-0.4,0.8-0.7L613.2,117.9z"/>
<path class="st3" d="M650.9,119.6c0.1-0.5,0.4-0.8,0.9-0.9c-0.3-0.4-0.5-0.7-0.9-1C650.5,117.6,651,119,650.9,119.6z"/>
<path class="st3" d="M690.5,92.6c0.1,0,0.2,0,0.3-0.1L690.5,92.6z"/>
<path class="st3" d="M689.7,92.8l0.8-0.1C690.2,92.7,689.9,92.7,689.7,92.8z"/>
<path class="st3" d="M582.9,121.1c-0.2,0-0.4,0.1-0.5,0.2C582.6,121.5,582.8,121.4,582.9,121.1z"/>
<path class="st3" d="M738.6,94.2l0.1,0.6c0.2,0.1,0.5,0.1,0.8,0.1L738.6,94.2z"/>
<path class="st3" d="M497,226.4C497,226.4,497,226.4,497,226.4C497,226.4,497,226.5,497,226.4c0,0.1-0.2,0.1-0.3,0.1
	c-0.1,0-0.1,0-0.2,0C496.7,226.5,496.9,226.4,497,226.4C497,226.4,497,226.4,497,226.4z"/>
<path class="st3" d="M386.9,377.9c-3.9-1.2,6.3-1.6,0.5-2.9C387.9,375.5,382.1,377.1,386.9,377.9z"/>
<path class="st3" d="M417.7,244.2c-0.1,0.3-0.3,0.6-0.6,0.9C417.4,244.4,417.5,244.2,417.7,244.2z"/>
<path class="st3" d="M474.8,229.3c-0.5,0-1.1-0.1-1.6-0.2L474.8,229.3z"/>
<path class="st3" d="M397.3,249c-0.5-0.1-1.1-0.1-1.6,0c0.1,0.1,0.2,0.1,0.4,0.2C396.4,249,396.8,249,397.3,249z"/>
<path class="st3" d="M397.3,249c0.2,0,0.4,0.1,0.7,0.1C397.7,249.1,397.5,249,397.3,249z"/>
<path class="st3" d="M363.6,249.1c0.2,0.1,0.4,0.2,0.6,0.3c0.3,0,0.7-0.1,1.1-0.1L363.6,249.1z"/>
<path class="st3" d="M392.1,250.1c0,0,0,0.1-0.1,0.1C392.1,250.1,392.1,250.1,392.1,250.1z"/>
<path class="st3" d="M733,375.9c-0.2,0-0.4,0-0.7-0.1C732.6,375.9,732.8,375.9,733,375.9z"/>
<path class="st3" d="M742.3,344.3C742.3,344.3,742.3,344.4,742.3,344.3C742.3,344.4,742.3,344.4,742.3,344.3z"/>
<path class="st3" d="M471.8,230.2c0.4-0.1,0.7-0.2,1-0.3C473.6,230,472.6,230,471.8,230.2z"/>
<path class="st3" d="M741.3,223.8c0.1-0.2,0.1-0.5,0.2-0.8C741.4,223.2,741.3,223.5,741.3,223.8z"/>
<path class="st4" d="M743.1,328c0.1-0.2,0.3-0.4,0.4-0.6l0.1,0.5c0.1-1,0-2-0.2-3c0.2-1.3,0.3-2.6,0.4-3.9c1-0.6,0.6-5.6,0.6-8
	c-1.4,0.2-1.2-2.9-2.3-0.1c0.1-0.2,0.1,0.7,0.2,2.2c0,0.3,0.1,0.7,0.1,1c0,0-0.1-0.1-0.1-0.2c0,1.6,0.1,3.7,0.1,6
	c-0.9-2.1-1.1-4.4-0.5-6.6c-0.9-1.2-1.8-2.6-2.2-3.4c1.9-3.3,3-9.7,4.1-10.6c-0.8-7.4-0.5-17.5-3.1-22.2c-0.3-2.1,0.7-2.4,1.2-3.2
	c0.3,1.2,0.2,2.7,0.6,3.3c-0.7-4.2-0.3-12.5-2.1-13.5c0.8-5.3,1.7,3,1.4-4.3l0.5,1c2.8-14.1-4.3-23.1-1.1-38.5
	c-0.1,0.6-0.2,0.9-0.5,1.1c1.6-18.2-1.5-37.5,1.1-55.4c0.5-5.1-0.6-5.7-1.5-8.8l1.5-1.1l-1.7-5.3c-1.3-7.5,3.6-13.1,1.3-22.6l-1,1.2
	c0.2-3.4-0.6-10.9,0.6-10.3c-0.6-0.7-0.8-1.6-0.5-2.5l0.8-0.1l-1.3-8.4c0.6-6.5,3.1,1,3.2-8.5c-0.3-3.5-2.3-10.1-2.8-8.8
	c0,1.4-0.5,3.6-1.3,3.8l-0.4-3.2c-0.1,0-0.3-0.1-0.4-0.1v-0.5h-1.4c-0.6-0.2-1.3-0.2-1.8,0H700l0.4-0.4l-1.2,0.4h-5
	c0.1-0.3,0.6-0.5,1.6-0.7c-3.6-1-3.2,0.7-6.3-0.4c-0.3-0.2-0.2-0.3,0.1-0.4l-3.5,0.6c0.7-0.4-0.6-1.4,1.6-1.1
	c-6.3-1.2-10.2,1.5-12.5,0l0.5-0.1c-6.5,0.5-3.8,1.1-4.7,2.1h-4.1l-0.8-0.7l-1.1-0.9c-0.4-0.3-0.8-0.7-1.2-0.9
	c-0.3,0.5-0.6,1-0.9,1.5c-1,0-3.1-0.2-3-0.8c-1.8,0.5-1.4,0.7-1,0.8c0.5,0.2,1,0.3,0.3,0.8c-1.1-0.3-2.3-0.4-3.5-0.5
	c-0.1,2.2,0,4.8,0,6.8c0,2.1-0.3,3.4-1.3,3.9c1.1,1.6,0.9-4.2,1.7,0.5c-2.6,1.3,0.4,5.4-0.7,9.3c-1.3-1.1-0.6-5-1.8-1
	c0.4,0.4,0.6,0.9,0.8,1.4c0.1,0.5,0.1,1.1,0,1.6c-0.2,0.9-0.4,1.9-0.8,2.7c-0.6-0.1-1.2-0.2-1.8-0.1c0.6,0.9-0.7,1.1-2.7,1.1
	c-1.2,0-2.5,0-3.9,0c-1.5,0-3,0.1-4.4,0.2c0.4-0.6-10.6-1-15.8-1.6l0.1-0.3c-1,1.8-6.4,1.5-10.3,1.8c0.2-1.1,0.9-1.5,3-2l-3.7,0
	c-0.9,0.6-2,0.9-4.4,1.1l0.9-1.4c-2.5,0-4.9,0.4-7.6,0.7c-1.3,0.1-2.7,0.2-4.1,0.3c-0.7,0-1.4,0-2.2,0c-0.4,0-0.8,0-1.1-0.1
	c-0.4,0-0.9-0.1-1.3-0.1c-0.1,0.3,0.3,0.7,0.6,1.1c0.4,0.4,0.7,0.8,1,1.2c0.2,0.2,0.2,0.6,0.1,0.8h-3.4c0-0.4,0.2-0.7,1-0.9
	c-1,0.3-2.1,0.4-3.1,0.2c0.8-0.4,1.7-0.8,2.7-1.1c-3.7-0.5-1.5,0.9-4.1,0.8c-0.5-1-2.5-0.7-2.7-1.4c0.7-0.1,2.8,0.4,3.8,0
	c-1.9-0.1-4.2-0.3-6.4-0.6c-0.1,0.9-0.4,1.9-0.8,2.7c0.5,0,1.3,1,1.4,3.5c0,3.2-0.3,3.7-0.6,3.9c-0.2,0.1-0.4,0.1-0.6,0.4
	c-0.1,0.2-0.2,0.4-0.3,0.6c-0.1,0.3-0.2,0.5-0.2,0.8c0.7,1.2,0,4.3,1.4,4.4c0,1.4-0.7,1.7-1.1,2.3c0.6,2.5,0.2,11.9,1.7,9l0.1-0.7
	c0,0.1,0,0.3,0.1,0.4c0.4,2.5,0.6,5.1,0.5,7.6c-0.1,2.1-0.3,4.2-0.5,5.9c-1.4-0.1-2.8-0.2-4-0.3c-0.6,0-1.2,0-1.8,0l-1.2,0
	c-0.4,0-0.8,0-1.2,0.1l0-0.5c-4.9,0.5-11,0.3-14.5,1.4c-1.5,0-3.4-0.9-2.8-1.5c-3.8,0.4-4.2,0.9-9.6,0.1c3.8-0.8-1.3-0.8,3.9-0.6
	c-4.9-0.4-6-1.2-11.3,0.1c1.8-1.2-3.7-1.6-6-1.2l3.4,0.9c-2.4,0.1-4.8,0.1-7.2,0l1.3-1.6c-5-1-9.5-0.1-13.8,0.5
	c-2,0.4-4.1,0.6-6.1,0.6l-0.7,0l-0.9,0c-0.7,0-1.5-0.1-2.2-0.2c-1.6-0.2-3.3-0.5-4.9-0.9c-1.8,0.6,0.6,0.8,2.7,1
	c2.2,0.2,4.2,0.5,2.7,1.1c-3.2-0.2-6.5-0.6-9.6-1.2c-0.6,2.1-1.1,4.3-1.3,6.5c-0.1,1.3-0.2,2.4-0.2,3.5c0,0.5,0,1,0,1.4
	c0,0.2,0,0.5,0,0.6c0,0.1,0,0.2,0.1,0.4c0.2,0.8,0.4,1.7,0.8,2.5c0.9,2,1.3,4.2,1,6.4c0.6-0.9,2.1-1.6,2.7,3.3
	c-0.1,2.7-1,4.2-1.7,4.4c-0.4,0.1-0.8-0.3-1-1c-0.1-0.2-0.1-0.4-0.1-0.6c0-1.1,0.1-1.6,0.3-1.6c-0.2-1.5-0.5-3.4-1.1-1.6l0.6,0.6
	c-0.2,0.8-0.3,1.7-0.4,2.5c-0.3,2.6-0.4,5.7-1.1,4.6c0.5,3,0.8,2,1.1,0c-0.6,5.3,0.1,8.6-0.5,14.3c0.3-1,1-1.9,1-0.9
	c-0.7,8.9,1.1,3.9,1.4,10c-0.9,3.4-2.1-1.2-1.4,4.9c-0.6,3.7-1.5,0.8-2-0.7c0.5,2.5,0.5,5.1,0,7.7c0,0.2,0,0.3-0.1,0.5
	c0,0.1,0,0.2-0.1,0.4l0,0.2c0,0.1,0,0,0,0.1l-0.1,0.1c-0.1,0.1-0.2,0.2-0.3,0.3c-0.1,0.1-0.3,0.2-0.4,0.3c-0.1-0.2-0.2-0.3-0.4-0.4
	c0.1,0.1,0.2,0.3,0.2,0.5c0.1,0.1,0.2,0.2,0.4,0.2c0.3,0.1,0.5,0.2,0.8,0.3c-0.2,0.3-0.2,0.6-0.6,0.2c0,0-0.1-0.1-0.1-0.1
	c0.3,0.5,0.7,1,1.2,1.4c0.5,0.5,1.1,1.1,0.5,1.6c-0.8-0.2-1.6-0.2-2.5-0.1c-0.2,0-0.4,0-0.6,0c-0.3,0-0.6-0.1-0.9-0.1
	c-0.5,0-1-0.3-1.2-0.7c0.9,0.1,1.6,0.1,2.1,0.1c0.3,0,0.4,0,0.4-0.1c0.1-0.1,0-0.3,0-0.6c-0.2-0.4-0.2-0.9,0.1-1.1c0,0-0.1,0-0.1,0
	c-0.1,0-0.2,0-0.3,0c-0.4,0-0.8-0.1-1.2-0.1c-0.3-0.2,0.2-0.3,0.7-0.4c-0.5-0.1-1-0.2-1.4-0.2c-0.8-0.1-1.6-0.1-2.5,0
	c-1.8,0.4-1.4,2-6.4,1.9c0.9-0.9-1.7-1.6-2.8-1.5c2.9,0,1.4,1.4-1.3,2.1c-4.6-0.7-5,0.5-7.4,0.4l2.7,0.3c-0.9,0.9-3.2,0.8-6.4,1
	c-0.1-0.2,0.2-0.3,0.5-0.4c-3.3,0.5-7.2-1.8-11.6-0.9c0,0-0.1,0-0.1,0c-2.3-0.6-0.2-1.6-2.2-2c-5.5,1.1-6-1.2-11.8-0.3
	c1.7,1.2,2,0.9-2.1,2l9.6-0.8l-6.2,1.7c2.9,0,6.1-0.7,7.8-0.5c-2.9,0.9-2.6,0.7-1.2,1.6c-4-1.8-7.8,1-12.4-0.2l0.1-2.9
	c-2.9-0.5-5.9-0.4-8.8,0l-1.1,0.1l-0.6,0.1l-0.1,0l-0.2,0l-0.5,0c-1.2,0.1-2.4,0.2-3.7,0.3c-2.5,0.2-5,0.3-7.9,0.3
	c0,1.3,0,2.6-0.1,4l0.5-3.7l0.4,0c0,0.1-0.1,0.1-0.2,0.1c0.4,1.8,0.6,3.7,0.4,5.5c0,0.2,0,0.3,0,0.5v0c0,0.9,0,1.9-0.1,2.8
	c0,0.6,0,1.1,0,1.7c0,0.3,0,0.5,0,0.8l0,0.4l0,0.3c-1-0.3-1.3,1.5-1.9,2.8c0.2,0,0.3,0.4,0.3,1c0.1,0.3,0.1,0.6,0.2,0.9
	c0.2,1,0.7,2,1.4,2.7c-0.1,0.1-0.3,0.3-0.5,0.4c-0.6-0.2-1.2-0.5-1.8-0.8c-0.6-0.1-1.2-0.1-1.8,0.2c-0.1,0.1-0.3,0.1-0.4,0.2
	c-0.1,0.1-0.2,0.1-0.3,0.1c-0.1,0-0.3,0.1-0.4,0.1c-0.5,0.2-1,0.3-1.5,0.5c-2.4,1-4.9,1.4-7.5,1.3c2.1-1-1.1-1.7,3.6-2.5
	c-2.3,0-4.4-0.2-4.4,0.5c-0.3-0.1-0.5-0.1-0.8-0.1c-1.2,0-3,0.5-4.7,0.7c-0.8,0.1-1.7,0.1-2.5,0c-0.2,0-0.4-0.1-0.5-0.2
	c-0.1,0-0.2,0.1-0.3,0.2c-1,0.9-2.3,1.3-3.6,1.2c-0.1-0.1-0.2-0.2-0.1-0.3c0,0,0,0,0,0c-0.5,0.4-3.8,0.6-1.7,1.6
	c-3.1-1.3-7.2-1.4-11.4-1.4c-5.5,0.1-11.2,0.5-14.7-1c-2.5,0.2-5.3,0.3-8,0.5c-1.4,0-2.7,0.1-4,0.2c-0.6,0-1.3,0-1.9,0.1
	c-0.7,0-1.3,0-2,0c0.2-0.1,0.2-0.3,0.3-0.3c0.2-0.1,0.5-0.1,0.8,0c-0.2,0-0.3,0-0.5-0.1c-0.2,0-0.4,0-0.6,0c-0.4,0-0.8,0-1.1,0
	c-0.6,0-1.2,0-1.8,0.1c-0.7,0.1-1.4,0.3-2.1,0.6c-1,0.8-2.2,1.3-3.5,1.3c0,1.1,0,2.1-0.2,3.2c-0.4,0.9-0.6,1-0.8,0.8
	c-0.2-0.6-0.3-1.2-0.3-1.8c-0.1-1.6-0.1-3.3-0.4-2c-1.6-0.7-1.5,3-1.2,7.1c0.1,2.4,0.3,3.4,0.3,4.9c0.1,1.4-0.1,2.7-0.6,4l-0.2-1.2
	c-1.1,3.7,1.2,9,1,15.1c0,0-0.3-0.3-0.5,0c1.6,4.1,2.2,12,2.6,17.8c-1.2-1.8-0.7-2.6-1.9-1.5c0.2,2.6,2-0.8,2.4,4.4
	c-0.7,1.7-1.3,5.4-2.6,5.9l-0.1-4.9c-1.7,2.5,0.1,6.3-0.2,8.9l-0.8-0.3c0.2,7.5,2.2,7.6,2,15.7l0.6-0.8c1.9,4.4-1.1,3.7,0.4,8.1
	l-1.9,1.3c0.5,2.9,1.9,10.2,2.2,15.4c-1.4-3-2.2-9.1-3-12.9c0,2.9,0.1,9.8,1.1,11.3c-0.2-1.2-0.7-2.6-0.4-3.8
	c1.5,3.5,2.3,8.2,2.2,14c-1.2-0.3-1.8,1.2-2,3.5c0,0.1,0,0.3,0,0.5c0,0.2,0,0.4,0,0.7c0,0.5,0,0.9-0.1,1.4c0,1,0,2-0.1,3.1
	c0,2.2-0.1,4.4-0.1,6.6c4.5,0.1,8.6,0.5,11,1.5l0.8-0.1l0.5-0.1l1-0.1c0.6-0.1,1.3-0.1,1.9-0.1c1.3-0.1,2.5-0.1,3.8-0.1
	c2.6,0,5.1,0.1,7.8,0.2c5.3,0.3,10.7,0.7,16.7,0.6c-4.2-2.9,3.5-0.1,2.7-3.1c2.7-0.2,3.8-0.1,4.1,0l-0.4-0.1c0.1,0,0.3,0.1,0.4,0.1
	v0l8.4,1.8c2,0.9-2.6,0.7-2.4,1.3c6.1,0.2,2.5,1.3,6.5,2.1c-0.8-1.1,2.1-1.5,5.6-1.1l-4.9-1.4c8.5-1.6,7.3,2.5,15.8,0.9l-2.7,0.9
	c4.4-0.6,16.1,0,20.4-2.4c0.8,0.3,1.8,1.2-0.1,1.4c10.5,0.4,23.3-2.6,31.4-1.1l-0.8,0.7c1.9-0.2,3.4-1.4,5.8-0.6
	c-0.1,0.3-0.8,0.7,0.1,0.8c1-0.2,5.2-1.3,7.8-0.9l-2.2,0.8c6.4,0.6,11-0.3,15.6-1.3c2.8-0.6,5.7-1,8.6-1.2c0,2.2,8,2.9,12,3.2
	l-0.1,0.3c4.8,0.1,9.5-0.1,14.3-0.7c3.6-0.4,7.2-0.9,10.9-1.3h0c0.2,0,0.5-0.1,0.7-0.1c0.9-0.1,1.7-0.2,2.6-0.3
	c0.3,0,0.6-0.1,0.8-0.1c0.6,0,1.2-0.1,1.8-0.1c3.1,0.9,6.3,1.3,9.5,1.4c7.7,0.4,17.3,0.1,24.6,0.9c-1.7-0.4,0.3-1.7,2.2-1.9
	c2.4,0.4,6.6-1.3,6.7,0.2c0,0.1,0,0.2,0,0.3l-0.9,0h0l0,0c1.9,1.9,7.2,1.4,11.4,1.5l0.7-2.6c10.8,3.8,28.3-1.4,34.2,2
	c2.6-0.6,5.8-0.6,8.4-1.3l-0.1,1.4c6.6,0.4,13.2,0.5,19.8,0.2l-1.8,1c5,0.1,6.4-4,11-4.1l1.4,2.1c8.8,0,17.7,1.8,26.4-0.1
	c-0.1,0.3-0.4,0.9-1.8,1c4,0,15.2,1.3,14.6-1.2c1,1.4,9.2-0.1,13.7-0.9l-0.7,1.4c2-0.9,3-1.4,4.3-1.8c0.7-0.2,1.4-0.4,2.1-0.5
	c0.5-0.1,0.9-0.1,1.5-0.2c0.7-0.1,1.6-0.1,2.5-0.2c1.7,0.2,2,0.9,0,0.8c1.5,0.2,3,0.1,4.4-0.2c1.2-0.4,2.5-0.6,3.8-0.6
	c0-1,0-2,0.2-2.9c0.3,1.1,0.6,2.3,0.9,3.6c0.1-2.1,0-4.2-0.3-6.3c-0.2-1.3-0.6-2.2-1.1-3.9c0-0.2-0.1-0.5-0.1-0.8
	c0-0.2,0-0.5-0.1-0.8c0-0.4,0-0.9,0-1.4c0-1,0.1-1.9,0.3-2.9c0.3-1.9,0.8-3.5,1.5-3.8c-0.8-0.6-1.8-3.1-1.4-5.8
	c0.5-0.4,0.8,0.6,0.9,1.1c0.9-7.6-1.6-11.3-0.2-16.5c0.4-0.1,0.7-0.5,0.8-0.9c0,5.5-0.1,10.1-0.2,10.4c1.2-0.1,1.5-4.9,3.2-1
	C744.5,339.4,742.5,332.7,743.1,328z M744.2,317.9c0.2,1.6-0.1,2.2-0.4,2.4c0-0.8-0.1-1.7-0.2-2.8c0,0-0.1-0.1-0.2-0.2
	C743.7,317.4,744,317.6,744.2,317.9z M688.2,93.9c0.2,0.1,0.3,0.1,0.5,0.2h-2.1C687,94.1,687.6,94,688.2,93.9L688.2,93.9z"/>
<path class="st3" d="M497.7,226.9c-0.1,0.1-0.2,0.1-0.2,0.1C497.5,227,497.6,226.9,497.7,226.9z"/>
<path class="st3" d="M471.6,230.2c0.1,0,0.2,0,0.2,0C471.8,230.2,471.7,230.2,471.6,230.2z"/>
<path class="st3" d="M742.4,315c0-0.2-0.1-0.4-0.1-0.7c-0.1,0.3-0.2,0.6-0.3,1l0.4,0.6L742.4,315z"/>
<path class="st3" d="M584.7,146.2c0-0.2,0.1-0.3,0.2-0.5c-0.1,0.1-0.1,0.1-0.2,0.2L584.7,146.2z"/>
<path class="st3" d="M653.1,92.5c0.4,0,0.9,0.6,0.8,5.3l0.3-5.8l2.2,0.1c-1.7-0.5-4.6-1.2-0.6-1.4c-1.4-0.2-2.4-0.3-3.2-0.4
	C652.3,93.2,652.7,92.5,653.1,92.5z"/>
<path class="st3" d="M653.2,116.5c-0.1-1.1-0.3-1.1-0.5-1c-0.2,0.1-0.4,0.4-0.6,0.3C652.6,117,652.7,117.7,653.2,116.5z"/>
<path class="st3" d="M557.9,158.1l0.3-1.3C555.7,157,558.3,157.3,557.9,158.1z"/>
<polygon class="st3" points="512.8,155.8 513,155.8 513.4,155.7 515,155.6 516.1,155.4 514,155.7 512.9,155.8 511.1,155.9 
	512.4,155.8 "/>
<path class="st3" d="M369.7,247.9l0.8,1.5C372.2,249.2,372.6,247.4,369.7,247.9z"/>
<path class="st3" d="M337.5,326.8c-1,1.8-1.1,3.9-0.5,5.8C337.1,330.3,337.7,328,337.5,326.8z"/>
<polygon class="st3" points="600.7,378.8 604.5,378.4 602.7,378.3 "/>
<path class="st1" d="M619.7,252.5c-0.2,11.9-1.9,23.7-4.9,35.1c-11.9,43.8-44.3,75.7-61.8,90.3c-3.2,0-6.4-0.5-9.5-1.4
	c-0.6,0-1.2,0.1-1.8,0.1c-0.3,0-0.6,0.1-0.8,0.1c-0.9,0.1-1.8,0.2-2.6,0.3c-0.2,0-0.5,0.1-0.7,0.1h0c-5.7-14.8-9.7-30.1-12.1-45.8
	l0,0v0c-3-20.1-3.5-43.6,2.9-67.2c2.7-10,6.5-19.6,11.3-28.8c22.7-44.1,62.1-70.4,62.1-70.4S620.9,205,619.7,252.5z"/>
<path class="st1" d="M500.1,203.2c0,0.4-0.1,0.8-0.1,1.2C499.9,204,499.9,203.6,500.1,203.2z"/>
<path class="st1" d="M471.8,230.2c0.4-0.1,0.7-0.2,1-0.3C473.6,230,472.6,230,471.8,230.2z"/>
<path class="st1" d="M473.2,229.1l1.6,0.2C474.3,229.3,473.7,229.2,473.2,229.1z"/>
<path class="st1" d="M496.7,226.5c-0.1,0-0.1,0-0.2,0c0.1,0,0.3,0,0.4-0.1c0,0,0,0,0,0s0,0,0,0c0,0,0,0,0,0
	C497,226.5,496.8,226.5,496.7,226.5z"/>
<path class="st1" d="M497.7,226.9c-0.1,0.1-0.2,0.1-0.2,0.1C497.5,227,497.6,226.9,497.7,226.9z"/>
<path class="st1" d="M553.5,331.4C553.5,331.4,553.5,331.4,553.5,331.4c-2.4,15.6-6.4,30.8-12,45.4c-0.3,0-0.6,0.1-0.8,0.1
	c-0.9,0.1-1.8,0.2-2.6,0.3c-0.2,0-0.5,0.1-0.7,0.1h0c-3.7,0.4-7.2,0.9-10.9,1.3c-17.3-14.3-50.5-46.5-62.5-90.9
	c-3.1-11.5-4.7-23.3-5-35.2c-0.2-7.8,0.1-15.5,1-23.2c4.3-0.8,8.3,1.4,11.6,0.9c-0.4,0.1-0.6,0.2-0.5,0.4c3.2-0.3,5.5-0.2,6.4-1
	l-2.7-0.3c2.4,0.1,2.8-1.1,7.4-0.4c2.6-0.7,4.1-2.1,1.3-2.1c1.2-0.2,3.7,0.6,2.8,1.5c5,0,4.7-1.5,6.4-1.9h2.5
	c0.4,0.1,0.9,0.1,1.4,0.2c-0.5,0.1-1,0.2-0.7,0.4c0.4,0,0.8,0.1,1.2,0.1c0.1,0,0.2,0,0.3,0c0,0,0.1,0,0.1,0
	c-0.3,0.2-0.2,0.7-0.1,1.1c0.1,0.2,0.2,0.5,0,0.6c-0.1,0.1-0.2,0.1-0.4,0.1c-0.5,0-1.1,0-2.1-0.1c0.3,0.4,0.7,0.7,1.2,0.7
	c0.3,0.1,0.6,0.1,0.9,0.1c0.2,0,0.4,0,0.6,0c0.8-0.1,1.7-0.1,2.5,0.1c0.6-0.5,0-1.1-0.5-1.6c-0.5-0.4-0.9-0.9-1.2-1.4
	c0,0,0.1,0.1,0.1,0.1c0.4,0.4,0.4,0.1,0.6-0.2c-0.3-0.1-0.5-0.2-0.8-0.3h0.7v-1.6c0-0.2,0-0.3,0.1-0.5c0.4-2.5,0.4-5.1,0-7.7
	c0.5,1.5,1.4,4.4,2,0.7c-0.7-6.1,0.5-1.4,1.4-4.9c-0.3-6.1-2.1-1.1-1.4-10c0-1-0.7-0.1-1,0.9c0.5-5.7-0.2-9,0.5-14.3
	c-0.3,2-0.6,3-1.1,0c0.7,1.1,0.9-2,1.1-4.6c0.2,0.2,0.5,0.4,0.7,0.7c0.3,0.3,0.7,0.7,1,1c12.2,12,26.5,28.7,37.1,49.4c0,0,0,0,0,0
	c0,0,0,0,0,0c4.8,9.2,8.5,18.8,11.3,28.8C557,287.8,556.5,311.3,553.5,331.4z"/>
<path class="st5" d="M417.7,244.2c-0.1,0.3-0.3,0.6-0.6,0.9C417.4,244.4,417.5,244.2,417.7,244.2z"/>
<path class="st5" d="M392.1,250.1c0,0,0,0.1-0.1,0.1C392.1,250.1,392.1,250.1,392.1,250.1z"/>
<path class="st5" d="M538.1,377.1c-0.2,0-0.5,0.1-0.7,0.1h0c-3.7,0.4-7.2,0.9-10.9,1.3c-4.7,0.6-9.5,0.8-14.3,0.7l0.1-0.3
	c-4-0.3-12-1-12-3.2c-2.9,0.2-5.8,0.6-8.6,1.2c-21.2-6.9-45.8-18.6-66-38.2c-28.4-27.7-41.2-64.6-46.9-88.4
	c4.2-0.1,8.4,0.1,11.4,1.4c-2.1-1,1.2-1.2,1.7-1.6c-0.1,0.1-0.1,0.3,0,0.4c0,0,0,0,0,0c1.3,0.1,2.6-0.3,3.6-1.2h8.1v-0.7
	c0.3,0,0.5,0,0.8,0.1c0-0.7,2.1-0.5,4.4-0.5c-4.6,0.8-1.5,1.4-3.6,2.5c2.6,0.1,5.1-0.3,7.5-1.3c0.5-0.2,1-0.4,1.5-0.5
	c0.1,0,0.3-0.1,0.4-0.1c0.1,0,0.2-0.1,0.3-0.1c0.1-0.1,0.3-0.1,0.4-0.2c0.6-0.3,1.2-0.3,1.8-0.2c0.6,0.3,1.2,0.5,1.8,0.8
	c0.2-0.1,0.3-0.2,0.5-0.4c-0.7-0.7-1.2-1.7-1.4-2.7c-0.1-0.4-0.1-0.7-0.2-0.9c-0.1-0.6-0.1-1-0.3-1c0.6-1.2,0.9-3,1.9-2.8l0-0.3
	l0-0.4c0-0.3,0-0.5,0-0.8c0-0.5,0-1.1,0-1.7c0-1,0-1.9,0.1-2.8c13.8,4.2,27,9.9,39.5,17.1c10.6,6.1,20.5,13.5,29.3,22
	c17.7,17.2,29.3,37.9,36.9,56.9v0l0,0C531.2,346.2,535.5,361.5,538.1,377.1z"/>
<path class="st5" d="M585.5,377.5L585.5,377.5C585.6,377.5,585.6,377.5,585.5,377.5L585.5,377.5z"/>
<path class="st5" d="M704,226.5c0,0-5.6,68-51,112.3c-20.4,19.8-45.3,31.5-66.5,38.4c-0.2-1.4-4.3,0.3-6.7-0.2
	c-1.9,0.2-3.9,1.5-2.2,1.9c-7.3-0.9-16.9-0.6-24.6-0.9c-3.2,0-6.4-0.5-9.5-1.4c-0.6,0-1.2,0.1-1.8,0.1c-0.3,0-0.6,0.1-0.8,0.1
	c2.6-15.6,6.9-30.8,12.8-45.5c7.6-19,19.3-39.7,36.9-56.8c8.8-8.5,18.7-15.9,29.3-22C660.4,228.9,704,226.5,704,226.5z"/>
<path class="st6" d="M64.4,187.3c0,0-13.6,27.3-34.7,33.4s50.8,0,50.8,0s-3.7-19.8,1.2-22.3S64.4,187.3,64.4,187.3z"/>
<path class="st7" d="M42.4,140.4c-0.7-6.5,2.8-12.2,7.9-12.8c0.1,0,0.1,0,0.2,0c-0.6-0.1-1.3-0.1-1.9,0c-5.1,0.6-8.6,6.3-7.9,12.8
	c0.7,6.4,5.4,11.1,10.4,10.6C46.7,150.4,43,146.1,42.4,140.4z"/>
<path class="st7" d="M47,149.2c-6.2-2.1-9.8-7.7-8.2-12.6c0-0.1,0-0.1,0.1-0.2c-0.4,0.5-0.6,1.1-0.8,1.7c-1.6,4.9,2,10.5,8.2,12.6
	c6.1,2.1,12.3-0.1,14.1-4.9C57.8,149.5,52.3,151,47,149.2z"/>
<path class="st6" d="M4.4,268.6l1.8,52.5L34.7,388c0,0-7.4,34.7,7.4,33.4s1.2-34.7,1.2-34.7l-13.6-70.6l-2.5-58.2L4.4,268.6z"/>
<circle class="st6" cx="84.2" cy="178.6" r="27.3"/>
<path class="st8" d="M106.5,225.7l-26.9-10.7c0,0-5.4,0.8-20.2,2.1S38,217.1,38,217.1S6.2,228.1,7.4,234.3s14.9,104.1,21.1,99.1
	s9.9-6.2,9.9-6.2l68.1-6.2V225.7z"/>
<path class="st8" d="M12.4,231.9h-4c0,0-4.6,2.5-4.6,9.9S0,271.5,0,271.5h19.8L12.4,231.9z"/>
<path class="st7" d="M48.9,243.6l-15-24.2c-0.7-1.1-2-1.7-3.3-1.6l-3.9,0.5c-1.9,0.2-3.2,1.9-2.9,3.8c0,0.2,0,0.3,0.1,0.5l7.7,28.5
	c0,0,12.1,50.3,0.5,77.2l-0.5,12c0,0-11.1,37.2-8.7,65.7s3.7,53.3,3.7,53.3s-6.2,18.6-3.7,24.8c0.7,1.9,0.6,4.6,0,7.5
	c-3.5,17.9-4.4,36.3-3.9,54.6l0.2,6c0,0-8.7,7.4-1.2,8.7c7.4,1.2,31,3.7,31,3.7s5-8.7,2.5-9.9l7.4-40.9c0,0,12.4-17.3,11.1-28.5
	c0,0,3.7-18.6,0-27.3l1.2-54.5l5,65.7l-7.4,81.8c0,0-9.9,7.4-3.7,9.9c6.2,2.5,44.6,14.9,44.6,8.7s-2.5-8.7-2.5-8.7l16.1-167.2
	l-8.7-69.4c0,0-58.2-5-53.3-70.6c0,0,14.2-29.6,28.3-35.2c0.4-0.2,0.6-0.6,0.5-1c-0.1-0.2-0.3-0.4-0.5-0.5l-5.7-1.6
	c-0.2,0-0.3,0-0.5,0C80.9,216.1,59.4,223.8,48.9,243.6z"/>
<path class="st7" d="M77.4,559.5l-0.2,1.8c-1.3,11.3-5,22.3-10.8,32.1c-2.8,4.8-4.9,10.2-3.8,14.4c2.5,9.9,1.2,13.6,1.2,13.6h19.8
	v-3.7l11.1,3c2.5,0.7,5.1,0.6,7.5-0.2c2.5-0.9,5-2.8,5-6.5c0-3.1-2.4-6-5.1-8.3c-5.8-4.8-10-11.2-12.1-18.5l-0.1-0.5l7.4-27.3
	L77.4,559.5z"/>
<path class="st7" d="M26,560.2l-0.2,1.8c-1.3,11.3-5,22.3-10.8,32.1c-2.8,4.8-4.9,10.2-3.8,14.4c2.5,9.9,1.2,13.6,1.2,13.6h19.8
	v-3.7l11.1,3c2.5,0.7,5.1,0.6,7.5-0.2c2.5-0.9,5-2.8,5-6.5c0-3.1-2.4-6-5.1-8.3c-5.8-4.8-10-11.2-12.1-18.5l-0.1-0.5l7.4-27.3H26z"
	/>
<path class="st7" d="M89.7,183.2c0,0,19.5-11.3,27.1-12c0,0,2.2-5-0.2-9.7c0,0-1.2-15.3-20.2-14.7c0,0-22.6-12.2-30.1-7.2
	S41.8,168.5,49,182.8c0,0-8.2,4.1-8.6,1.9s-6.5,3.8,1.6,8.9c0,0-11.3,11.4-0.3,18.6c0,0-0.5-10.1,5.9-13.2s0.8,0.2,0.8,0.2
	s-10.9,13.7,5.4,19c0,0-6.1-6.9,0-12.9c0,0-1.9,14,9.4,15.5c0,0-5.8-8.3-2.8-11.3c0,0,1.3,10.3,7.7,11.5l4.8,0.9l1.6-8.3
	c0,0-4.5,10.6,6.1,11.2c0,0-5.1-16.1,1.7-25.5S89.7,183.2,89.7,183.2z"/>
<ellipse transform="matrix(0.6038 -0.7972 0.7972 0.6038 -93.1111 98.0076)" class="st7" cx="52" cy="142.7" rx="11.8" ry="9.3"/>
<path class="st2" d="M62.1,142.1c-2.5,0.9-4.6,2.6-6.2,4.7c-1.4,1.8-2.3,3.9-2.7,6.2c2.5-0.9,4.6-2.6,6.2-4.7
	C60.8,146.5,61.8,144.3,62.1,142.1z"/>
<path class="st8" d="M156.7,378.1l-1.6-2.1l11.4-8.6c2.8-2.1,4.2-5.5,3.8-8.9l-5.7-45.7c-0.8-6.8,2-13.4,7.5-17.5l12.5-9.3
	c4.9-3.7,11.9-2.7,15.6,2.2l2.9,3.8l-2.1,1.6l-2.9-3.8c-2.8-3.8-8.1-4.5-11.9-1.7l-12.5,9.3c-4.7,3.5-7.1,9.3-6.4,15.1l5.7,45.7
	c0.5,4.4-1.3,8.7-4.8,11.3L156.7,378.1z"/>
<polygon class="st8" points="160.8,381.9 170.1,369.7 167,365.5 153,371.5 92.1,413.6 102.8,428 "/>
<path class="st0" d="M192.9,294.2l11.8-8.8c3.2-2.4,7.8-1.8,10.2,1.5l54.6,72.8c2.4,3.2,1.8,7.8-1.5,10.2l-11.8,8.8
	c-3.2,2.4-7.8,1.8-10.2-1.5l-54.6-72.8C189.1,301.2,189.7,296.7,192.9,294.2z"/>
<path class="st9" d="M269.4,359.7l-1.7-2.2l-0.3-0.5c2.4,3.2,1.8,7.8-1.5,10.2c0,0,0,0,0,0l-11.8,8.8c-3.2,2.4-7.8,1.8-10.2-1.5
	l0.3,0.5l1.7,2.2c2.4,3.2,7,3.9,10.2,1.5l11.8-8.8C271.2,367.5,271.9,362.9,269.4,359.7z"/>
<path class="st3" d="M234.6,311.6c-0.1-0.1-0.2-0.2-0.2-0.1C234.5,311.6,234.5,311.6,234.6,311.6z"/>
<path class="st3" d="M232.7,308.7c0-0.1,0-0.1-0.1-0.2L232.7,308.7z"/>
<path class="st3" d="M246,327.2c-0.1,0,0.1,0.3,0.2,0.5L246,327.2z"/>
<path class="st3" d="M251.8,334.6l0.1,0.1c0.1,0,0.1,0,0.2,0L251.8,334.6z"/>
<path class="st3" d="M255.4,340c0.1,0,0.3,0.1,0.4,0.2c0.1,0,0.1-0.1,0.1-0.2C255.8,339.8,255.5,340,255.4,340z"/>
<path class="st3" d="M266.7,355.7L266.7,355.7c0,0.1,0,0.2,0.1,0.2L266.7,355.7z"/>
<path class="st3" d="M229.1,303.3L229.1,303.3C229.3,303.4,229.2,303.4,229.1,303.3z"/>
<path class="st3" d="M196.1,314.1c-0.2-0.7,0.9,0.7,0.5-0.3C196.6,313.9,195.7,313.3,196.1,314.1z"/>
<path class="st3" d="M220.3,291.8c0,0.1,0,0.1,0,0.2C220.4,292,220.4,292,220.3,291.8z"/>
<path class="st3" d="M215.7,288.5c-0.2,0.1-0.3,0.2-0.4,0.4c0,0,0.1,0,0.1,0C215.5,288.7,215.6,288.6,215.7,288.5z"/>
<path class="st3" d="M211.2,292.8c0,0,0.1,0,0.1,0l0.1-0.1L211.2,292.8z"/>
<path class="st4" d="M267,355.9c-0.2,0.2-0.5,0.4-0.6,0.4l0.3-0.5c0,0,0,0-0.1-0.1c0,0,0,0,0.1-0.1l-3.9-5.2l0.1,0l-0.2-0.1
	l-0.5-0.7c0.1,0,0.1,0,0.3,0.1c-0.2-0.6-0.4-0.3-0.6-0.9c0-0.1,0-0.1,0.1,0l-0.5-0.4c0.1,0,0.2-0.3,0.3,0.1c-0.4-1-1.3-1.2-1.3-1.7
	l0.1,0.1c-0.7-0.8-0.6-0.4-0.8-0.4l-0.4-0.6l0.1-0.7l-0.3,0.1c-0.1-0.1-0.2-0.4-0.1-0.4c-0.5-0.3,0,0.2-0.4,0c-0.2-0.8-1.3-1.5-1-2
	c-0.3-0.1,0.3,0.7-0.3,0.1c0.3-0.5-0.6-0.7-0.8-1.4c0.3,0,0.6,0.6,0.4-0.1c-0.6-0.1-0.7-1.1-1.1-1.5c-0.3,0.2-0.9-0.9-1.5-1.6
	c-0.4-0.8-0.8-1.6-1.3-2.3l0.1,0c-0.4,0.1-0.9-0.7-1.3-1.2c0.2-0.1,0.3-0.1,0.6,0.2l-0.4-0.5c-0.2-0.1-0.5-0.3-0.6-0.5l0.3,0
	c-0.7-0.6-1.3-1.3-1.8-2.1c-0.2,0.1-0.1,0.5-0.4,0.6l-0.3-0.5c0.1,0,0.2,0,0.3,0.1c-0.1-0.1-0.3-0.2-0.4-0.4l0.5,0.2
	c-0.2-0.5-0.3-0.1-0.5-0.4c0.2-0.1-0.1-0.3,0.1-0.4c0.1,0.1,0.1,0.3,0.3,0.4c-0.2-0.3-0.4-0.7-0.4-1.1c-0.1,0.1-0.2,0.2-0.4-0.1
	c-0.5-0.7,0-0.4-0.2-0.8c-0.2-0.1-0.4-0.6-0.7-0.4c-0.1-0.2-0.1-0.3-0.1-0.4c-0.4-0.3-1.2-1.6-1.2-1l0,0.1l-0.1,0
	c-1.1-1-1.6-2.4-2.6-3.5l0.1-0.1c-0.5-0.6-1.1-1.2-1.7-1.8c-0.1-0.2-0.2-0.6,0-0.6c-0.4-0.4-0.8-0.8-1-1.3c0.5,0.4,0-0.3,0.5,0.5
	c-0.4-0.7-0.4-1-1.2-1.5c0.4,0.1-0.1-0.7-0.4-1l0.2,0.6c-0.3-0.3-0.5-0.6-0.7-1l0.4,0c-0.7-1.6-2.4-2-2.6-3.5
	c-0.5-0.2,0.4,0.8,0,0.7c-0.3-0.6-0.5-1.2-0.7-1.8c-0.5-1-1-0.5-1.6-1.5c0,0.2-0.2,0.5-0.8-0.1c-0.4-0.7-0.2-1.1,0.2-0.7
	c0.1,0.1,0.1,0.2,0.1,0.3c0.2,0.2,0.4,0.4,0.3,0.1l-0.2,0c-0.1-0.4-0.8-1.2-0.5-1.1c-0.4-0.4-0.3-0.1-0.1,0.3
	c-0.5-0.9-0.9-1.3-1.5-2.1c0,0.2,0,0.4-0.1,0.2c-0.8-1.3-0.6-0.4-1.2-1.2c-0.2-0.6,0.5-0.1-0.3-0.8c-0.3-0.6,0.2-0.3,0.4-0.2
	c-0.5-0.6-0.9-1.2-1.2-1.9l0.4,0.3c-0.2-0.2-0.4-0.4-0.5-0.6l0,0.4c-0.1-0.3-0.3-0.5-0.2-0.5c-0.3-0.1-0.2,0.4-0.7,0.1
	c-0.1-0.4-0.8-0.9-0.6-1.2c0.6,1,0.2-0.3,0.8,0.5c-0.2-0.2-0.3-0.4-0.4-0.6c0-0.1,0.1,0,0.1,0c-0.5-1.1-0.6-0.2-1.3-1.2
	c0.2,0,0.1-0.4,0-0.6c0.3,0.4-0.1,0.4-0.5,0.1c-0.4-0.7-0.6-0.6-0.8-0.9l0.2,0.4c-0.2,0-0.4-0.3-0.8-0.7c0.1-0.1,0.4,0.3,0.3,0.1
	c-0.6-0.3-0.6-1.3-1.2-1.8c-0.1-0.4,0.2-0.2,0.1-0.6c-0.7-0.6-0.4-1-1.2-1.6c0,0.4,0.1,0.4-0.5,0l1.1,1.2l-0.9-0.6
	c0.3,0.4,0.7,0.7,0.9,1c-0.5-0.3-0.4-0.3-0.4,0c-0.1-0.7-1-0.9-1.2-1.7l0.5-0.3c-0.5-1.1-1.5-1.5-2.3-2.8l0.2,0.4
	c-0.3,0-0.6-0.7-1-1.1c0.2-0.1,0.1-0.4,0-0.6c-0.1,0.1-0.7-0.9-1-0.8l-0.2-0.7c-0.6-1-1.4-0.9-2.2-2.1c0.2,0,0.2-0.1,0.2-0.2
	c0-0.1,0.1-0.1,0.5,0.3c-0.4-0.5-0.7-1-0.7-0.8c0-0.1-0.1-0.1-0.1-0.2l-0.1-0.1c0,0-0.1,0-0.1,0.1l-0.4,0.5
	c-0.2,0.3-0.5,0.6-0.8,0.8c-0.1,0.3-0.1,0.5-0.5,0.9c-0.1,0-0.1-0.1-0.1-0.1c0,0.1-0.4,0.6,0,0.5c-1.3,0.4-2.4,2.3-3.6,2.6
	c-0.6,0.6-1.3,1.3-1.9,1.9c0-0.1-0.1-0.1,0.1-0.2c-0.9,0.6-0.1,0.9-1.2,1.5c-0.7,0.2,0.4-0.5,0-0.4c-0.5-0.4-1.1,1-1.9,1.2l0.1-0.2
	c-0.6,0.2-1,1.1-1.9,1.7c0,0,0-0.1-0.1-0.1c-0.6,0.8-1.3,1.6-2.1,2.2c0.1-0.4,0.3-0.4,0-0.5c-0.3,0.3,0.3,0.3-0.3,0.8
	c-0.3,0.1-0.9,0.3-1.1,0.1l0.7-0.5c-0.5,0-0.9,0.6-1.3,0.8l0-0.2c-1,0.8-0.8,1.1-2,1.8l0.2,0c-0.4,0.7-0.6,0.1-1.1,0.8l-0.4-0.2
	c-0.6,0.6-1.3,1.2-2,1.7c0.5-0.6,1-1.1,1.6-1.6c-0.6,0.3-1.1,0.7-1.5,1.1c0.2-0.1,0.3-0.3,0.5-0.4c-0.5,0.7-1.1,1.2-1.8,1.5
	c-0.1-0.4-0.9,0-1.9,0.5l-0.4,0.2l-0.2,0.1c-0.1,0-0.2,0.1-0.1,0.1c0.2,0.2,0.3,0.4,0.4,0.7c0.2,0.3,0.4,0.7,0.5,1.1
	c0.2,0.2,0.4,0.5,0.6,0.7c0.1,0.2,0.3,0.3,0.4,0.5c0.3,0.3,0.5,0.7,0.7,1.1c0.5,0.7,1,1.5,1.6,2.3c0-0.9,0.4,0.5,0.8,0
	c0.3,0.3,0.4,0.5,0.4,0.6l0-0.1l0,0.1l0,0l0.6,1.4c0.1,0.4-0.4-0.3-0.5-0.2c0.6,0.8,0,0.5,0.3,1.1c0.1-0.2,0.5,0.1,0.7,0.6l-0.3-0.8
	c1.1,0.9,0.3,1.3,1.5,2.3l-0.4-0.2c0.5,0.5,1.6,2.2,2.5,2.5c0,0.1,0,0.4-0.2,0.2c1,1.5,2.8,2.8,3.4,4.1l-0.2,0
	c0.2,0.2,0.6,0.3,0.7,0.7c-0.1,0-0.2,0-0.1,0.1c0.4,0.3,0.7,0.6,0.9,0.9l-0.4-0.2c0.9,1.5,1.9,1.9,2.9,3c-0.4,0.3,0.3,1.4,0.7,2
	l-0.1,0c1.1,1.4,2.3,2.7,3.6,3.9c0.3,1.2,2.2,3.2,3.1,4.9c-0.1-0.3,0.3-0.2,0.5,0.1c0.2,0.4,1,0.8,0.6,1l-0.1-0.1
	c-0.1,0.5,0.5,1.2,0.9,1.7l0.5-0.2c0.5,1.9,3.1,3.7,3.1,4.9c0.4,0.3,0.7,0.7,1.1,1l-0.2,0.2c0.6,0.9,1.3,1.8,2,2.7l-0.3-0.1
	c0.5,0.7,1.3,0.4,1.8,1l-0.2,0.4c0.9,1.2,1.5,2.6,2.7,3.6c-0.1,0-0.2,0.1-0.3-0.1c0.4,0.6,1.4,2.3,1.7,1.8c-0.3,0.2,0.9,1.2,1.5,1.8
	l-0.3,0.1c0.6,0.2,1.1,0.5,1.4,1c0.1,0.2-0.1,0.3-0.2,0c0.3,0.7,0.6,0.3,1,1.1l-0.3-0.2c0.2,0.4,0.5,0.6,0.9,0.7
	c0.4,0.3,0.8,1.2,0.7,1.5c0.4,0.1,0.7,0.3,0.8,0.6c0,0.1-0.2,0-0.3,0c0.6,1.1,1.4,1.3,1.7,2.2c-0.1,0.1-0.1,0.1,0,0.2
	c-0.6-0.8-1.1-1.5-1-1.4c-0.2,0.2,0.3,0.8-0.4,0.5c0.8,0.5,1.4,1.1,2,1.8c0,0,0,0.1,0,0.1l-0.1,0c0.1,0.1,0.2,0.3,0.3,0.4
	c0.1,0.2,0.2,0.4,0.3,0.6c-0.1,0.2,0.5,0.8,0.7,1.2c0.2-0.2,0.5,0.3,0.4-0.3c0,0.1-0.1,0-0.2-0.3c0,0-0.1-0.1-0.1-0.1l0,0l-0.6-0.8
	c0.4,0.2,0.6,0.5,0.8,0.8c0.3,0.1,0.6,0.1,0.7,0.2c0,0.7,0.5,1.7,0.4,1.9c0.4,0.5,0.9,1,1.4,1.5c0.2,0.2,0.5,0.5,0.7,0.7
	c0.2,0.2,0.5,0.5,0.8,0.6c0.1,0.1,0.2,0.3,0.3,0.4c0,0.1,0.1,0.1,0.2,0.2c-0.1,0-0.1,0.1-0.2,0.1l-0.1-0.2c-0.1-0.1-0.2-0.2-0.3-0.2
	c0.2,0.1,0.3,0.6,0.7,0.3l1-0.4c0.2-0.1,0.5-0.2,0.7-0.3c0.1-0.1,0.2-0.2,0.2-0.3c0.9-0.2-0.4,0.5,0.8,0l-0.1,0.2
	c2.6-0.4,3.3-2.4,6-3.1c-0.2,0.1-0.3,0.1-0.3,0c2.9-1.2,5.2-3.7,7.9-5.3c0.7-0.5,0.6-0.7,0.9-1.2l0.3,0.1l0.4-0.9
	c0.7-1.1,2.1-1,2.9-2.6l-0.3,0c0.4-0.4,1.1-1.5,1.3-1.2c0-0.2,0.1-0.3,0.2-0.4l0.1,0.1c0.2-0.4,0.5-0.9,0.7-1.3
	c0.8-0.8,0.4,0.5,1.4-0.7C266.8,356.9,267.2,355.8,267,355.9z M261.6,348.8C261.6,348.8,261.6,348.9,261.6,348.8l-0.2-0.2
	C261.5,348.7,261.5,348.7,261.6,348.8z M237.3,369L237.3,369c0,0-0.1,0-0.1,0c-0.2-0.2-0.2-0.3-0.2-0.4
	C237.1,368.7,237.2,368.8,237.3,369L237.3,369z"/>
<path class="st3" d="M237.8,369.2C237.8,369.2,237.8,369.2,237.8,369.2C237.9,369.2,237.8,369.1,237.8,369.2l-0.1-0.1L237.8,369.2z"
	/>
<path class="st3" d="M246.3,327.8C246.4,327.9,246.4,327.9,246.3,327.8C246.4,327.9,246.4,327.9,246.3,327.8L246.3,327.8z"/>
<path class="st3" d="M259.1,344.4c-0.5-1.3,0,0.4-0.8-0.8l0.6,0.9C258.8,344.3,258.8,344,259.1,344.4z"/>
<path class="st3" d="M256.6,340.8c-0.3-0.2-0.4-0.3-0.2,0.1C256.8,341.3,256.5,340.8,256.6,340.8z"/>
<path class="st3" d="M242.1,321.8l0.2-0.1C242,321.3,242.2,321.7,242.1,321.8z"/>
<polygon class="st3" points="238.3,315.8 237.7,315.3 238.1,315.7 "/>
<path class="st3" d="M211.7,292l0.3,0.1C212.2,291.9,212,291.6,211.7,292z"/>
<path class="st3" d="M197.5,303.1c0.3-0.1,0.6-0.3,0.9-0.4C198.1,302.7,197.7,302.9,197.5,303.1z"/>
<polygon class="st3" points="217.6,343.1 218.1,343.6 217.9,343.3 "/>
<path class="st6" d="M89.9,264.9l1.8,52.5l28.5,66.9c0,0-7.4,34.7,7.4,33.4s1.2-34.7,1.2-34.7l-13.6-70.6l-2.5-58.2L89.9,264.9z"/>
<polygon class="st8" points="100.3,228.1 101,223.5 106.5,225.7 123.9,252.9 88,271.5 "/>
</svg>
