<?xml version="1.0" encoding="utf-8"?>
<!-- Generator: Adobe Illustrator 22.1.0, SVG Export Plug-In . SVG Version: 6.00 Build 0)  -->
<svg version="1.1" id="fad6bd40-d7a1-475a-8cb8-f1a0445f95b8"
	 xmlns="http://www.w3.org/2000/svg" xmlns:xlink="http://www.w3.org/1999/xlink" x="0px" y="0px" viewBox="0 0 782.1 524.3"
	 style="enable-background:new 0 0 782.1 524.3;" xml:space="preserve">
<style type="text/css">
	.st0{fill:#E6E6E6;}
	.st1{fill:#FFFFFF;}
	.st2{fill:#6FA5E2;}
</style>
<rect id="effaf695-3865-40c6-8918-ced0238239c2" x="247.7" y="95.2" class="st0" width="286.7" height="324.4"/>
<rect id="f33d627f-c769-4bde-9d74-ef156faf640e" x="252.8" y="102" class="st1" width="275.9" height="310.6"/>
<ellipse id="b5fd4af9-5b07-4da2-8ccf-5b3d4ac887f6" transform="matrix(7.088905e-02 -0.9975 0.9975 7.088905e-02 -21.8413 748.8354)" class="st0" cx="391.1" cy="386.1" rx="15.5" ry="15.5"/>
<rect id="f05405a0-af73-4807-bbd1-d761cdd06c65" x="299.6" y="212" class="st0" width="88.8" height="9.1"/>
<rect id="a05e4a04-50b7-46b0-b842-8db21044ae7a" x="299.6" y="239.2" class="st2" width="134.1" height="9.1"/>
<rect id="bdce3bac-3998-4a72-bc14-4aa79023038d" x="299.6" y="266.6" class="st0" width="120.9" height="9.1"/>
<rect id="e1177af0-2f80-4461-b67e-43945f3b6fee" x="299.6" y="293.3" class="st2" width="186.7" height="9.1"/>
<rect id="b290cdc3-2096-427b-bfd4-6b657da823ea" x="301.5" y="318.7" class="st0" width="152.2" height="9.1"/>
<g id="b2dad932-78e1-44e1-9682-073c8202f887">
	<path id="e043db59-b600-449e-8c52-e1eb73379667" class="st2" d="M390.8,120.4c-18.2,0-32.9,14.7-32.9,32.9
		c0,18.2,14.7,32.9,32.9,32.9c18.2,0,32.9-14.7,32.9-32.9v0C423.7,135.1,409,120.4,390.8,120.4C390.8,120.4,390.8,120.4,390.8,120.4
		L390.8,120.4z M390.8,130.3c5.4,0,9.9,4.4,9.9,9.9s-4.4,9.9-9.9,9.9c-5.4,0-9.9-4.4-9.9-9.9l0,0
		C380.9,134.7,385.4,130.3,390.8,130.3z M390.8,177.8c-7.9,0-15.3-4-19.7-10.5c0.2-6.6,13.2-10.2,19.7-10.2s19.6,3.6,19.7,10.2
		C406.1,173.8,398.7,177.7,390.8,177.8L390.8,177.8z"/>
</g>
</svg>
